SplineFontDB: 3.0
FontName: Coda-Heavy
FullName: Coda-Heavy
FamilyName: Coda
Weight: Black
Copyright: Copyright (c) 2009 by vernon adams. All rights reserved.
Version: 1.000;PS 001.001;hotconv 1.0.56
ItalicAngle: 0
UnderlinePosition: -103
UnderlineWidth: 102
Ascent: 1638
Descent: 410
sfntRevision: 0x00010000
LayerCount: 2
Layer: 0 1 "Back"  1
Layer: 1 1 "Fore"  0
NeedsXUIDChange: 1
XUID: [1021 14 500265001 1323849]
FSType: 256
OS2Version: 2
OS2_WeightWidthSlopeOnly: 0
OS2_UseTypoMetrics: 1
CreationTime: 1313148003
ModificationTime: 1317648870
PfmFamily: 17
TTFWeight: 900
TTFWidth: 1
LineGap: 0
VLineGap: 0
Panose: 2 0 5 5 2 0 0 2 0 4
OS2TypoAscent: 72
OS2TypoAOffset: 1
OS2TypoDescent: 2
OS2TypoDOffset: 1
OS2TypoLinegap: 0
OS2WinAscent: 0
OS2WinAOffset: 1
OS2WinDescent: -149
OS2WinDOffset: 1
HheadAscent: -440
HheadAOffset: 1
HheadDescent: 298
HheadDOffset: 1
OS2SubXSize: 1331
OS2SubYSize: 1228
OS2SubXOff: 0
OS2SubYOff: 153
OS2SupXSize: 1331
OS2SupYSize: 1228
OS2SupXOff: 0
OS2SupYOff: 716
OS2StrikeYSize: 102
OS2StrikeYPos: 780
OS2Vendor: 'newt'
OS2CodePages: 20000093.00000000
OS2UnicodeRanges: 00000007.00000000.00000000.00000000
Lookup: 258 0 0 "'kern' Horizontal Kerning lookup 0"  {"'kern' Horizontal Kerning lookup 0 subtable"  } ['kern' ('DFLT' <'dflt' > ) ]
DEI: 91125
KernClass2: 2+ 3 "'kern' Horizontal Kerning lookup 0 subtable" 
 1 A
 1 T
 1 T
 11 a c d e o q
 0 {} -107 {} -17 {} 0 {} 0 {} -102 {}
ShortTable: maxp 16
  1
  0
  334
  142
  5
  137
  4
  1
  0
  0
  0
  0
  0
  0
  3
  1
EndShort

StartChar: numbersign
Encoding: 35 35 4
Width: 1655
Flags: W
LayerCount: 2
Fore
SplineSet
1438 419 m 1,0,-1
 1121 419 l 1,1,-1
 1030 0 l 1,2,-1
 837 0 l 1,3,-1
 928 419 l 1,4,-1
 574 419 l 1,5,-1
 483 0 l 1,6,-1
 290 0 l 1,7,-1
 381 419 l 1,8,-1
 67 419 l 1,9,-1
 103 568 l 1,10,-1
 414 568 l 1,11,-1
 502 972 l 1,12,-1
 194 972 l 1,13,-1
 230 1135 l 1,14,-1
 538 1135 l 1,15,-1
 618 1499 l 1,16,-1
 811 1499 l 1,17,-1
 731 1135 l 1,18,-1
 1085 1135 l 1,19,-1
 1165 1499 l 1,20,-1
 1358 1499 l 1,21,-1
 1278 1135 l 1,22,-1
 1589 1135 l 1,23,-1
 1559 972 l 1,24,-1
 1242 972 l 1,25,-1
 1154 568 l 1,26,-1
 1471 568 l 1,27,-1
 1438 419 l 1,0,-1
607 568 m 1,28,-1
 961 568 l 1,29,-1
 1049 972 l 1,30,-1
 695 972 l 1,31,-1
 607 568 l 1,28,-1
EndSplineSet
EndChar

StartChar: dollar
Encoding: 36 36 5
Width: 1607
Flags: W
LayerCount: 2
Fore
SplineSet
764 1632 m 1,0,-1
 846 1632 l 1,1,-1
 846 -115 l 1,2,-1
 764 -115 l 1,3,-1
 764 1632 l 1,0,-1
1099 1106 m 1,4,5
 1099 1189 1099 1189 1078 1236 c 128,-1,6
 1057 1283 1057 1283 1017.5 1306 c 128,-1,7
 978 1329 978 1329 922 1334.5 c 128,-1,8
 866 1340 866 1340 795 1340 c 0,9,10
 704 1340 704 1340 646.5 1335.5 c 128,-1,11
 589 1331 589 1331 556 1306 c 128,-1,12
 523 1281 523 1281 511 1227.5 c 128,-1,13
 499 1174 499 1174 499 1075 c 0,14,15
 499 1015 499 1015 513.5 975.5 c 128,-1,16
 528 936 528 936 562 912 c 128,-1,17
 596 888 596 888 650.5 877 c 128,-1,18
 705 866 705 866 785 863 c 0,19,20
 849 861 849 861 914.5 855 c 128,-1,21
 980 849 980 849 1041 834.5 c 128,-1,22
 1102 820 1102 820 1155.5 793.5 c 128,-1,23
 1209 767 1209 767 1248.5 723 c 128,-1,24
 1288 679 1288 679 1310.5 615.5 c 128,-1,25
 1333 552 1333 552 1333 463 c 0,26,27
 1333 357 1333 357 1315.5 281.5 c 128,-1,28
 1298 206 1298 206 1265 155 c 128,-1,29
 1232 104 1232 104 1184 74 c 128,-1,30
 1136 44 1136 44 1074.5 28 c 128,-1,31
 1013 12 1013 12 940 7.5 c 128,-1,32
 867 3 867 3 783 3 c 0,33,34
 669 3 669 3 573.5 17.5 c 128,-1,35
 478 32 478 32 408.5 76 c 128,-1,36
 339 120 339 120 300.5 202 c 128,-1,37
 262 284 262 284 262 419 c 2,38,-1
 262 436 l 1,39,-1
 471 436 l 1,40,41
 470 427 470 427 470 418.5 c 128,-1,42
 470 410 470 410 470 402 c 0,43,44
 470 324 470 324 492.5 279 c 128,-1,45
 515 234 515 234 554 211 c 128,-1,46
 593 188 593 188 645.5 182 c 128,-1,47
 698 176 698 176 757 176 c 0,48,49
 856 176 856 176 926 179.5 c 128,-1,50
 996 183 996 183 1040.5 209 c 128,-1,51
 1085 235 1085 235 1105.5 292.5 c 128,-1,52
 1126 350 1126 350 1126 458 c 0,53,54
 1126 528 1126 528 1108.5 572.5 c 128,-1,55
 1091 617 1091 617 1050.5 642.5 c 128,-1,56
 1010 668 1010 668 944.5 678.5 c 128,-1,57
 879 689 879 689 783 692 c 0,58,59
 725 694 725 694 665 698.5 c 128,-1,60
 605 703 605 703 549.5 716.5 c 128,-1,61
 494 730 494 730 445 755.5 c 128,-1,62
 396 781 396 781 359.5 825.5 c 128,-1,63
 323 870 323 870 302 936 c 128,-1,64
 281 1002 281 1002 281 1096 c 0,65,66
 281 1229 281 1229 314 1309.5 c 128,-1,67
 347 1390 347 1390 410.5 1433 c 128,-1,68
 474 1476 474 1476 566 1489.5 c 128,-1,69
 658 1503 658 1503 776 1503 c 0,70,71
 854 1503 854 1503 923 1499 c 128,-1,72
 992 1495 992 1495 1050.5 1481.5 c 128,-1,73
 1109 1468 1109 1468 1156 1442 c 128,-1,74
 1203 1416 1203 1416 1236 1372 c 128,-1,75
 1269 1328 1269 1328 1287 1263 c 128,-1,76
 1305 1198 1305 1198 1306 1106 c 1,77,-1
 1099 1106 l 1,4,5
EndSplineSet
EndChar

StartChar: percent
Encoding: 37 37 6
Width: 2488
Flags: W
LayerCount: 2
Fore
SplineSet
129 1129 m 2,0,1
 129 1211 129 1211 144 1267 c 128,-1,2
 159 1323 159 1323 200.5 1357 c 128,-1,3
 242 1391 242 1391 316 1405.5 c 128,-1,4
 390 1420 390 1420 509 1420 c 0,5,6
 627 1420 627 1420 701.5 1405 c 128,-1,7
 776 1390 776 1390 818 1356 c 128,-1,8
 860 1322 860 1322 875.5 1266.5 c 128,-1,9
 891 1211 891 1211 891 1129 c 2,10,-1
 891 795 l 2,11,12
 891 713 891 713 876 657 c 128,-1,13
 861 601 861 601 819 567 c 128,-1,14
 777 533 777 533 702.5 518 c 128,-1,15
 628 503 628 503 509 503 c 0,16,17
 389 503 389 503 315 518 c 128,-1,18
 241 533 241 533 199.5 567 c 128,-1,19
 158 601 158 601 143.5 657 c 128,-1,20
 129 713 129 713 129 795 c 2,21,-1
 129 1129 l 2,0,1
509 1297 m 256,22,23
 428 1297 428 1297 384.5 1294.5 c 128,-1,24
 341 1292 341 1292 321 1276.5 c 128,-1,25
 301 1261 301 1261 297.5 1227 c 128,-1,26
 294 1193 294 1193 294 1131 c 2,27,-1
 294 782 l 2,28,29
 294 724 294 724 297.5 692.5 c 128,-1,30
 301 661 301 661 321 646.5 c 128,-1,31
 341 632 341 632 384.5 629.5 c 128,-1,32
 428 627 428 627 509 627 c 256,33,34
 590 627 590 627 633.5 629.5 c 128,-1,35
 677 632 677 632 697 646.5 c 128,-1,36
 717 661 717 661 720.5 692.5 c 128,-1,37
 724 724 724 724 724 782 c 2,38,-1
 724 1131 l 2,39,40
 724 1193 724 1193 720.5 1227 c 128,-1,41
 717 1261 717 1261 697 1276.5 c 128,-1,42
 677 1292 677 1292 633.5 1294.5 c 128,-1,43
 590 1297 590 1297 509 1297 c 256,22,23
1596 752 m 2,44,45
 1596 834 1596 834 1611 890 c 128,-1,46
 1626 946 1626 946 1667.5 980 c 128,-1,47
 1709 1014 1709 1014 1783 1028.5 c 128,-1,48
 1857 1043 1857 1043 1976 1043 c 0,49,50
 2094 1043 2094 1043 2168.5 1028 c 128,-1,51
 2243 1013 2243 1013 2285 979 c 128,-1,52
 2327 945 2327 945 2342.5 889.5 c 128,-1,53
 2358 834 2358 834 2358 752 c 2,54,-1
 2358 418 l 2,55,56
 2358 336 2358 336 2343 280 c 128,-1,57
 2328 224 2328 224 2286 190 c 128,-1,58
 2244 156 2244 156 2169.5 141 c 128,-1,59
 2095 126 2095 126 1976 126 c 0,60,61
 1856 126 1856 126 1782 141 c 128,-1,62
 1708 156 1708 156 1666.5 190 c 128,-1,63
 1625 224 1625 224 1610.5 280 c 128,-1,64
 1596 336 1596 336 1596 418 c 2,65,-1
 1596 752 l 2,44,45
1976 920 m 256,66,67
 1895 920 1895 920 1851.5 917.5 c 128,-1,68
 1808 915 1808 915 1788 899.5 c 128,-1,69
 1768 884 1768 884 1764.5 850 c 128,-1,70
 1761 816 1761 816 1761 754 c 2,71,-1
 1761 405 l 2,72,73
 1761 347 1761 347 1764.5 315.5 c 128,-1,74
 1768 284 1768 284 1788 269.5 c 128,-1,75
 1808 255 1808 255 1851.5 252.5 c 128,-1,76
 1895 250 1895 250 1976 250 c 256,77,78
 2057 250 2057 250 2100.5 252.5 c 128,-1,79
 2144 255 2144 255 2164 269.5 c 128,-1,80
 2184 284 2184 284 2187.5 315.5 c 128,-1,81
 2191 347 2191 347 2191 405 c 2,82,-1
 2191 754 l 2,83,84
 2191 816 2191 816 2187.5 850 c 128,-1,85
 2184 884 2184 884 2164 899.5 c 128,-1,86
 2144 915 2144 915 2100.5 917.5 c 128,-1,87
 2057 920 2057 920 1976 920 c 256,66,67
1535 1557 m 1,88,-1
 1152 -38 l 1,89,-1
 973 -38 l 1,90,-1
 1358 1557 l 1,91,-1
 1535 1557 l 1,88,-1
EndSplineSet
EndChar

StartChar: ampersand
Encoding: 38 38 7
Width: 1647
Flags: W
LayerCount: 2
Fore
SplineSet
786 156 m 0,0,1
 888 156 888 156 958 157.5 c 128,-1,2
 1028 159 1028 159 1073.5 167.5 c 128,-1,3
 1119 176 1119 176 1143 194.5 c 128,-1,4
 1167 213 1167 213 1178.5 247.5 c 128,-1,5
 1190 282 1190 282 1191.5 335 c 128,-1,6
 1193 388 1193 388 1193 466 c 2,7,-1
 1193 720 l 1,8,-1
 529 720 l 2,9,10
 488 720 488 720 460 717 c 128,-1,11
 432 714 432 714 413.5 704 c 128,-1,12
 395 694 395 694 385 674 c 128,-1,13
 375 654 375 654 370.5 619 c 128,-1,14
 366 584 366 584 365 533 c 128,-1,15
 364 482 364 482 364 409 c 0,16,17
 364 346 364 346 366 303 c 128,-1,18
 368 260 368 260 379.5 232 c 128,-1,19
 391 204 391 204 416.5 188.5 c 128,-1,20
 442 173 442 173 489 166 c 128,-1,21
 536 159 536 159 608 157.5 c 128,-1,22
 680 156 680 156 786 156 c 0,0,1
407 799 m 1,23,24
 349 806 349 806 303 842 c 0,25,26
 283 857 283 857 264.5 880.5 c 128,-1,27
 246 904 246 904 232 937.5 c 128,-1,28
 218 971 218 971 209 1016.5 c 128,-1,29
 200 1062 200 1062 200 1121 c 0,30,31
 200 1216 200 1216 213 1281 c 128,-1,32
 226 1346 226 1346 255.5 1388 c 128,-1,33
 285 1430 285 1430 333 1453 c 128,-1,34
 381 1476 381 1476 452 1486.5 c 128,-1,35
 523 1497 523 1497 619 1499 c 128,-1,36
 715 1501 715 1501 839 1501 c 0,37,38
 951 1501 951 1501 1035.5 1498.5 c 128,-1,39
 1120 1496 1120 1496 1180.5 1485.5 c 128,-1,40
 1241 1475 1241 1475 1280.5 1455 c 128,-1,41
 1320 1435 1320 1435 1343 1400.5 c 128,-1,42
 1366 1366 1366 1366 1375 1315 c 128,-1,43
 1384 1264 1384 1264 1384 1192 c 1,44,-1
 1383 1157 l 1,45,-1
 1193 1157 l 1,46,47
 1193 1203 1193 1203 1191 1235 c 128,-1,48
 1189 1267 1189 1267 1178.5 1288 c 128,-1,49
 1168 1309 1168 1309 1145 1320 c 128,-1,50
 1122 1331 1122 1331 1079.5 1336 c 128,-1,51
 1037 1341 1037 1341 971 1342 c 128,-1,52
 905 1343 905 1343 809 1343 c 0,53,54
 712 1343 712 1343 645 1342 c 128,-1,55
 578 1341 578 1341 534.5 1334 c 128,-1,56
 491 1327 491 1327 467.5 1312.5 c 128,-1,57
 444 1298 444 1298 433 1271 c 128,-1,58
 422 1244 422 1244 420 1202.5 c 128,-1,59
 418 1161 418 1161 418 1100 c 0,60,61
 418 1020 418 1020 420 974 c 128,-1,62
 422 928 422 928 432.5 904.5 c 128,-1,63
 443 881 443 881 466 874.5 c 128,-1,64
 489 868 489 868 532 868 c 2,65,-1
 1193 868 l 1,66,-1
 1193 1007 l 1,67,-1
 1384 1007 l 1,68,-1
 1384 869 l 1,69,-1
 1541 869 l 1,70,-1
 1541 720 l 1,71,-1
 1384 720 l 1,72,73
 1384 558 1384 558 1382 442 c 128,-1,74
 1380 326 1380 326 1364 246 c 128,-1,75
 1348 166 1348 166 1312 117.5 c 128,-1,76
 1276 69 1276 69 1209.5 43 c 128,-1,77
 1143 17 1143 17 1039.5 8.5 c 128,-1,78
 936 0 936 0 784 0 c 0,79,80
 673 0 673 0 582 2.5 c 128,-1,81
 491 5 491 5 420 17.5 c 128,-1,82
 349 30 349 30 297 57.5 c 128,-1,83
 245 85 245 85 211.5 135.5 c 128,-1,84
 178 186 178 186 161.5 262.5 c 128,-1,85
 145 339 145 339 145 451 c 0,86,87
 145 515 145 515 156 563.5 c 128,-1,88
 167 612 167 612 185.5 648.5 c 128,-1,89
 204 685 204 685 227.5 710 c 128,-1,90
 251 735 251 735 276 752 c 0,91,92
 333 791 333 791 407 799 c 1,23,24
EndSplineSet
EndChar

StartChar: quotesingle
Encoding: 39 39 8
Width: 648
Flags: W
LayerCount: 2
Fore
SplineSet
242 953 m 0,0,1
 239 939 239 939 232.5 932 c 128,-1,2
 226 925 226 925 219 925 c 0,3,4
 202 925 202 925 195 953 c 0,5,6
 191 966 191 966 184 999.5 c 128,-1,7
 177 1033 177 1033 168 1076.5 c 128,-1,8
 159 1120 159 1120 149.5 1168.5 c 128,-1,9
 140 1217 140 1217 132 1259.5 c 128,-1,10
 124 1302 124 1302 119 1335 c 128,-1,11
 114 1368 114 1368 114 1380 c 0,12,13
 114 1410 114 1410 123 1432.5 c 128,-1,14
 132 1455 132 1455 146.5 1470 c 128,-1,15
 161 1485 161 1485 179.5 1492.5 c 128,-1,16
 198 1500 198 1500 218 1500 c 0,17,18
 237 1500 237 1500 256 1492.5 c 128,-1,19
 275 1485 275 1485 290 1470 c 128,-1,20
 305 1455 305 1455 314 1432.5 c 128,-1,21
 323 1410 323 1410 323 1380 c 0,22,23
 323 1368 323 1368 318 1335 c 128,-1,24
 313 1302 313 1302 305 1259.5 c 128,-1,25
 297 1217 297 1217 287.5 1168.5 c 128,-1,26
 278 1120 278 1120 269 1076.5 c 128,-1,27
 260 1033 260 1033 252.5 999.5 c 128,-1,28
 245 966 245 966 242 953 c 0,0,1
EndSplineSet
EndChar

StartChar: parenleft
Encoding: 40 40 9
Width: 872
Flags: W
LayerCount: 2
Fore
SplineSet
127 790 m 256,0,1
 127 849 127 849 132.5 920 c 128,-1,2
 138 991 138 991 150.5 1067.5 c 128,-1,3
 163 1144 163 1144 183 1222.5 c 128,-1,4
 203 1301 203 1301 233 1373.5 c 128,-1,5
 263 1446 263 1446 302.5 1509.5 c 128,-1,6
 342 1573 342 1573 393.5 1620.5 c 128,-1,7
 445 1668 445 1668 509 1695 c 128,-1,8
 573 1722 573 1722 651 1722 c 2,9,-1
 747 1722 l 1,10,-1
 747 1577 l 1,11,-1
 679 1577 l 2,12,13
 626 1577 626 1577 583.5 1551 c 128,-1,14
 541 1525 541 1525 507 1481 c 128,-1,15
 473 1437 473 1437 447.5 1379 c 128,-1,16
 422 1321 422 1321 402.5 1256 c 128,-1,17
 383 1191 383 1191 370.5 1124 c 128,-1,18
 358 1057 358 1057 350.5 994.5 c 128,-1,19
 343 932 343 932 339.5 879 c 128,-1,20
 336 826 336 826 336 790 c 0,21,22
 336 741 336 741 342 665 c 128,-1,23
 348 589 348 589 362.5 503.5 c 128,-1,24
 377 418 377 418 402 331.5 c 128,-1,25
 427 245 427 245 465 175.5 c 128,-1,26
 503 106 503 106 555.5 62.5 c 128,-1,27
 608 19 608 19 679 19 c 2,28,-1
 747 19 l 1,29,-1
 747 -125 l 1,30,-1
 651 -125 l 2,31,32
 573 -125 573 -125 509 -98.5 c 128,-1,33
 445 -72 445 -72 393.5 -26 c 128,-1,34
 342 20 342 20 302 81.5 c 128,-1,35
 262 143 262 143 232.5 214 c 128,-1,36
 203 285 203 285 183 362 c 128,-1,37
 163 439 163 439 150.5 514.5 c 128,-1,38
 138 590 138 590 132.5 660.5 c 128,-1,39
 127 731 127 731 127 790 c 256,0,1
EndSplineSet
EndChar

StartChar: parenright
Encoding: 41 41 10
Width: 873
Flags: W
LayerCount: 2
Fore
SplineSet
746 790 m 256,0,1
 746 731 746 731 740.5 660.5 c 128,-1,2
 735 590 735 590 722.5 514.5 c 128,-1,3
 710 439 710 439 690 362 c 128,-1,4
 670 285 670 285 640.5 214 c 128,-1,5
 611 143 611 143 571 81.5 c 128,-1,6
 531 20 531 20 479.5 -26 c 128,-1,7
 428 -72 428 -72 364 -98.5 c 128,-1,8
 300 -125 300 -125 222 -125 c 2,9,-1
 126 -125 l 1,10,-1
 126 19 l 1,11,-1
 194 19 l 2,12,13
 264 19 264 19 317 62.5 c 128,-1,14
 370 106 370 106 408 175.5 c 128,-1,15
 446 245 446 245 471 331.5 c 128,-1,16
 496 418 496 418 510.5 503.5 c 128,-1,17
 525 589 525 589 531 665 c 128,-1,18
 537 741 537 741 537 790 c 0,19,20
 537 826 537 826 533.5 879 c 128,-1,21
 530 932 530 932 522.5 994.5 c 128,-1,22
 515 1057 515 1057 502.5 1124 c 128,-1,23
 490 1191 490 1191 470.5 1256 c 128,-1,24
 451 1321 451 1321 425.5 1379 c 128,-1,25
 400 1437 400 1437 366 1481 c 128,-1,26
 332 1525 332 1525 289 1551 c 128,-1,27
 246 1577 246 1577 194 1577 c 2,28,-1
 126 1577 l 1,29,-1
 126 1722 l 1,30,-1
 222 1722 l 2,31,32
 300 1722 300 1722 364 1695 c 128,-1,33
 428 1668 428 1668 479.5 1620.5 c 128,-1,34
 531 1573 531 1573 570.5 1509.5 c 128,-1,35
 610 1446 610 1446 640 1373.5 c 128,-1,36
 670 1301 670 1301 690 1222.5 c 128,-1,37
 710 1144 710 1144 722.5 1067.5 c 128,-1,38
 735 991 735 991 740.5 920 c 128,-1,39
 746 849 746 849 746 790 c 256,0,1
EndSplineSet
EndChar

StartChar: asterisk
Encoding: 42 42 11
Width: 1214
Flags: W
LayerCount: 2
Fore
SplineSet
607 988 m 1,0,1
 601 966 601 966 592 926.5 c 128,-1,2
 583 887 583 887 571 841 c 128,-1,3
 559 795 559 795 543.5 747.5 c 128,-1,4
 528 700 528 700 508.5 661.5 c 128,-1,5
 489 623 489 623 465.5 598.5 c 128,-1,6
 442 574 442 574 414 574 c 0,7,8
 396 574 396 574 379.5 580 c 128,-1,9
 363 586 363 586 350.5 597.5 c 128,-1,10
 338 609 338 609 330 624 c 128,-1,11
 322 639 322 639 322 657 c 0,12,13
 322 678 322 678 337.5 707.5 c 128,-1,14
 353 737 353 737 377.5 769.5 c 128,-1,15
 402 802 402 802 432.5 835.5 c 128,-1,16
 463 869 463 869 492.5 900 c 128,-1,17
 522 931 522 931 547.5 956 c 128,-1,18
 573 981 573 981 589 997 c 1,19,20
 548 986 548 986 500.5 972 c 128,-1,21
 453 958 453 958 404 945.5 c 128,-1,22
 355 933 355 933 307 924 c 128,-1,23
 259 915 259 915 218 915 c 0,24,25
 197 915 197 915 178 920 c 128,-1,26
 159 925 159 925 144 935.5 c 128,-1,27
 129 946 129 946 120.5 963 c 128,-1,28
 112 980 112 980 112 1003 c 0,29,30
 112 1046 112 1046 140 1071.5 c 128,-1,31
 168 1097 168 1097 210 1097 c 0,32,33
 251 1097 251 1097 300.5 1087.5 c 128,-1,34
 350 1078 350 1078 400.5 1065 c 128,-1,35
 451 1052 451 1052 500 1037 c 128,-1,36
 549 1022 549 1022 590 1012 c 1,37,38
 574 1028 574 1028 548 1053.5 c 128,-1,39
 522 1079 522 1079 492.5 1109.5 c 128,-1,40
 463 1140 463 1140 432.5 1174 c 128,-1,41
 402 1208 402 1208 377.5 1240.5 c 128,-1,42
 353 1273 353 1273 337.5 1302 c 128,-1,43
 322 1331 322 1331 322 1353 c 0,44,45
 322 1371 322 1371 330 1386 c 128,-1,46
 338 1401 338 1401 350.5 1412.5 c 128,-1,47
 363 1424 363 1424 379.5 1430 c 128,-1,48
 396 1436 396 1436 414 1436 c 0,49,50
 442 1436 442 1436 465.5 1411.5 c 128,-1,51
 489 1387 489 1387 508.5 1348.5 c 128,-1,52
 528 1310 528 1310 543.5 1262.5 c 128,-1,53
 559 1215 559 1215 571 1169 c 128,-1,54
 583 1123 583 1123 592 1083.5 c 128,-1,55
 601 1044 601 1044 607 1022 c 1,56,57
 613 1044 613 1044 622 1083.5 c 128,-1,58
 631 1123 631 1123 643 1169 c 128,-1,59
 655 1215 655 1215 670.5 1262.5 c 128,-1,60
 686 1310 686 1310 705.5 1348.5 c 128,-1,61
 725 1387 725 1387 748.5 1411.5 c 128,-1,62
 772 1436 772 1436 800 1436 c 0,63,64
 818 1436 818 1436 834.5 1430 c 128,-1,65
 851 1424 851 1424 863.5 1412.5 c 128,-1,66
 876 1401 876 1401 884 1386 c 128,-1,67
 892 1371 892 1371 892 1353 c 0,68,69
 892 1331 892 1331 876.5 1302 c 128,-1,70
 861 1273 861 1273 836.5 1240.5 c 128,-1,71
 812 1208 812 1208 781.5 1174 c 128,-1,72
 751 1140 751 1140 721.5 1109.5 c 128,-1,73
 692 1079 692 1079 666 1053.5 c 128,-1,74
 640 1028 640 1028 624 1012 c 1,75,76
 665 1022 665 1022 714 1037 c 128,-1,77
 763 1052 763 1052 813.5 1065 c 128,-1,78
 864 1078 864 1078 913.5 1087.5 c 128,-1,79
 963 1097 963 1097 1004 1097 c 0,80,81
 1046 1097 1046 1097 1074 1071.5 c 128,-1,82
 1102 1046 1102 1046 1102 1003 c 0,83,84
 1102 980 1102 980 1093.5 963 c 128,-1,85
 1085 946 1085 946 1070 935.5 c 128,-1,86
 1055 925 1055 925 1036 920 c 128,-1,87
 1017 915 1017 915 996 915 c 0,88,89
 952 915 952 915 904.5 923.5 c 128,-1,90
 857 932 857 932 809 945 c 128,-1,91
 761 958 761 958 713.5 972 c 128,-1,92
 666 986 666 986 624 997 c 1,93,94
 639 981 639 981 665 956 c 128,-1,95
 691 931 691 931 721 900 c 128,-1,96
 751 869 751 869 781.5 835.5 c 128,-1,97
 812 802 812 802 836.5 769.5 c 128,-1,98
 861 737 861 737 876.5 707.5 c 128,-1,99
 892 678 892 678 892 657 c 0,100,101
 892 639 892 639 884 624 c 128,-1,102
 876 609 876 609 863.5 597.5 c 128,-1,103
 851 586 851 586 834.5 580 c 128,-1,104
 818 574 818 574 800 574 c 0,105,106
 772 574 772 574 748.5 598.5 c 128,-1,107
 725 623 725 623 705.5 661.5 c 128,-1,108
 686 700 686 700 670.5 747.5 c 128,-1,109
 655 795 655 795 643 841 c 128,-1,110
 631 887 631 887 622 926.5 c 128,-1,111
 613 966 613 966 607 988 c 1,0,1
EndSplineSet
EndChar

StartChar: plus
Encoding: 43 43 12
Width: 1373
Flags: W
LayerCount: 2
Fore
SplineSet
723 1117 m 1,0,-1
 723 754 l 1,1,-1
 1066 754 l 1,2,-1
 1066 585 l 1,3,-1
 723 585 l 1,4,-1
 723 223 l 1,5,-1
 537 223 l 1,6,-1
 537 585 l 1,7,-1
 195 585 l 1,8,-1
 195 754 l 1,9,-1
 537 754 l 1,10,-1
 537 1117 l 1,11,-1
 723 1117 l 1,0,-1
EndSplineSet
EndChar

StartChar: comma
Encoding: 44 44 13
Width: 625
Flags: W
LayerCount: 2
Fore
SplineSet
335 0 m 1,0,1
 301 0 301 0 271.5 11.5 c 128,-1,2
 242 23 242 23 220 43 c 128,-1,3
 198 63 198 63 185.5 91.5 c 128,-1,4
 173 120 173 120 173 155 c 0,5,6
 173 189 173 189 185 217 c 128,-1,7
 197 245 197 245 218.5 265.5 c 128,-1,8
 240 286 240 286 269 297.5 c 128,-1,9
 298 309 298 309 331 309 c 0,10,11
 373 309 373 309 404 294.5 c 128,-1,12
 435 280 435 280 456 254.5 c 128,-1,13
 477 229 477 229 487 195 c 128,-1,14
 497 161 497 161 497 122 c 0,15,16
 497 59 497 59 473.5 -4.5 c 128,-1,17
 450 -68 450 -68 409 -118 c 128,-1,18
 368 -168 368 -168 310.5 -199.5 c 128,-1,19
 253 -231 253 -231 186 -231 c 0,20,21
 175 -231 175 -231 164.5 -230 c 128,-1,22
 154 -229 154 -229 143 -227 c 1,23,-1
 143 -159 l 1,24,25
 170 -159 170 -159 203 -149 c 128,-1,26
 236 -139 236 -139 265.5 -121 c 128,-1,27
 295 -103 295 -103 315 -77.5 c 128,-1,28
 335 -52 335 -52 335 -20 c 2,29,-1
 335 0 l 1,0,1
EndSplineSet
EndChar

StartChar: hyphen
Encoding: 45 45 14
Width: 1260
Flags: W
LayerCount: 2
Fore
SplineSet
1086 754 m 1,0,-1
 1086 568 l 1,1,-1
 175 568 l 1,2,-1
 175 754 l 1,3,-1
 1086 754 l 1,4,-1
 1086 754 l 1,0,-1
EndSplineSet
EndChar

StartChar: period
Encoding: 46 46 15
Width: 607
Flags: W
LayerCount: 2
Fore
SplineSet
147 117 m 256,0,1
 147 151 147 151 158.5 179 c 128,-1,2
 170 207 170 207 191 227.5 c 128,-1,3
 212 248 212 248 240.5 259.5 c 128,-1,4
 269 271 269 271 303 271 c 256,5,6
 337 271 337 271 366 259.5 c 128,-1,7
 395 248 395 248 416 228 c 128,-1,8
 437 208 437 208 449 179.5 c 128,-1,9
 461 151 461 151 461 117 c 256,10,11
 461 83 461 83 449 54.5 c 128,-1,12
 437 26 437 26 416 6 c 128,-1,13
 395 -14 395 -14 366.5 -25.5 c 128,-1,14
 338 -37 338 -37 304 -37 c 0,15,16
 271 -37 271 -37 242 -25.5 c 128,-1,17
 213 -14 213 -14 192 6.5 c 128,-1,18
 171 27 171 27 159 55 c 128,-1,19
 147 83 147 83 147 117 c 256,0,1
EndSplineSet
EndChar

StartChar: slash
Encoding: 47 47 16
Width: 728
Flags: W
LayerCount: 2
Fore
SplineSet
641 1499 m 1,0,-1
 283 0 l 1,1,-1
 90 0 l 1,2,-1
 448 1499 l 1,3,-1
 641 1499 l 1,0,-1
EndSplineSet
EndChar

StartChar: zero
Encoding: 48 48 17
Width: 1492
Flags: W
LayerCount: 2
Fore
SplineSet
746 -37 m 256,0,1
 570 -37 570 -37 456.5 -2.5 c 128,-1,2
 343 32 343 32 277.5 108.5 c 128,-1,3
 212 185 212 185 186.5 308 c 128,-1,4
 161 431 161 431 161 608 c 2,5,-1
 161 922 l 2,6,7
 161 1095 161 1095 189.5 1212 c 128,-1,8
 218 1329 218 1329 286 1400.5 c 128,-1,9
 354 1472 354 1472 466 1502.5 c 128,-1,10
 578 1533 578 1533 746 1533 c 256,11,12
 914 1533 914 1533 1026 1502.5 c 128,-1,13
 1138 1472 1138 1472 1206 1400.5 c 128,-1,14
 1274 1329 1274 1329 1302.5 1212 c 128,-1,15
 1331 1095 1331 1095 1331 922 c 2,16,-1
 1331 608 l 2,17,18
 1331 431 1331 431 1305.5 308 c 128,-1,19
 1280 185 1280 185 1214.5 108.5 c 128,-1,20
 1149 32 1149 32 1035.5 -2.5 c 128,-1,21
 922 -37 922 -37 746 -37 c 256,0,1
746 126 m 0,22,23
 846 126 846 126 912.5 143 c 128,-1,24
 979 160 979 160 1019 193 c 128,-1,25
 1059 226 1059 226 1078.5 273.5 c 128,-1,26
 1098 321 1098 321 1105 382 c 128,-1,27
 1112 443 1112 443 1111 516.5 c 128,-1,28
 1110 590 1110 590 1110 674 c 0,29,30
 1110 769 1110 769 1114.5 858.5 c 128,-1,31
 1119 948 1119 948 1116.5 1026 c 128,-1,32
 1114 1104 1114 1104 1098.5 1168.5 c 128,-1,33
 1083 1233 1083 1233 1042.5 1279 c 128,-1,34
 1002 1325 1002 1325 931 1350.5 c 128,-1,35
 860 1376 860 1376 746 1376 c 0,36,37
 643 1376 643 1376 575.5 1358 c 128,-1,38
 508 1340 508 1340 467.5 1306 c 128,-1,39
 427 1272 427 1272 407.5 1223 c 128,-1,40
 388 1174 388 1174 381.5 1111 c 128,-1,41
 375 1048 375 1048 376.5 973 c 128,-1,42
 378 898 378 898 378 812 c 0,43,44
 378 722 378 722 373.5 636 c 128,-1,45
 369 550 369 550 371.5 473.5 c 128,-1,46
 374 397 374 397 389.5 333.5 c 128,-1,47
 405 270 405 270 446 223.5 c 128,-1,48
 487 177 487 177 559 151.5 c 128,-1,49
 631 126 631 126 746 126 c 0,22,23
EndSplineSet
EndChar

StartChar: one
Encoding: 49 49 18
Width: 669
Flags: W
LayerCount: 2
Fore
SplineSet
80 1426 m 1,0,1
 113 1426 113 1426 145 1428 c 128,-1,2
 177 1430 177 1430 206 1437.5 c 128,-1,3
 235 1445 235 1445 262 1459.5 c 128,-1,4
 289 1474 289 1474 313 1499 c 1,5,-1
 495 1499 l 1,6,-1
 495 0 l 1,7,-1
 274 0 l 1,8,-1
 274 1309 l 1,9,-1
 80 1309 l 1,10,-1
 80 1426 l 1,0,1
EndSplineSet
EndChar

StartChar: two
Encoding: 50 50 19
Width: 1306
Flags: W
LayerCount: 2
Fore
SplineSet
1126 185 m 1,0,-1
 1126 1 l 1,1,-1
 176 1 l 1,2,-1
 176 189 l 2,3,4
 176 283 176 283 209 359 c 128,-1,5
 242 435 242 435 296 497.5 c 128,-1,6
 350 560 350 560 419 611 c 128,-1,7
 488 662 488 662 560.5 705.5 c 128,-1,8
 633 749 633 749 702 786 c 128,-1,9
 771 823 771 823 825 858.5 c 128,-1,10
 879 894 879 894 912 929 c 128,-1,11
 945 964 945 964 945 1003 c 2,12,-1
 945 1088 l 2,13,14
 945 1177 945 1177 938 1232.5 c 128,-1,15
 931 1288 931 1288 904 1318.5 c 128,-1,16
 877 1349 877 1349 823.5 1360 c 128,-1,17
 770 1371 770 1371 676 1371 c 0,18,19
 590 1371 590 1371 532.5 1367.5 c 128,-1,20
 475 1364 475 1364 440 1341.5 c 128,-1,21
 405 1319 405 1319 391 1270 c 128,-1,22
 377 1221 377 1221 378 1131 c 1,23,-1
 161 1131 l 1,24,25
 161 1271 161 1271 197 1351.5 c 128,-1,26
 233 1432 233 1432 300 1472.5 c 128,-1,27
 367 1513 367 1513 462.5 1523.5 c 128,-1,28
 558 1534 558 1534 676 1534 c 0,29,30
 804 1534 804 1534 895 1518 c 128,-1,31
 986 1502 986 1502 1043.5 1454.5 c 128,-1,32
 1101 1407 1101 1407 1127.5 1320 c 128,-1,33
 1154 1233 1154 1233 1154 1091 c 0,34,35
 1154 1001 1154 1001 1132.5 934 c 128,-1,36
 1111 867 1111 867 1074 817 c 128,-1,37
 1037 767 1037 767 988 729.5 c 128,-1,38
 939 692 939 692 883 660.5 c 128,-1,39
 827 629 827 629 767.5 600 c 128,-1,40
 708 571 708 571 651 537.5 c 128,-1,41
 594 504 594 504 542 462 c 128,-1,42
 490 420 490 420 450 363 c 0,43,44
 443 354 443 354 434 338.5 c 128,-1,45
 425 323 425 323 416 306.5 c 128,-1,46
 407 290 407 290 400 274 c 128,-1,47
 393 258 393 258 391 247 c 0,48,49
 389 233 389 233 390 216 c 128,-1,50
 391 199 391 199 391 185 c 1,51,-1
 1126 185 l 1,0,-1
EndSplineSet
EndChar

StartChar: three
Encoding: 51 51 20
Width: 1346
Flags: W
LayerCount: 2
Fore
SplineSet
965 401 m 0,0,1
 965 474 965 474 959 524 c 128,-1,2
 953 574 953 574 937.5 606 c 128,-1,3
 922 638 922 638 896 655 c 128,-1,4
 870 672 870 672 830.5 679.5 c 128,-1,5
 791 687 791 687 736.5 688 c 128,-1,6
 682 689 682 689 609 689 c 1,7,-1
 609 847 l 1,8,9
 673 847 673 847 724.5 846 c 128,-1,10
 776 845 776 845 815.5 849 c 128,-1,11
 855 853 855 853 883.5 865.5 c 128,-1,12
 912 878 912 878 930 904.5 c 128,-1,13
 948 931 948 931 956.5 975 c 128,-1,14
 965 1019 965 1019 965 1087 c 0,15,16
 965 1184 965 1184 956 1240.5 c 128,-1,17
 947 1297 947 1297 916.5 1326 c 128,-1,18
 886 1355 886 1355 827.5 1363 c 128,-1,19
 769 1371 769 1371 669 1371 c 0,20,21
 582 1371 582 1371 524.5 1367.5 c 128,-1,22
 467 1364 467 1364 433 1341.5 c 128,-1,23
 399 1319 399 1319 385 1270 c 128,-1,24
 371 1221 371 1221 371 1131 c 1,25,-1
 154 1131 l 1,26,27
 154 1271 154 1271 190 1351.5 c 128,-1,28
 226 1432 226 1432 293 1472.5 c 128,-1,29
 360 1513 360 1513 455 1523.5 c 128,-1,30
 550 1534 550 1534 669 1534 c 0,31,32
 756 1534 756 1534 828 1528.5 c 128,-1,33
 900 1523 900 1523 957 1507 c 128,-1,34
 1014 1491 1014 1491 1057 1461 c 128,-1,35
 1100 1431 1100 1431 1128 1381.5 c 128,-1,36
 1156 1332 1156 1332 1170 1261 c 128,-1,37
 1184 1190 1184 1190 1184 1091 c 0,38,39
 1184 1034 1184 1034 1177 982 c 128,-1,40
 1170 930 1170 930 1149 887.5 c 128,-1,41
 1128 845 1128 845 1091 813 c 128,-1,42
 1054 781 1054 781 994 763 c 1,43,44
 1054 742 1054 742 1091 704.5 c 128,-1,45
 1128 667 1128 667 1149 619.5 c 128,-1,46
 1170 572 1170 572 1177 516.5 c 128,-1,47
 1184 461 1184 461 1184 403 c 0,48,49
 1184 302 1184 302 1168.5 230 c 128,-1,50
 1153 158 1153 158 1122.5 109 c 128,-1,51
 1092 60 1092 60 1047 31.5 c 128,-1,52
 1002 3 1002 3 942.5 -12.5 c 128,-1,53
 883 -28 883 -28 809.5 -32.5 c 128,-1,54
 736 -37 736 -37 649 -37 c 0,55,56
 571 -37 571 -37 503.5 -33 c 128,-1,57
 436 -29 436 -29 381 -15 c 128,-1,58
 326 -1 326 -1 283.5 25.5 c 128,-1,59
 241 52 241 52 212 96.5 c 128,-1,60
 183 141 183 141 168.5 206 c 128,-1,61
 154 271 154 271 154 363 c 1,62,-1
 371 363 l 1,63,64
 371 276 371 276 382.5 228 c 128,-1,65
 394 180 394 180 425 157.5 c 128,-1,66
 456 135 456 135 510 130.5 c 128,-1,67
 564 126 564 126 649 126 c 0,68,69
 749 126 749 126 810.5 131.5 c 128,-1,70
 872 137 872 137 906.5 163.5 c 128,-1,71
 941 190 941 190 953 245.5 c 128,-1,72
 965 301 965 301 965 401 c 0,0,1
EndSplineSet
EndChar

StartChar: four
Encoding: 52 52 21
Width: 1039
Flags: W
LayerCount: 2
Fore
SplineSet
685 392 m 1,0,-1
 19 392 l 1,1,-1
 19 564 l 1,2,-1
 533 1499 l 1,3,-1
 754 1499 l 1,4,-1
 250 552 l 1,5,-1
 685 552 l 1,6,-1
 685 986 l 1,7,-1
 906 986 l 1,8,-1
 906 0 l 1,9,-1
 685 0 l 1,10,-1
 685 392 l 1,0,-1
EndSplineSet
EndChar

StartChar: five
Encoding: 53 53 22
Width: 1320
Flags: W
LayerCount: 2
Fore
SplineSet
167 641 m 1,0,-1
 187 1501 l 1,1,-1
 1130 1501 l 1,2,-1
 1130 1338 l 1,3,-1
 406 1338 l 1,4,-1
 376 813 l 1,5,6
 376 845 376 845 395.5 868.5 c 128,-1,7
 415 892 415 892 445.5 908.5 c 128,-1,8
 476 925 476 925 514.5 936 c 128,-1,9
 553 947 553 947 590.5 953 c 128,-1,10
 628 959 628 959 660.5 961 c 128,-1,11
 693 963 693 963 712 963 c 0,12,13
 844 963 844 963 938 944 c 128,-1,14
 1032 925 1032 925 1092 872.5 c 128,-1,15
 1152 820 1152 820 1179.5 727.5 c 128,-1,16
 1207 635 1207 635 1207 488 c 0,17,18
 1207 335 1207 335 1184.5 233.5 c 128,-1,19
 1162 132 1162 132 1105.5 72 c 128,-1,20
 1049 12 1049 12 953.5 -12.5 c 128,-1,21
 858 -37 858 -37 712 -37 c 0,22,23
 571 -37 571 -37 465.5 -24.5 c 128,-1,24
 360 -12 360 -12 290 32 c 128,-1,25
 220 76 220 76 187 162 c 128,-1,26
 154 248 154 248 158 394 c 1,27,-1
 366 394 l 1,28,29
 366 331 366 331 368 286.5 c 128,-1,30
 370 242 370 242 379.5 211.5 c 128,-1,31
 389 181 389 181 410 163 c 128,-1,32
 431 145 431 145 469.5 135.5 c 128,-1,33
 508 126 508 126 567 123 c 128,-1,34
 626 120 626 120 712 120 c 1,35,36
 786 119 786 119 835.5 124 c 128,-1,37
 885 129 885 129 916 142.5 c 128,-1,38
 947 156 947 156 962.5 179 c 128,-1,39
 978 202 978 202 984.5 238.5 c 128,-1,40
 991 275 991 275 991 326 c 128,-1,41
 991 377 991 377 991 446 c 0,42,43
 991 534 991 534 990 595 c 128,-1,44
 989 656 989 656 981.5 695 c 128,-1,45
 974 734 974 734 957 755.5 c 128,-1,46
 940 777 940 777 909 787 c 128,-1,47
 878 797 878 797 830 798.5 c 128,-1,48
 782 800 782 800 712 800 c 0,49,50
 656 800 656 800 599 802 c 128,-1,51
 542 804 542 804 494.5 792 c 128,-1,52
 447 780 447 780 415.5 746.5 c 128,-1,53
 384 713 384 713 378 641 c 1,54,-1
 167 641 l 1,0,-1
EndSplineSet
EndChar

StartChar: six
Encoding: 54 54 23
Width: 1407
Flags: W
LayerCount: 2
Fore
SplineSet
741 964 m 0,0,1
 842 964 842 964 920.5 957.5 c 128,-1,2
 999 951 999 951 1057.5 932.5 c 128,-1,3
 1116 914 1116 914 1156 880.5 c 128,-1,4
 1196 847 1196 847 1221 793 c 128,-1,5
 1246 739 1246 739 1257 662 c 128,-1,6
 1268 585 1268 585 1268 479 c 0,7,8
 1268 369 1268 369 1256 288.5 c 128,-1,9
 1244 208 1244 208 1218 150.5 c 128,-1,10
 1192 93 1192 93 1150 57 c 128,-1,11
 1108 21 1108 21 1047 0 c 128,-1,12
 986 -21 986 -21 905 -28.5 c 128,-1,13
 824 -36 824 -36 721 -36 c 0,14,15
 565 -36 565 -36 457.5 -17.5 c 128,-1,16
 350 1 350 1 283 54.5 c 128,-1,17
 216 108 216 108 186 204 c 128,-1,18
 156 300 156 300 156 455 c 2,19,-1
 156 1041 l 2,20,21
 156 1195 156 1195 188 1291 c 128,-1,22
 220 1387 220 1387 288 1441 c 128,-1,23
 356 1495 356 1495 460.5 1514 c 128,-1,24
 565 1533 565 1533 711 1533 c 0,25,26
 787 1533 787 1533 855 1529.5 c 128,-1,27
 923 1526 923 1526 980.5 1513 c 128,-1,28
 1038 1500 1038 1500 1084 1474 c 128,-1,29
 1130 1448 1130 1448 1162 1403.5 c 128,-1,30
 1194 1359 1194 1359 1211 1292.5 c 128,-1,31
 1228 1226 1228 1226 1228 1131 c 1,32,-1
 1011 1131 l 1,33,34
 1011 1193 1011 1193 1008 1235.5 c 128,-1,35
 1005 1278 1005 1278 994 1305.5 c 128,-1,36
 983 1333 983 1333 963 1347.5 c 128,-1,37
 943 1362 943 1362 909.5 1368 c 128,-1,38
 876 1374 876 1374 827.5 1375 c 128,-1,39
 779 1376 779 1376 711 1376 c 0,40,41
 593 1376 593 1376 526 1364 c 128,-1,42
 459 1352 459 1352 426 1316.5 c 128,-1,43
 393 1281 393 1281 385 1216 c 128,-1,44
 377 1151 377 1151 377 1046 c 2,45,-1
 377 814 l 1,46,47
 382 856 382 856 422 889 c 0,48,49
 439 903 439 903 465.5 916.5 c 128,-1,50
 492 930 492 930 530.5 940.5 c 128,-1,51
 569 951 569 951 621 957.5 c 128,-1,52
 673 964 673 964 741 964 c 0,0,1
377 525 m 0,53,54
 377 424 377 424 379.5 355 c 128,-1,55
 382 286 382 286 393 241 c 128,-1,56
 404 196 404 196 426 171.5 c 128,-1,57
 448 147 448 147 486 136 c 128,-1,58
 524 125 524 125 581.5 123 c 128,-1,59
 639 121 639 121 721 121 c 256,60,61
 803 121 803 121 859.5 122.5 c 128,-1,62
 916 124 916 124 952.5 133.5 c 128,-1,63
 989 143 989 143 1009 163 c 128,-1,64
 1029 183 1029 183 1038.5 220 c 128,-1,65
 1048 257 1048 257 1050 314.5 c 128,-1,66
 1052 372 1052 372 1052 456 c 0,67,68
 1052 542 1052 542 1050.5 601 c 128,-1,69
 1049 660 1049 660 1039.5 698.5 c 128,-1,70
 1030 737 1030 737 1010 758 c 128,-1,71
 990 779 990 779 953 788.5 c 128,-1,72
 916 798 916 798 859.5 799.5 c 128,-1,73
 803 801 803 801 721 801 c 0,74,75
 635 801 635 801 576 799.5 c 128,-1,76
 517 798 517 798 479 790.5 c 128,-1,77
 441 783 441 783 420 766.5 c 128,-1,78
 399 750 399 750 389.5 719.5 c 128,-1,79
 380 689 380 689 378.5 641.5 c 128,-1,80
 377 594 377 594 377 525 c 0,53,54
EndSplineSet
EndChar

StartChar: seven
Encoding: 55 55 24
Width: 1023
Flags: W
LayerCount: 2
Fore
SplineSet
118 1339 m 1,0,-1
 118 1499 l 1,1,-1
 927 1499 l 1,2,-1
 927 1327 l 1,3,-1
 433 0 l 1,4,-1
 212 0 l 1,5,-1
 706 1339 l 1,6,-1
 118 1339 l 1,7,-1
 118 1339 l 1,0,-1
EndSplineSet
EndChar

StartChar: eight
Encoding: 56 56 25
Width: 1417
Flags: W
LayerCount: 2
Fore
SplineSet
1226 1112 m 0,0,1
 1226 1071 1226 1071 1223.5 1027.5 c 128,-1,2
 1221 984 1221 984 1211.5 942.5 c 128,-1,3
 1202 901 1202 901 1181.5 864.5 c 128,-1,4
 1161 828 1161 828 1125 802 c 1,5,6
 1203 748 1203 748 1239.5 670.5 c 128,-1,7
 1276 593 1276 593 1276 499 c 0,8,9
 1276 383 1276 383 1267.5 298 c 128,-1,10
 1259 213 1259 213 1236.5 153.5 c 128,-1,11
 1214 94 1214 94 1174 57 c 128,-1,12
 1134 20 1134 20 1071 -0.5 c 128,-1,13
 1008 -21 1008 -21 919.5 -28.5 c 128,-1,14
 831 -36 831 -36 711 -36 c 0,15,16
 612 -36 612 -36 531.5 -32 c 128,-1,17
 451 -28 451 -28 388.5 -14 c 128,-1,18
 326 0 326 0 280 27.5 c 128,-1,19
 234 55 234 55 204.5 102 c 128,-1,20
 175 149 175 149 160.5 218 c 128,-1,21
 146 287 146 287 146 385 c 0,22,23
 146 450 146 450 147.5 507.5 c 128,-1,24
 149 565 149 565 162.5 616.5 c 128,-1,25
 176 668 176 668 206.5 714 c 128,-1,26
 237 760 237 760 296 802 c 1,27,28
 260 828 260 828 240 865 c 128,-1,29
 220 902 220 902 210.5 943.5 c 128,-1,30
 201 985 201 985 198.5 1028.5 c 128,-1,31
 196 1072 196 1072 196 1112 c 0,32,33
 196 1253 196 1253 231 1336 c 128,-1,34
 266 1419 266 1419 332.5 1463 c 128,-1,35
 399 1507 399 1507 494.5 1520 c 128,-1,36
 590 1533 590 1533 711 1533 c 256,37,38
 832 1533 832 1533 927.5 1520 c 128,-1,39
 1023 1507 1023 1507 1089.5 1463 c 128,-1,40
 1156 1419 1156 1419 1191 1336 c 128,-1,41
 1226 1253 1226 1253 1226 1112 c 0,0,1
711 713 m 0,42,43
 637 713 637 713 564.5 711.5 c 128,-1,44
 492 710 492 710 421 694 c 1,45,46
 401 676 401 676 389.5 650 c 128,-1,47
 378 624 378 624 372 595 c 128,-1,48
 366 566 366 566 364.5 535 c 128,-1,49
 363 504 363 504 363 476 c 0,50,51
 363 388 363 388 363.5 327.5 c 128,-1,52
 364 267 364 267 372.5 227.5 c 128,-1,53
 381 188 381 188 400.5 166.5 c 128,-1,54
 420 145 420 145 459 135 c 128,-1,55
 498 125 498 125 559 123 c 128,-1,56
 620 121 620 121 711 121 c 0,57,58
 801 121 801 121 862 123.5 c 128,-1,59
 923 126 923 126 962 136.5 c 128,-1,60
 1001 147 1001 147 1021 169 c 128,-1,61
 1041 191 1041 191 1050 230 c 128,-1,62
 1059 269 1059 269 1060 328 c 128,-1,63
 1061 387 1061 387 1061 472 c 0,64,65
 1061 503 1061 503 1060 536.5 c 128,-1,66
 1059 570 1059 570 1054.5 600.5 c 128,-1,67
 1050 631 1050 631 1041.5 657 c 128,-1,68
 1033 683 1033 683 1018 698 c 1,69,70
 942 709 942 709 865 711 c 128,-1,71
 788 713 788 713 711 713 c 0,42,43
435 863 m 1,72,73
 504 863 504 863 573 863.5 c 128,-1,74
 642 864 642 864 711 864 c 256,75,76
 780 864 780 864 849 863.5 c 128,-1,77
 918 863 918 863 987 863 c 1,78,79
 1002 882 1002 882 1010 911 c 128,-1,80
 1018 940 1018 940 1022 971.5 c 128,-1,81
 1026 1003 1026 1003 1026.5 1033.5 c 128,-1,82
 1027 1064 1027 1064 1027 1088 c 0,83,84
 1027 1188 1027 1188 1022 1246 c 128,-1,85
 1017 1304 1017 1304 987.5 1332.5 c 128,-1,86
 958 1361 958 1361 893.5 1368.5 c 128,-1,87
 829 1376 829 1376 711 1376 c 0,88,89
 632 1376 632 1376 578 1373.5 c 128,-1,90
 524 1371 524 1371 489 1361 c 128,-1,91
 454 1351 454 1351 435 1332.5 c 128,-1,92
 416 1314 416 1314 407 1282 c 128,-1,93
 398 1250 398 1250 396.5 1202.5 c 128,-1,94
 395 1155 395 1155 395 1088 c 0,95,96
 395 1064 395 1064 395.5 1033.5 c 128,-1,97
 396 1003 396 1003 400 971.5 c 128,-1,98
 404 940 404 940 412 911 c 128,-1,99
 420 882 420 882 435 863 c 1,72,73
EndSplineSet
EndChar

StartChar: nine
Encoding: 57 57 26
Width: 1416
Flags: W
LayerCount: 2
Fore
SplineSet
695 533 m 0,0,1
 598 533 598 533 519 539.5 c 128,-1,2
 440 546 440 546 378 564.5 c 128,-1,3
 316 583 316 583 271 616.5 c 128,-1,4
 226 650 226 650 196.5 704 c 128,-1,5
 167 758 167 758 153 835 c 128,-1,6
 139 912 139 912 139 1018 c 0,7,8
 139 1128 139 1128 151 1208.5 c 128,-1,9
 163 1289 163 1289 189.5 1346.5 c 128,-1,10
 216 1404 216 1404 259 1440 c 128,-1,11
 302 1476 302 1476 363.5 1497 c 128,-1,12
 425 1518 425 1518 507 1525.5 c 128,-1,13
 589 1533 589 1533 695 1533 c 0,14,15
 851 1533 851 1533 958.5 1514.5 c 128,-1,16
 1066 1496 1066 1496 1133 1442.5 c 128,-1,17
 1200 1389 1200 1389 1230 1293 c 128,-1,18
 1260 1197 1260 1197 1260 1042 c 2,19,-1
 1260 456 l 2,20,21
 1260 302 1260 302 1228 206 c 128,-1,22
 1196 110 1196 110 1128 56 c 128,-1,23
 1060 2 1060 2 955 -17 c 128,-1,24
 850 -36 850 -36 705 -36 c 0,25,26
 627 -36 627 -36 558 -32.5 c 128,-1,27
 489 -29 489 -29 430.5 -16 c 128,-1,28
 372 -3 372 -3 325.5 23 c 128,-1,29
 279 49 279 49 246 93.5 c 128,-1,30
 213 138 213 138 196 204.5 c 128,-1,31
 179 271 179 271 179 366 c 1,32,-1
 396 366 l 1,33,34
 396 304 396 304 399 261.5 c 128,-1,35
 402 219 402 219 413 191.5 c 128,-1,36
 424 164 424 164 444.5 149.5 c 128,-1,37
 465 135 465 135 499.5 129 c 128,-1,38
 534 123 534 123 584.5 122 c 128,-1,39
 635 121 635 121 705 121 c 0,40,41
 823 121 823 121 890 133 c 128,-1,42
 957 145 957 145 990 180.5 c 128,-1,43
 1023 216 1023 216 1031 281 c 128,-1,44
 1039 346 1039 346 1039 451 c 2,45,-1
 1039 683 l 1,46,47
 1034 641 1034 641 996 608 c 0,48,49
 980 594 980 594 955 580.5 c 128,-1,50
 930 567 930 567 894 556.5 c 128,-1,51
 858 546 858 546 808.5 539.5 c 128,-1,52
 759 533 759 533 695 533 c 0,0,1
1039 972 m 0,53,54
 1039 1073 1039 1073 1036.5 1142 c 128,-1,55
 1034 1211 1034 1211 1023 1256 c 128,-1,56
 1012 1301 1012 1301 990 1325.5 c 128,-1,57
 968 1350 968 1350 930 1361 c 128,-1,58
 892 1372 892 1372 834.5 1374 c 128,-1,59
 777 1376 777 1376 695 1376 c 0,60,61
 610 1376 610 1376 552.5 1374.5 c 128,-1,62
 495 1373 495 1373 457 1363.5 c 128,-1,63
 419 1354 419 1354 398.5 1334 c 128,-1,64
 378 1314 378 1314 368.5 1277 c 128,-1,65
 359 1240 359 1240 357 1182.5 c 128,-1,66
 355 1125 355 1125 355 1041 c 0,67,68
 355 955 355 955 356.5 896 c 128,-1,69
 358 837 358 837 367.5 798.5 c 128,-1,70
 377 760 377 760 397.5 739 c 128,-1,71
 418 718 418 718 456 708.5 c 128,-1,72
 494 699 494 699 552 697.5 c 128,-1,73
 610 696 610 696 695 696 c 0,74,75
 781 696 781 696 840 697.5 c 128,-1,76
 899 699 899 699 937 706.5 c 128,-1,77
 975 714 975 714 996 730.5 c 128,-1,78
 1017 747 1017 747 1026.5 777.5 c 128,-1,79
 1036 808 1036 808 1037.5 855.5 c 128,-1,80
 1039 903 1039 903 1039 972 c 0,53,54
EndSplineSet
EndChar

StartChar: colon
Encoding: 58 58 27
Width: 622
Flags: W
LayerCount: 2
Fore
SplineSet
154 1079 m 256,0,1
 154 1113 154 1113 165.5 1141 c 128,-1,2
 177 1169 177 1169 198 1189.5 c 128,-1,3
 219 1210 219 1210 247.5 1221.5 c 128,-1,4
 276 1233 276 1233 310 1233 c 256,5,6
 344 1233 344 1233 373 1221.5 c 128,-1,7
 402 1210 402 1210 423 1190 c 128,-1,8
 444 1170 444 1170 456 1141.5 c 128,-1,9
 468 1113 468 1113 468 1079 c 256,10,11
 468 1045 468 1045 456 1016.5 c 128,-1,12
 444 988 444 988 423 968 c 128,-1,13
 402 948 402 948 373.5 936.5 c 128,-1,14
 345 925 345 925 311 925 c 0,15,16
 278 925 278 925 249 936.5 c 128,-1,17
 220 948 220 948 199 968.5 c 128,-1,18
 178 989 178 989 166 1017 c 128,-1,19
 154 1045 154 1045 154 1079 c 256,0,1
154 288 m 256,20,21
 154 322 154 322 165.5 350 c 128,-1,22
 177 378 177 378 198 398.5 c 128,-1,23
 219 419 219 419 247.5 430.5 c 128,-1,24
 276 442 276 442 310 442 c 256,25,26
 344 442 344 442 373 430.5 c 128,-1,27
 402 419 402 419 423 399 c 128,-1,28
 444 379 444 379 456 350.5 c 128,-1,29
 468 322 468 322 468 288 c 256,30,31
 468 254 468 254 456 225.5 c 128,-1,32
 444 197 444 197 423 177 c 128,-1,33
 402 157 402 157 373.5 145.5 c 128,-1,34
 345 134 345 134 311 134 c 0,35,36
 278 134 278 134 249 145.5 c 128,-1,37
 220 157 220 157 199 177.5 c 128,-1,38
 178 198 178 198 166 226 c 128,-1,39
 154 254 154 254 154 288 c 256,20,21
EndSplineSet
EndChar

StartChar: semicolon
Encoding: 59 59 28
Width: 608
Flags: W
LayerCount: 2
Fore
SplineSet
311 130 m 1,0,1
 277 130 277 130 247.5 141.5 c 128,-1,2
 218 153 218 153 196 173 c 128,-1,3
 174 193 174 193 161.5 221.5 c 128,-1,4
 149 250 149 250 149 285 c 0,5,6
 149 319 149 319 161 347 c 128,-1,7
 173 375 173 375 194.5 395.5 c 128,-1,8
 216 416 216 416 245 427.5 c 128,-1,9
 274 439 274 439 307 439 c 0,10,11
 349 439 349 439 380 424.5 c 128,-1,12
 411 410 411 410 432 384.5 c 128,-1,13
 453 359 453 359 463 325 c 128,-1,14
 473 291 473 291 473 252 c 0,15,16
 473 189 473 189 449.5 125.5 c 128,-1,17
 426 62 426 62 385 12 c 128,-1,18
 344 -38 344 -38 286.5 -69.5 c 128,-1,19
 229 -101 229 -101 162 -101 c 0,20,21
 151 -101 151 -101 140.5 -100 c 128,-1,22
 130 -99 130 -99 119 -97 c 1,23,-1
 119 -29 l 1,24,25
 146 -29 146 -29 179 -19 c 128,-1,26
 212 -9 212 -9 241.5 9 c 128,-1,27
 271 27 271 27 291 52.5 c 128,-1,28
 311 78 311 78 311 110 c 2,29,-1
 311 130 l 1,0,1
155 1079 m 256,30,31
 155 1113 155 1113 166.5 1141 c 128,-1,32
 178 1169 178 1169 199 1189.5 c 128,-1,33
 220 1210 220 1210 248.5 1221.5 c 128,-1,34
 277 1233 277 1233 311 1233 c 256,35,36
 345 1233 345 1233 374 1221.5 c 128,-1,37
 403 1210 403 1210 424 1190 c 128,-1,38
 445 1170 445 1170 457 1141.5 c 128,-1,39
 469 1113 469 1113 469 1079 c 256,40,41
 469 1045 469 1045 457 1016.5 c 128,-1,42
 445 988 445 988 424 968 c 128,-1,43
 403 948 403 948 374.5 936.5 c 128,-1,44
 346 925 346 925 312 925 c 0,45,46
 279 925 279 925 250 936.5 c 128,-1,47
 221 948 221 948 200 968.5 c 128,-1,48
 179 989 179 989 167 1017 c 128,-1,49
 155 1045 155 1045 155 1079 c 256,30,31
EndSplineSet
EndChar

StartChar: less
Encoding: 60 60 29
Width: 1171
Flags: W
LayerCount: 2
Fore
SplineSet
127 838 m 1,0,-1
 917 1276 l 1,1,-1
 917 1045 l 1,2,-1
 322 766 l 1,3,-1
 917 478 l 1,4,-1
 917 257 l 1,5,-1
 127 676 l 1,6,-1
 127 838 l 1,7,-1
 127 838 l 1,0,-1
EndSplineSet
EndChar

StartChar: equal
Encoding: 61 61 30
Width: 1260
Flags: W
LayerCount: 2
Fore
SplineSet
1086 854 m 1,0,-1
 1086 668 l 1,1,-1
 175 668 l 1,2,-1
 175 854 l 1,3,-1
 1086 854 l 1,0,-1
1086 305 m 1,4,-1
 175 305 l 1,5,-1
 175 491 l 1,6,-1
 1086 491 l 1,7,-1
 1086 305 l 1,4,-1
EndSplineSet
EndChar

StartChar: greater
Encoding: 62 62 31
Width: 1171
Flags: W
LayerCount: 2
Fore
SplineSet
917 838 m 1,0,-1
 917 676 l 1,1,-1
 127 257 l 1,2,-1
 127 478 l 1,3,-1
 722 766 l 1,4,-1
 127 1045 l 1,5,-1
 127 1276 l 1,6,-1
 917 838 l 1,7,-1
 917 838 l 1,0,-1
EndSplineSet
EndChar

StartChar: question
Encoding: 63 63 32
Width: 933
Flags: W
LayerCount: 2
Fore
SplineSet
455 490 m 1,0,1
 431 482 431 482 408 482 c 0,2,3
 397 482 397 482 384.5 485 c 128,-1,4
 372 488 372 488 363 495 c 1,5,6
 363 583 363 583 381.5 652 c 128,-1,7
 400 721 400 721 427 777 c 128,-1,8
 454 833 454 833 486.5 879.5 c 128,-1,9
 519 926 519 926 546 970 c 128,-1,10
 573 1014 573 1014 591.5 1058.5 c 128,-1,11
 610 1103 610 1103 610 1154 c 0,12,13
 610 1256 610 1256 557.5 1303 c 128,-1,14
 505 1350 505 1350 407 1350 c 0,15,16
 343 1350 343 1350 280 1336.5 c 128,-1,17
 217 1323 217 1323 155 1308 c 1,18,19
 148 1350 148 1350 141 1390.5 c 128,-1,20
 134 1431 134 1431 128 1473 c 1,21,22
 206 1500 206 1500 287 1517 c 128,-1,23
 368 1534 368 1534 451 1534 c 0,24,25
 539 1534 539 1534 608.5 1511 c 128,-1,26
 678 1488 678 1488 726.5 1442.5 c 128,-1,27
 775 1397 775 1397 800.5 1329.5 c 128,-1,28
 826 1262 826 1262 826 1172 c 0,29,30
 826 1098 826 1098 801 1037.5 c 128,-1,31
 776 977 776 977 737.5 925 c 128,-1,32
 699 873 699 873 653 824.5 c 128,-1,33
 607 776 607 776 566 725 c 128,-1,34
 525 674 525 674 494 617 c 128,-1,35
 463 560 463 560 455 490 c 1,0,1
244 118 m 256,36,37
 244 152 244 152 255.5 180 c 128,-1,38
 267 208 267 208 288 228.5 c 128,-1,39
 309 249 309 249 337.5 260.5 c 128,-1,40
 366 272 366 272 400 272 c 256,41,42
 434 272 434 272 463 260.5 c 128,-1,43
 492 249 492 249 513 229 c 128,-1,44
 534 209 534 209 546 180.5 c 128,-1,45
 558 152 558 152 558 118 c 256,46,47
 558 84 558 84 546 55.5 c 128,-1,48
 534 27 534 27 513 7 c 128,-1,49
 492 -13 492 -13 463.5 -24.5 c 128,-1,50
 435 -36 435 -36 401 -36 c 0,51,52
 368 -36 368 -36 339 -24.5 c 128,-1,53
 310 -13 310 -13 289 7.5 c 128,-1,54
 268 28 268 28 256 56 c 128,-1,55
 244 84 244 84 244 118 c 256,36,37
EndSplineSet
EndChar

StartChar: at
Encoding: 64 64 33
Width: 2185
Flags: W
LayerCount: 2
Fore
SplineSet
1450 212 m 1,0,1
 1442 169 1442 169 1394 136 c 0,2,3
 1373 122 1373 122 1342 108.5 c 128,-1,4
 1311 95 1311 95 1265.5 84.5 c 128,-1,5
 1220 74 1220 74 1159.5 67.5 c 128,-1,6
 1099 61 1099 61 1020 61 c 0,7,8
 918 61 918 61 843 75 c 128,-1,9
 768 89 768 89 719 125.5 c 128,-1,10
 670 162 670 162 646 225.5 c 128,-1,11
 622 289 622 289 622 389 c 0,12,13
 622 519 622 519 646 595 c 128,-1,14
 670 671 670 671 721 710 c 128,-1,15
 772 749 772 749 850.5 759.5 c 128,-1,16
 929 770 929 770 1039 770 c 0,17,18
 1116 770 1116 770 1198.5 758 c 128,-1,19
 1281 746 1281 746 1370 732 c 1,20,-1
 1370 959 l 2,21,22
 1370 1013 1370 1013 1366 1042 c 128,-1,23
 1362 1071 1362 1071 1338 1084.5 c 128,-1,24
 1314 1098 1314 1098 1261.5 1100.5 c 128,-1,25
 1209 1103 1209 1103 1113 1103 c 0,26,27
 1027 1103 1027 1103 980 1101 c 128,-1,28
 933 1099 933 1099 911.5 1088 c 128,-1,29
 890 1077 890 1077 886 1053 c 128,-1,30
 882 1029 882 1029 882 984 c 0,31,32
 882 967 882 967 883 946.5 c 128,-1,33
 884 926 884 926 886 903 c 1,34,-1
 705 883 l 1,35,36
 698 918 698 918 695 947.5 c 128,-1,37
 692 977 692 977 692 1005 c 0,38,39
 692 1086 692 1086 723.5 1137 c 128,-1,40
 755 1188 755 1188 812 1216.5 c 128,-1,41
 869 1245 869 1245 949.5 1255.5 c 128,-1,42
 1030 1266 1030 1266 1129 1266 c 0,43,44
 1181 1266 1181 1266 1235.5 1263 c 128,-1,45
 1290 1260 1290 1260 1341.5 1249 c 128,-1,46
 1393 1238 1393 1238 1438 1216.5 c 128,-1,47
 1483 1195 1483 1195 1517 1158 c 128,-1,48
 1551 1121 1551 1121 1571 1066 c 128,-1,49
 1591 1011 1591 1011 1591 934 c 2,50,-1
 1591 421 l 2,51,52
 1591 307 1591 307 1592 215 c 1,53,54
 1656 215 1656 215 1700 217.5 c 128,-1,55
 1744 220 1744 220 1772.5 234.5 c 128,-1,56
 1801 249 1801 249 1816.5 280.5 c 128,-1,57
 1832 312 1832 312 1839 370.5 c 128,-1,58
 1846 429 1846 429 1847.5 519 c 128,-1,59
 1849 609 1849 609 1849 740 c 0,60,61
 1849 893 1849 893 1832.5 1007 c 128,-1,62
 1816 1121 1816 1121 1781 1202.5 c 128,-1,63
 1746 1284 1746 1284 1691 1336 c 128,-1,64
 1636 1388 1636 1388 1559.5 1418.5 c 128,-1,65
 1483 1449 1483 1449 1383 1460.5 c 128,-1,66
 1283 1472 1283 1472 1158 1472 c 0,67,68
 934 1472 934 1472 779.5 1432.5 c 128,-1,69
 625 1393 625 1393 529.5 1299 c 128,-1,70
 434 1205 434 1205 391.5 1048 c 128,-1,71
 349 891 349 891 349 657 c 0,72,73
 349 474 349 474 366.5 341 c 128,-1,74
 384 208 384 208 423.5 115.5 c 128,-1,75
 463 23 463 23 526.5 -34 c 128,-1,76
 590 -91 590 -91 681.5 -122.5 c 128,-1,77
 773 -154 773 -154 894 -165 c 128,-1,78
 1015 -176 1015 -176 1171 -176 c 0,79,80
 1241 -176 1241 -176 1312.5 -167 c 128,-1,81
 1384 -158 1384 -158 1455.5 -144 c 128,-1,82
 1527 -130 1527 -130 1597.5 -112.5 c 128,-1,83
 1668 -95 1668 -95 1736 -77 c 1,84,-1
 1787 -224 l 1,85,86
 1715 -254 1715 -254 1635.5 -276.5 c 128,-1,87
 1556 -299 1556 -299 1473.5 -314 c 128,-1,88
 1391 -329 1391 -329 1306 -336.5 c 128,-1,89
 1221 -344 1221 -344 1139 -344 c 0,90,91
 976 -344 976 -344 838.5 -328.5 c 128,-1,92
 701 -313 701 -313 589.5 -272 c 128,-1,93
 478 -231 478 -231 393 -160 c 128,-1,94
 308 -89 308 -89 251 21.5 c 128,-1,95
 194 132 194 132 165 287 c 128,-1,96
 136 442 136 442 136 652 c 0,97,98
 136 841 136 841 165.5 987 c 128,-1,99
 195 1133 195 1133 253 1242 c 128,-1,100
 311 1351 311 1351 397 1426 c 128,-1,101
 483 1501 483 1501 596 1547.5 c 128,-1,102
 709 1594 709 1594 848.5 1614.5 c 128,-1,103
 988 1635 988 1635 1154 1635 c 0,104,105
 1288 1635 1288 1635 1407.5 1620.5 c 128,-1,106
 1527 1606 1527 1606 1627.5 1570 c 128,-1,107
 1728 1534 1728 1534 1808 1472 c 128,-1,108
 1888 1410 1888 1410 1944 1315 c 128,-1,109
 2000 1220 2000 1220 2029.5 1087.5 c 128,-1,110
 2059 955 2059 955 2059 778 c 0,111,112
 2059 606 2059 606 2049 487.5 c 128,-1,113
 2039 369 2039 369 2017.5 292.5 c 128,-1,114
 1996 216 1996 216 1962 174 c 128,-1,115
 1928 132 1928 132 1881 113 c 128,-1,116
 1834 94 1834 94 1773 90.5 c 128,-1,117
 1712 87 1712 87 1636 87 c 0,118,119
 1615 87 1615 87 1586 89 c 128,-1,120
 1557 91 1557 91 1528.5 102.5 c 128,-1,121
 1500 114 1500 114 1478 139.5 c 128,-1,122
 1456 165 1456 165 1450 212 c 1,0,1
1103 205 m 0,123,124
 1204 205 1204 205 1258.5 209 c 128,-1,125
 1313 213 1313 213 1337.5 224.5 c 128,-1,126
 1362 236 1362 236 1366 256.5 c 128,-1,127
 1370 277 1370 277 1370 311 c 2,128,-1
 1370 624 l 1,129,-1
 1038 624 l 2,130,131
 958 624 958 624 915 620.5 c 128,-1,132
 872 617 872 617 852 596 c 128,-1,133
 832 575 832 575 828.5 530 c 128,-1,134
 825 485 825 485 825 402 c 0,135,136
 825 352 825 352 826.5 318.5 c 128,-1,137
 828 285 828 285 835.5 263 c 128,-1,138
 843 241 843 241 859.5 229 c 128,-1,139
 876 217 876 217 907 212 c 128,-1,140
 938 207 938 207 985.5 206 c 128,-1,141
 1033 205 1033 205 1103 205 c 0,123,124
EndSplineSet
EndChar

StartChar: A
Encoding: 65 65 34
Width: 1390
Flags: W
LayerCount: 2
Fore
SplineSet
1093 0 m 1,0,-1
 973 389 l 1,1,-1
 397 389 l 1,2,-1
 281 0 l 1,3,-1
 77 0 l 1,4,-1
 547 1499 l 1,5,-1
 837 1499 l 1,6,-1
 1314 0 l 1,7,-1
 1093 0 l 1,0,-1
680 1373 m 1,8,-1
 438 521 l 1,9,-1
 931 521 l 1,10,-1
 680 1373 l 1,8,-1
EndSplineSet
EndChar

StartChar: B
Encoding: 66 66 35
Width: 1442
Flags: W
LayerCount: 2
Fore
SplineSet
1309 417 m 0,0,1
 1309 322 1309 322 1287 254 c 128,-1,2
 1265 186 1265 186 1225 139.5 c 128,-1,3
 1185 93 1185 93 1130 65.5 c 128,-1,4
 1075 38 1075 38 1009.5 23.5 c 128,-1,5
 944 9 944 9 870 4.5 c 128,-1,6
 796 0 796 0 719 0 c 2,7,-1
 175 0 l 1,8,-1
 175 1499 l 1,9,-1
 677 1499 l 2,10,11
 750 1499 750 1499 821.5 1495 c 128,-1,12
 893 1491 893 1491 957 1477.5 c 128,-1,13
 1021 1464 1021 1464 1075.5 1438 c 128,-1,14
 1130 1412 1130 1412 1169.5 1367.5 c 128,-1,15
 1209 1323 1209 1323 1231.5 1258 c 128,-1,16
 1254 1193 1254 1193 1254 1102 c 0,17,18
 1254 1040 1254 1040 1236.5 991.5 c 128,-1,19
 1219 943 1219 943 1186.5 906.5 c 128,-1,20
 1154 870 1154 870 1107.5 845.5 c 128,-1,21
 1061 821 1061 821 1003 808 c 1,22,23
 1083 796 1083 796 1140.5 762 c 128,-1,24
 1198 728 1198 728 1235.5 677 c 128,-1,25
 1273 626 1273 626 1291 560 c 128,-1,26
 1309 494 1309 494 1309 417 c 0,0,1
396 721 m 1,27,-1
 396 157 l 1,28,-1
 759 157 l 2,29,30
 832 157 832 157 893 163 c 128,-1,31
 954 169 954 169 998 193.5 c 128,-1,32
 1042 218 1042 218 1066 268 c 128,-1,33
 1090 318 1090 318 1090 407 c 0,34,35
 1090 507 1090 507 1071 568.5 c 128,-1,36
 1052 630 1052 630 1011 664 c 128,-1,37
 970 698 970 698 904 709.5 c 128,-1,38
 838 721 838 721 745 721 c 2,39,-1
 396 721 l 1,27,-1
396 867 m 1,40,-1
 726 867 l 2,41,42
 792 867 792 867 848.5 871.5 c 128,-1,43
 905 876 905 876 946.5 898 c 128,-1,44
 988 920 988 920 1011.5 964.5 c 128,-1,45
 1035 1009 1035 1009 1035 1090 c 0,46,47
 1035 1169 1035 1169 1017 1218 c 128,-1,48
 999 1267 999 1267 963.5 1294.5 c 128,-1,49
 928 1322 928 1322 874.5 1332 c 128,-1,50
 821 1342 821 1342 749 1342 c 2,51,-1
 725 1342 l 1,52,-1
 396 1342 l 1,53,-1
 396 867 l 1,40,-1
EndSplineSet
EndChar

StartChar: C
Encoding: 67 67 36
Width: 1470
Flags: W
LayerCount: 2
Fore
SplineSet
1337 534 m 1,0,1
 1337 399 1337 399 1325 304 c 128,-1,2
 1313 209 1313 209 1286 145.5 c 128,-1,3
 1259 82 1259 82 1216 46 c 128,-1,4
 1173 10 1173 10 1110 -8.5 c 128,-1,5
 1047 -27 1047 -27 963.5 -31.5 c 128,-1,6
 880 -36 880 -36 772 -36 c 0,7,8
 652 -36 652 -36 559.5 -31 c 128,-1,9
 467 -26 467 -26 397.5 -5.5 c 128,-1,10
 328 15 328 15 280 55 c 128,-1,11
 232 95 232 95 202.5 165 c 128,-1,12
 173 235 173 235 160 340 c 128,-1,13
 147 445 147 445 147 594 c 2,14,-1
 147 903 l 2,15,16
 147 1052 147 1052 160 1157 c 128,-1,17
 173 1262 173 1262 202.5 1332 c 128,-1,18
 232 1402 232 1402 280 1442 c 128,-1,19
 328 1482 328 1482 397.5 1502.5 c 128,-1,20
 467 1523 467 1523 559.5 1528 c 128,-1,21
 652 1533 652 1533 772 1533 c 0,22,23
 880 1533 880 1533 963.5 1528.5 c 128,-1,24
 1047 1524 1047 1524 1110 1505.5 c 128,-1,25
 1173 1487 1173 1487 1216 1451 c 128,-1,26
 1259 1415 1259 1415 1286 1351.5 c 128,-1,27
 1313 1288 1313 1288 1325 1193 c 128,-1,28
 1337 1098 1337 1098 1337 963 c 1,29,-1
 1126 963 l 1,30,31
 1125 1066 1125 1066 1123 1137 c 128,-1,32
 1121 1208 1121 1208 1111 1254 c 128,-1,33
 1101 1300 1101 1300 1079.5 1324.5 c 128,-1,34
 1058 1349 1058 1349 1019 1360.5 c 128,-1,35
 980 1372 980 1372 920 1374 c 128,-1,36
 860 1376 860 1376 772 1376 c 0,37,38
 672 1376 672 1376 603 1374 c 128,-1,39
 534 1372 534 1372 489.5 1358.5 c 128,-1,40
 445 1345 445 1345 420.5 1316.5 c 128,-1,41
 396 1288 396 1288 384.5 1235.5 c 128,-1,42
 373 1183 373 1183 370.5 1102 c 128,-1,43
 368 1021 368 1021 368 903 c 2,44,-1
 368 594 l 2,45,46
 368 476 368 476 370.5 395 c 128,-1,47
 373 314 373 314 384.5 261.5 c 128,-1,48
 396 209 396 209 420.5 180.5 c 128,-1,49
 445 152 445 152 489.5 138.5 c 128,-1,50
 534 125 534 125 603 123 c 128,-1,51
 672 121 672 121 772 121 c 0,52,53
 860 121 860 121 920 123 c 128,-1,54
 980 125 980 125 1019 136.5 c 128,-1,55
 1058 148 1058 148 1079.5 172.5 c 128,-1,56
 1101 197 1101 197 1111 243 c 128,-1,57
 1121 289 1121 289 1123 360 c 128,-1,58
 1125 431 1125 431 1126 534 c 1,59,-1
 1337 534 l 1,0,1
EndSplineSet
EndChar

StartChar: D
Encoding: 68 68 37
Width: 1525
Flags: W
LayerCount: 2
Fore
SplineSet
744 158 m 2,0,1
 844 158 844 158 913 160 c 128,-1,2
 982 162 982 162 1026.5 174.5 c 128,-1,3
 1071 187 1071 187 1095.5 213.5 c 128,-1,4
 1120 240 1120 240 1131.5 288.5 c 128,-1,5
 1143 337 1143 337 1145 411.5 c 128,-1,6
 1147 486 1147 486 1148 594 c 1,7,-1
 1148 903 l 1,8,9
 1147 1013 1147 1013 1145 1089 c 128,-1,10
 1143 1165 1143 1165 1131.5 1214 c 128,-1,11
 1120 1263 1120 1263 1095.5 1289.5 c 128,-1,12
 1071 1316 1071 1316 1026.5 1328 c 128,-1,13
 982 1340 982 1340 913 1341.5 c 128,-1,14
 844 1343 844 1343 744 1343 c 2,15,-1
 395 1342 l 1,16,-1
 395 159 l 1,17,-1
 744 158 l 2,0,1
174 -1 m 1,18,-1
 174 1498 l 1,19,-1
 744 1499 l 2,20,21
 864 1499 864 1499 956.5 1494.5 c 128,-1,22
 1049 1490 1049 1490 1118.5 1471.5 c 128,-1,23
 1188 1453 1188 1453 1236 1415 c 128,-1,24
 1284 1377 1284 1377 1313.5 1310.5 c 128,-1,25
 1343 1244 1343 1244 1356 1144.5 c 128,-1,26
 1369 1045 1369 1045 1369 903 c 2,27,-1
 1369 594 l 2,28,29
 1369 454 1369 454 1356 355.5 c 128,-1,30
 1343 257 1343 257 1313.5 191 c 128,-1,31
 1284 125 1284 125 1236 87 c 128,-1,32
 1188 49 1188 49 1118.5 29.5 c 128,-1,33
 1049 10 1049 10 956.5 4.5 c 128,-1,34
 864 -1 864 -1 744 -1 c 2,35,-1
 174 -1 l 1,18,-1
EndSplineSet
EndChar

StartChar: E
Encoding: 69 69 38
Width: 1250
Flags: W
LayerCount: 2
Fore
SplineSet
1030 703 m 1,0,-1
 396 703 l 1,1,-1
 396 160 l 1,2,-1
 1138 160 l 1,3,-1
 1138 0 l 1,4,-1
 175 0 l 1,5,-1
 175 1499 l 1,6,-1
 1120 1499 l 1,7,-1
 1120 1339 l 1,8,-1
 396 1339 l 1,9,-1
 396 863 l 1,10,-1
 1030 863 l 1,11,-1
 1030 703 l 1,12,-1
 1030 703 l 1,0,-1
EndSplineSet
EndChar

StartChar: F
Encoding: 70 70 39
Width: 1099
Flags: W
LayerCount: 2
Fore
SplineSet
991 688 m 1,0,-1
 396 688 l 1,1,-1
 396 0 l 1,2,-1
 175 0 l 1,3,-1
 175 1499 l 1,4,-1
 1041 1499 l 1,5,-1
 1041 1339 l 1,6,-1
 396 1339 l 1,7,-1
 396 848 l 1,8,-1
 991 848 l 1,9,-1
 991 688 l 1,10,-1
 991 688 l 1,0,-1
EndSplineSet
EndChar

StartChar: G
Encoding: 71 71 40
Width: 1502
Flags: W
LayerCount: 2
Fore
SplineSet
1129 94 m 1,0,1
 1108 57 1108 57 1064 29 c 0,2,3
 1026 4 1026 4 958 -16 c 128,-1,4
 890 -36 890 -36 781 -36 c 0,5,6
 661 -36 661 -36 568.5 -31 c 128,-1,7
 476 -26 476 -26 406.5 -5.5 c 128,-1,8
 337 15 337 15 289 55 c 128,-1,9
 241 95 241 95 211.5 165 c 128,-1,10
 182 235 182 235 169 340 c 128,-1,11
 156 445 156 445 156 594 c 2,12,-1
 156 903 l 2,13,14
 156 1052 156 1052 169 1157 c 128,-1,15
 182 1262 182 1262 211.5 1332 c 128,-1,16
 241 1402 241 1402 289 1442 c 128,-1,17
 337 1482 337 1482 406.5 1502.5 c 128,-1,18
 476 1523 476 1523 568.5 1528 c 128,-1,19
 661 1533 661 1533 781 1533 c 0,20,21
 889 1533 889 1533 972.5 1528.5 c 128,-1,22
 1056 1524 1056 1524 1119 1505.5 c 128,-1,23
 1182 1487 1182 1487 1225 1451 c 128,-1,24
 1268 1415 1268 1415 1295 1351.5 c 128,-1,25
 1322 1288 1322 1288 1334 1193 c 128,-1,26
 1346 1098 1346 1098 1346 963 c 1,27,-1
 1135 963 l 1,28,29
 1134 1066 1134 1066 1132 1137 c 128,-1,30
 1130 1208 1130 1208 1120 1254 c 128,-1,31
 1110 1300 1110 1300 1088.5 1324.5 c 128,-1,32
 1067 1349 1067 1349 1028 1360.5 c 128,-1,33
 989 1372 989 1372 929 1374 c 128,-1,34
 869 1376 869 1376 781 1376 c 0,35,36
 681 1376 681 1376 612 1374 c 128,-1,37
 543 1372 543 1372 498.5 1358.5 c 128,-1,38
 454 1345 454 1345 429.5 1316.5 c 128,-1,39
 405 1288 405 1288 393.5 1235.5 c 128,-1,40
 382 1183 382 1183 379.5 1102 c 128,-1,41
 377 1021 377 1021 377 903 c 2,42,-1
 377 594 l 2,43,44
 377 476 377 476 379.5 395 c 128,-1,45
 382 314 382 314 393.5 261.5 c 128,-1,46
 405 209 405 209 429.5 180.5 c 128,-1,47
 454 152 454 152 498.5 138.5 c 128,-1,48
 543 125 543 125 612 123 c 128,-1,49
 681 121 681 121 781 121 c 0,50,51
 867 121 867 121 927 122 c 128,-1,52
 987 123 987 123 1026 129.5 c 128,-1,53
 1065 136 1065 136 1086.5 149.5 c 128,-1,54
 1108 163 1108 163 1119 188 c 128,-1,55
 1130 213 1130 213 1132 251.5 c 128,-1,56
 1134 290 1134 290 1135 346 c 1,57,-1
 1133 588 l 1,58,-1
 824 588 l 1,59,-1
 824 733 l 1,60,-1
 1333 733 l 1,61,-1
 1333 -1 l 1,62,-1
 1182 -1 l 1,63,-1
 1129 94 l 1,0,1
EndSplineSet
EndChar

StartChar: H
Encoding: 72 72 41
Width: 1514
Flags: WO
LayerCount: 2
Fore
SplineSet
1120 681 m 1,0,-1
 395 681 l 1,1,-1
 395 0 l 1,2,-1
 174 0 l 5,3,-1
 174 1499 l 1,4,-1
 395 1499 l 1,5,-1
 395 838 l 1,6,-1
 1120 838 l 1,7,-1
 1120 1499 l 1,8,-1
 1341 1499 l 1,9,-1
 1341 0 l 1,10,-1
 1120 0 l 1,11,-1
 1120 681 l 1,12,-1
 1120 681 l 1,0,-1
EndSplineSet
EndChar

StartChar: I
Encoding: 73 73 42
Width: 566
Flags: W
LayerCount: 2
Fore
SplineSet
395 1499 m 1,0,-1
 395 0 l 1,1,-1
 174 0 l 1,2,-1
 174 1499 l 1,3,-1
 395 1499 l 1,4,-1
 395 1499 l 1,0,-1
EndSplineSet
EndChar

StartChar: J
Encoding: 74 74 43
Width: 712
Flags: W
LayerCount: 2
Fore
SplineSet
540 45 m 2,0,1
 540 -6 540 -6 524.5 -43.5 c 128,-1,2
 509 -81 509 -81 480.5 -105 c 128,-1,3
 452 -129 452 -129 412.5 -141 c 128,-1,4
 373 -153 373 -153 325 -153 c 0,5,6
 263 -153 263 -153 202.5 -146.5 c 128,-1,7
 142 -140 142 -140 82 -129 c 1,8,-1
 82 45 l 1,9,-1
 319 45 l 1,10,-1
 319 1498 l 1,11,-1
 540 1498 l 1,12,-1
 540 45 l 2,0,1
EndSplineSet
EndChar

StartChar: K
Encoding: 75 75 44
Width: 1442
Flags: W
LayerCount: 2
Fore
SplineSet
1235 1499 m 1,0,-1
 639 795 l 1,1,-1
 1305 0 l 1,2,-1
 1034 0 l 1,3,-1
 449 716 l 1,4,-1
 396 658 l 1,5,-1
 396 0 l 1,6,-1
 175 0 l 1,7,-1
 175 1499 l 1,8,-1
 396 1499 l 1,9,-1
 396 815 l 1,10,-1
 974 1499 l 1,11,-1
 1235 1499 l 1,12,-1
 1235 1499 l 1,0,-1
EndSplineSet
EndChar

StartChar: L
Encoding: 76 76 45
Width: 1052
Flags: W
LayerCount: 2
Fore
SplineSet
1001 0 m 1,0,-1
 175 0 l 1,1,-1
 175 1499 l 1,2,-1
 396 1499 l 1,3,-1
 396 160 l 1,4,-1
 1001 160 l 1,5,-1
 1001 0 l 1,6,-1
 1001 0 l 1,0,-1
EndSplineSet
EndChar

StartChar: M
Encoding: 77 77 46
Width: 1851
Flags: W
LayerCount: 2
Fore
SplineSet
851 0 m 1,0,-1
 393 1163 l 1,1,-1
 333 0 l 1,2,-1
 161 0 l 1,3,-1
 221 1499 l 1,4,-1
 456 1499 l 1,5,-1
 921 319 l 1,6,-1
 1380 1499 l 1,7,-1
 1630 1499 l 1,8,-1
 1690 0 l 1,9,-1
 1481 0 l 1,10,-1
 1421 1163 l 1,11,-1
 982 0 l 1,12,-1
 851 0 l 1,13,-1
 851 0 l 1,0,-1
EndSplineSet
EndChar

StartChar: N
Encoding: 78 78 47
Width: 1534
Flags: W
LayerCount: 2
Fore
SplineSet
397 1499 m 1,0,-1
 1183 278 l 1,1,-1
 1183 1499 l 1,2,-1
 1362 1499 l 1,3,-1
 1362 0 l 1,4,-1
 1139 0 l 1,5,-1
 355 1203 l 1,6,-1
 355 0 l 1,7,-1
 173 0 l 1,8,-1
 173 1499 l 1,9,-1
 397 1499 l 1,10,-1
 397 1499 l 1,0,-1
EndSplineSet
EndChar

StartChar: O
Encoding: 79 79 48
Width: 1561
Flags: W
LayerCount: 2
Fore
SplineSet
781 1376 m 256,0,1
 681 1376 681 1376 612 1374 c 128,-1,2
 543 1372 543 1372 498.5 1358.5 c 128,-1,3
 454 1345 454 1345 429.5 1316.5 c 128,-1,4
 405 1288 405 1288 393.5 1235.5 c 128,-1,5
 382 1183 382 1183 379.5 1102 c 128,-1,6
 377 1021 377 1021 377 903 c 2,7,-1
 377 594 l 2,8,9
 377 476 377 476 379.5 395 c 128,-1,10
 382 314 382 314 393.5 261.5 c 128,-1,11
 405 209 405 209 429.5 180.5 c 128,-1,12
 454 152 454 152 498.5 138.5 c 128,-1,13
 543 125 543 125 612 123 c 128,-1,14
 681 121 681 121 781 121 c 256,15,16
 881 121 881 121 950 123 c 128,-1,17
 1019 125 1019 125 1063.5 138.5 c 128,-1,18
 1108 152 1108 152 1132.5 180.5 c 128,-1,19
 1157 209 1157 209 1168.5 261.5 c 128,-1,20
 1180 314 1180 314 1182 395 c 128,-1,21
 1184 476 1184 476 1185 594 c 1,22,-1
 1185 903 l 1,23,24
 1184 1021 1184 1021 1182 1102 c 128,-1,25
 1180 1183 1180 1183 1168.5 1235.5 c 128,-1,26
 1157 1288 1157 1288 1132.5 1316.5 c 128,-1,27
 1108 1345 1108 1345 1063.5 1358.5 c 128,-1,28
 1019 1372 1019 1372 950 1374 c 128,-1,29
 881 1376 881 1376 781 1376 c 256,0,1
781 -36 m 256,30,31
 661 -36 661 -36 568.5 -31 c 128,-1,32
 476 -26 476 -26 406.5 -5.5 c 128,-1,33
 337 15 337 15 289 55 c 128,-1,34
 241 95 241 95 211.5 165 c 128,-1,35
 182 235 182 235 169 340 c 128,-1,36
 156 445 156 445 156 594 c 2,37,-1
 156 903 l 2,38,39
 156 1052 156 1052 169 1157 c 128,-1,40
 182 1262 182 1262 211.5 1332 c 128,-1,41
 241 1402 241 1402 289 1442 c 128,-1,42
 337 1482 337 1482 406.5 1502.5 c 128,-1,43
 476 1523 476 1523 568.5 1528 c 128,-1,44
 661 1533 661 1533 781 1533 c 256,45,46
 901 1533 901 1533 993.5 1528 c 128,-1,47
 1086 1523 1086 1523 1155.5 1502.5 c 128,-1,48
 1225 1482 1225 1482 1273 1442 c 128,-1,49
 1321 1402 1321 1402 1350.5 1332 c 128,-1,50
 1380 1262 1380 1262 1393 1157 c 128,-1,51
 1406 1052 1406 1052 1406 903 c 2,52,-1
 1406 594 l 2,53,54
 1406 445 1406 445 1393 340 c 128,-1,55
 1380 235 1380 235 1350.5 165 c 128,-1,56
 1321 95 1321 95 1273 55 c 128,-1,57
 1225 15 1225 15 1155.5 -5.5 c 128,-1,58
 1086 -26 1086 -26 993.5 -31 c 128,-1,59
 901 -36 901 -36 781 -36 c 256,30,31
EndSplineSet
EndChar

StartChar: P
Encoding: 80 80 49
Width: 1308
Flags: W
LayerCount: 2
Fore
SplineSet
752 1499 m 2,0,1
 822 1499 822 1499 887 1493.5 c 128,-1,2
 952 1488 952 1488 1008.5 1471.5 c 128,-1,3
 1065 1455 1065 1455 1112 1424 c 128,-1,4
 1159 1393 1159 1393 1192 1342.5 c 128,-1,5
 1225 1292 1225 1292 1243.5 1218 c 128,-1,6
 1262 1144 1262 1144 1262 1042 c 0,7,8
 1262 916 1262 916 1246 826.5 c 128,-1,9
 1230 737 1230 737 1199 677 c 128,-1,10
 1168 617 1168 617 1123 581 c 128,-1,11
 1078 545 1078 545 1019.5 527 c 128,-1,12
 961 509 961 509 890.5 503.5 c 128,-1,13
 820 498 820 498 738 498 c 2,14,-1
 395 498 l 1,15,-1
 395 0 l 1,16,-1
 174 0 l 1,17,-1
 174 1499 l 1,18,-1
 752 1499 l 2,0,1
732 659 m 2,19,20
 805 659 805 659 857 664 c 128,-1,21
 909 669 909 669 943.5 683.5 c 128,-1,22
 978 698 978 698 998 724.5 c 128,-1,23
 1018 751 1018 751 1028 794 c 128,-1,24
 1038 837 1038 837 1040.5 899.5 c 128,-1,25
 1043 962 1043 962 1043 1048 c 0,26,27
 1043 1159 1043 1159 1023 1218.5 c 128,-1,28
 1003 1278 1003 1278 964.5 1305.5 c 128,-1,29
 926 1333 926 1333 869 1337.5 c 128,-1,30
 812 1342 812 1342 738 1342 c 2,31,-1
 395 1342 l 1,32,-1
 395 659 l 1,33,-1
 732 659 l 2,19,20
EndSplineSet
EndChar

StartChar: Q
Encoding: 81 81 50
Width: 1495
Flags: W
LayerCount: 2
Fore
SplineSet
1315 -246 m 1,0,-1
 1165 -358 l 1,1,-1
 923 -24 l 1,2,-1
 1114 33 l 1,3,-1
 1315 -246 l 1,0,-1
717 1376 m 256,4,5
 617 1376 617 1376 548 1374 c 128,-1,6
 479 1372 479 1372 434.5 1358.5 c 128,-1,7
 390 1345 390 1345 365.5 1316.5 c 128,-1,8
 341 1288 341 1288 329.5 1235.5 c 128,-1,9
 318 1183 318 1183 315.5 1102 c 128,-1,10
 313 1021 313 1021 313 903 c 2,11,-1
 313 594 l 2,12,13
 313 476 313 476 315.5 395 c 128,-1,14
 318 314 318 314 329.5 261.5 c 128,-1,15
 341 209 341 209 365.5 180.5 c 128,-1,16
 390 152 390 152 434.5 138.5 c 128,-1,17
 479 125 479 125 548 123 c 128,-1,18
 617 121 617 121 717 121 c 256,19,20
 817 121 817 121 886 123 c 128,-1,21
 955 125 955 125 999.5 138.5 c 128,-1,22
 1044 152 1044 152 1068.5 180.5 c 128,-1,23
 1093 209 1093 209 1104.5 261.5 c 128,-1,24
 1116 314 1116 314 1118 395 c 128,-1,25
 1120 476 1120 476 1121 594 c 1,26,-1
 1121 903 l 1,27,28
 1120 1021 1120 1021 1118 1102 c 128,-1,29
 1116 1183 1116 1183 1104.5 1235.5 c 128,-1,30
 1093 1288 1093 1288 1068.5 1316.5 c 128,-1,31
 1044 1345 1044 1345 999.5 1358.5 c 128,-1,32
 955 1372 955 1372 886 1374 c 128,-1,33
 817 1376 817 1376 717 1376 c 256,4,5
717 -36 m 256,34,35
 597 -36 597 -36 504.5 -31 c 128,-1,36
 412 -26 412 -26 342.5 -5.5 c 128,-1,37
 273 15 273 15 225 55 c 128,-1,38
 177 95 177 95 147.5 165 c 128,-1,39
 118 235 118 235 105 340 c 128,-1,40
 92 445 92 445 92 594 c 2,41,-1
 92 903 l 2,42,43
 92 1052 92 1052 105 1157 c 128,-1,44
 118 1262 118 1262 147.5 1332 c 128,-1,45
 177 1402 177 1402 225 1442 c 128,-1,46
 273 1482 273 1482 342.5 1502.5 c 128,-1,47
 412 1523 412 1523 504.5 1528 c 128,-1,48
 597 1533 597 1533 717 1533 c 256,49,50
 837 1533 837 1533 929.5 1528 c 128,-1,51
 1022 1523 1022 1523 1091.5 1502.5 c 128,-1,52
 1161 1482 1161 1482 1209 1442 c 128,-1,53
 1257 1402 1257 1402 1286.5 1332 c 128,-1,54
 1316 1262 1316 1262 1329 1157 c 128,-1,55
 1342 1052 1342 1052 1342 903 c 2,56,-1
 1342 594 l 2,57,58
 1342 445 1342 445 1329 340 c 128,-1,59
 1316 235 1316 235 1286.5 165 c 128,-1,60
 1257 95 1257 95 1209 55 c 128,-1,61
 1161 15 1161 15 1091.5 -5.5 c 128,-1,62
 1022 -26 1022 -26 929.5 -31 c 128,-1,63
 837 -36 837 -36 717 -36 c 256,34,35
EndSplineSet
EndChar

StartChar: R
Encoding: 82 82 51
Width: 1450
Flags: W
LayerCount: 2
Fore
SplineSet
395 0 m 1,0,-1
 174 0 l 1,1,-1
 174 1499 l 1,2,-1
 739 1499 l 2,3,4
 813 1499 813 1499 882.5 1496 c 128,-1,5
 952 1493 952 1493 1013.5 1480.5 c 128,-1,6
 1075 1468 1075 1468 1126 1443 c 128,-1,7
 1177 1418 1177 1418 1213.5 1375 c 128,-1,8
 1250 1332 1250 1332 1270.5 1268 c 128,-1,9
 1291 1204 1291 1204 1291 1112 c 0,10,11
 1291 1032 1291 1032 1281.5 965 c 128,-1,12
 1272 898 1272 898 1243 847.5 c 128,-1,13
 1214 797 1214 797 1161 766.5 c 128,-1,14
 1108 736 1108 736 1022 729 c 1,15,16
 1085 726 1085 726 1134 706 c 128,-1,17
 1183 686 1183 686 1216 653 c 128,-1,18
 1249 620 1249 620 1266 576.5 c 128,-1,19
 1283 533 1283 533 1283 482 c 2,20,-1
 1283 1 l 1,21,-1
 1064 1 l 1,22,-1
 1064 421 l 2,23,24
 1064 506 1064 506 1054.5 551 c 128,-1,25
 1045 596 1045 596 1020.5 616.5 c 128,-1,26
 996 637 996 637 952 640 c 128,-1,27
 908 643 908 643 839 643 c 2,28,-1
 395 643 l 1,29,-1
 395 0 l 1,0,-1
740 793 m 2,30,31
 843 793 843 793 907.5 800.5 c 128,-1,32
 972 808 972 808 1008.5 839 c 128,-1,33
 1045 870 1045 870 1058.5 932 c 128,-1,34
 1072 994 1072 994 1072 1102 c 0,35,36
 1072 1189 1072 1189 1051.5 1237.5 c 128,-1,37
 1031 1286 1031 1286 989.5 1309 c 128,-1,38
 948 1332 948 1332 885 1337 c 128,-1,39
 822 1342 822 1342 736 1342 c 2,40,-1
 395 1342 l 1,41,-1
 395 793 l 1,42,-1
 740 793 l 2,30,31
EndSplineSet
EndChar

StartChar: S
Encoding: 83 83 52
Width: 1407
Flags: W
LayerCount: 2
Fore
SplineSet
1023 1106 m 1,0,1
 1023 1172 1023 1172 1021.5 1217 c 128,-1,2
 1020 1262 1020 1262 1012 1291.5 c 128,-1,3
 1004 1321 1004 1321 986.5 1337 c 128,-1,4
 969 1353 969 1353 937 1360.5 c 128,-1,5
 905 1368 905 1368 855.5 1369 c 128,-1,6
 806 1370 806 1370 734 1370 c 0,7,8
 646 1370 646 1370 586 1369 c 128,-1,9
 526 1368 526 1368 487 1360.5 c 128,-1,10
 448 1353 448 1353 427 1335.5 c 128,-1,11
 406 1318 406 1318 396 1285 c 128,-1,12
 386 1252 386 1252 384.5 1201 c 128,-1,13
 383 1150 383 1150 383 1075 c 0,14,15
 383 1052 383 1052 383.5 1026.5 c 128,-1,16
 384 1001 384 1001 390 978.5 c 128,-1,17
 396 956 396 956 410 939 c 128,-1,18
 424 922 424 922 451 917 c 0,19,20
 507 906 507 906 572.5 896 c 128,-1,21
 638 886 638 886 703.5 877 c 128,-1,22
 769 868 769 868 831.5 860 c 128,-1,23
 894 852 894 852 944 846 c 0,24,25
 1008 838 1008 838 1057 826.5 c 128,-1,26
 1106 815 1106 815 1142 796 c 128,-1,27
 1178 777 1178 777 1202 747 c 128,-1,28
 1226 717 1226 717 1240.5 671 c 128,-1,29
 1255 625 1255 625 1261 560 c 128,-1,30
 1267 495 1267 495 1267 407 c 0,31,32
 1267 304 1267 304 1248.5 231 c 128,-1,33
 1230 158 1230 158 1194.5 108.5 c 128,-1,34
 1159 59 1159 59 1108.5 30.5 c 128,-1,35
 1058 2 1058 2 993.5 -13 c 128,-1,36
 929 -28 929 -28 852 -32.5 c 128,-1,37
 775 -37 775 -37 687 -37 c 0,38,39
 543 -37 543 -37 439 -22 c 128,-1,40
 335 -7 335 -7 267.5 39.5 c 128,-1,41
 200 86 200 86 168 172 c 128,-1,42
 136 258 136 258 136 399 c 2,43,-1
 136 416 l 1,44,-1
 345 416 l 1,45,46
 345 347 345 347 346.5 299 c 128,-1,47
 348 251 348 251 357 220 c 128,-1,48
 366 189 366 189 386 172 c 128,-1,49
 406 155 406 155 442.5 147.5 c 128,-1,50
 479 140 479 140 535.5 138.5 c 128,-1,51
 592 137 592 137 674 137 c 0,52,53
 770 137 770 137 836 138.5 c 128,-1,54
 902 140 902 140 945 147.5 c 128,-1,55
 988 155 988 155 1011 171 c 128,-1,56
 1034 187 1034 187 1044.5 216 c 128,-1,57
 1055 245 1055 245 1057 290 c 128,-1,58
 1059 335 1059 335 1059 401 c 0,59,60
 1059 429 1059 429 1059.5 468.5 c 128,-1,61
 1060 508 1060 508 1054 544.5 c 128,-1,62
 1048 581 1048 581 1031.5 609.5 c 128,-1,63
 1015 638 1015 638 981 646 c 0,64,65
 941 655 941 655 882 664.5 c 128,-1,66
 823 674 823 674 759 683.5 c 128,-1,67
 695 693 695 693 631.5 701.5 c 128,-1,68
 568 710 568 710 519 716 c 0,69,70
 420 729 420 729 352.5 746 c 128,-1,71
 285 763 285 763 243 802.5 c 128,-1,72
 201 842 201 842 183 913.5 c 128,-1,73
 165 985 165 985 165 1106 c 0,74,75
 165 1207 165 1207 183 1277.5 c 128,-1,76
 201 1348 201 1348 234.5 1395.5 c 128,-1,77
 268 1443 268 1443 315 1470.5 c 128,-1,78
 362 1498 362 1498 420.5 1512 c 128,-1,79
 479 1526 479 1526 547 1529.5 c 128,-1,80
 615 1533 615 1533 690 1533 c 0,81,82
 798 1533 798 1533 880 1528 c 128,-1,83
 962 1523 962 1523 1021.5 1507.5 c 128,-1,84
 1081 1492 1081 1492 1121 1463.5 c 128,-1,85
 1161 1435 1161 1435 1184.5 1387.5 c 128,-1,86
 1208 1340 1208 1340 1218.5 1271 c 128,-1,87
 1229 1202 1229 1202 1230 1106 c 1,88,-1
 1023 1106 l 1,0,1
EndSplineSet
EndChar

StartChar: T
Encoding: 84 84 53
Width: 1163
Flags: W
LayerCount: 2
Fore
SplineSet
51 1499 m 1,0,-1
 1114 1499 l 1,1,-1
 1114 1339 l 1,2,-1
 689 1339 l 1,3,-1
 689 0 l 1,4,-1
 468 0 l 1,5,-1
 468 1339 l 1,6,-1
 51 1339 l 1,7,-1
 51 1499 l 1,8,-1
 51 1499 l 1,0,-1
EndSplineSet
EndChar

StartChar: U
Encoding: 85 85 54
Width: 1561
Flags: W
LayerCount: 2
Fore
SplineSet
781 -37 m 256,0,1
 661 -37 661 -37 568 -29.5 c 128,-1,2
 475 -22 475 -22 406.5 0.5 c 128,-1,3
 338 23 338 23 291.5 63 c 128,-1,4
 245 103 245 103 216.5 168 c 128,-1,5
 188 233 188 233 176 326.5 c 128,-1,6
 164 420 164 420 164 549 c 2,7,-1
 164 1499 l 1,8,-1
 385 1499 l 1,9,-1
 385 467 l 2,10,11
 385 387 385 387 393 330 c 128,-1,12
 401 273 401 273 419 235.5 c 128,-1,13
 437 198 437 198 467 176 c 128,-1,14
 497 154 497 154 541 143 c 128,-1,15
 585 132 585 132 644 129 c 128,-1,16
 703 126 703 126 781 126 c 0,17,18
 858 126 858 126 917.5 129 c 128,-1,19
 977 132 977 132 1021 143 c 128,-1,20
 1065 154 1065 154 1095 176 c 128,-1,21
 1125 198 1125 198 1143 235.5 c 128,-1,22
 1161 273 1161 273 1169 329.5 c 128,-1,23
 1177 386 1177 386 1177 467 c 2,24,-1
 1177 1499 l 1,25,-1
 1398 1499 l 1,26,-1
 1398 549 l 2,27,28
 1398 420 1398 420 1386 326.5 c 128,-1,29
 1374 233 1374 233 1345.5 168 c 128,-1,30
 1317 103 1317 103 1270.5 63 c 128,-1,31
 1224 23 1224 23 1155.5 0.5 c 128,-1,32
 1087 -22 1087 -22 994 -29.5 c 128,-1,33
 901 -37 901 -37 781 -37 c 256,0,1
EndSplineSet
EndChar

StartChar: V
Encoding: 86 86 55
Width: 1503
Flags: W
LayerCount: 2
Fore
SplineSet
347 1499 m 1,0,-1
 752 256 l 1,1,-1
 758 256 l 1,2,-1
 1152 1499 l 1,3,-1
 1390 1499 l 1,4,-1
 863 0 l 1,5,-1
 633 0 l 1,6,-1
 113 1499 l 1,7,-1
 347 1499 l 1,8,-1
 347 1499 l 1,0,-1
EndSplineSet
EndChar

StartChar: W
Encoding: 87 87 56
Width: 2142
Flags: W
LayerCount: 2
Fore
SplineSet
1176 1499 m 1,0,-1
 1501 266 l 1,1,-1
 1507 266 l 1,2,-1
 1771 1499 l 1,3,-1
 1999 1499 l 1,4,-1
 1622 0 l 1,5,-1
 1372 0 l 1,6,-1
 1071 1192 l 1,7,-1
 763 0 l 1,8,-1
 513 0 l 1,9,-1
 143 1499 l 1,10,-1
 377 1499 l 1,11,-1
 642 266 l 1,12,-1
 648 266 l 1,13,-1
 962 1499 l 1,14,-1
 1176 1499 l 1,15,-1
 1176 1499 l 1,0,-1
EndSplineSet
EndChar

StartChar: X
Encoding: 88 88 57
Width: 1480
Flags: W
LayerCount: 2
Fore
SplineSet
1091 0 m 1,0,-1
 740 598 l 1,1,-1
 389 0 l 1,2,-1
 152 0 l 1,3,-1
 620 770 l 1,4,-1
 174 1499 l 1,5,-1
 405 1499 l 1,6,-1
 740 934 l 1,7,-1
 1075 1499 l 1,8,-1
 1306 1499 l 1,9,-1
 860 770 l 1,10,-1
 1328 0 l 1,11,-1
 1091 0 l 1,12,-1
 1091 0 l 1,0,-1
EndSplineSet
EndChar

StartChar: Y
Encoding: 89 89 58
Width: 1374
Flags: W
LayerCount: 2
Fore
SplineSet
106 1499 m 1,0,-1
 342 1499 l 1,1,-1
 689 717 l 1,2,-1
 1043 1499 l 1,3,-1
 1269 1499 l 1,4,-1
 794 510 l 1,5,-1
 794 0 l 1,6,-1
 573 0 l 1,7,-1
 573 510 l 1,8,-1
 106 1499 l 1,9,-1
 106 1499 l 1,0,-1
EndSplineSet
EndChar

StartChar: Z
Encoding: 90 90 59
Width: 1230
Flags: W
LayerCount: 2
Fore
SplineSet
1084 0 m 1,0,-1
 132 0 l 1,1,-1
 132 147 l 1,2,-1
 859 1336 l 1,3,-1
 210 1336 l 1,4,-1
 210 1499 l 1,5,-1
 1085 1499 l 1,6,-1
 1085 1328 l 1,7,-1
 382 168 l 1,8,-1
 1084 168 l 1,9,-1
 1084 0 l 1,10,-1
 1084 0 l 1,0,-1
EndSplineSet
EndChar

StartChar: bracketleft
Encoding: 91 91 60
Width: 786
Flags: W
LayerCount: 2
Fore
SplineSet
185 -262 m 1,0,-1
 185 1690 l 1,1,-1
 682 1690 l 1,2,-1
 682 1543 l 1,3,-1
 397 1543 l 1,4,-1
 397 -114 l 1,5,-1
 682 -114 l 1,6,-1
 682 -262 l 1,7,-1
 185 -262 l 1,0,-1
EndSplineSet
EndChar

StartChar: backslash
Encoding: 92 92 61
Width: 728
Flags: W
LayerCount: 2
Fore
SplineSet
417 0 m 1,0,-1
 89 1499 l 1,1,-1
 310 1499 l 1,2,-1
 638 0 l 1,3,-1
 417 0 l 1,4,-1
 417 0 l 1,0,-1
EndSplineSet
EndChar

StartChar: bracketright
Encoding: 93 93 62
Width: 786
Flags: W
LayerCount: 2
Fore
SplineSet
105 1690 m 1,0,-1
 602 1690 l 1,1,-1
 602 -262 l 1,2,-1
 105 -262 l 1,3,-1
 105 -114 l 1,4,-1
 390 -114 l 1,5,-1
 390 1543 l 1,6,-1
 105 1543 l 1,7,-1
 105 1690 l 1,0,-1
EndSplineSet
EndChar

StartChar: asciicircum
Encoding: 94 94 63
Width: 1124
Flags: W
LayerCount: 2
Fore
SplineSet
562 1627 m 1,0,-1
 331 1416 l 1,1,2
 310 1401 310 1401 291 1401 c 0,3,4
 275 1401 275 1401 263.5 1411.5 c 128,-1,5
 252 1422 252 1422 252 1440 c 0,6,7
 252 1461 252 1461 266 1481 c 2,8,-1
 457 1754 l 2,9,10
 473 1777 473 1777 501.5 1787.5 c 128,-1,11
 530 1798 530 1798 562 1798 c 256,12,13
 594 1798 594 1798 622.5 1787.5 c 128,-1,14
 651 1777 651 1777 668 1754 c 2,15,-1
 858 1481 l 2,16,17
 866 1470 866 1470 869.5 1460.5 c 128,-1,18
 873 1451 873 1451 873 1440 c 0,19,20
 873 1422 873 1422 861.5 1411.5 c 128,-1,21
 850 1401 850 1401 834 1401 c 0,22,23
 815 1401 815 1401 794 1416 c 1,24,-1
 562 1627 l 1,0,-1
EndSplineSet
EndChar

StartChar: underscore
Encoding: 95 95 64
Width: 1273
Flags: W
LayerCount: 2
Fore
SplineSet
1098 -38 m 1,0,-1
 1098 -425 l 1,1,-1
 175 -425 l 1,2,-1
 175 -38 l 1,3,-1
 1098 -38 l 1,4,-1
 1098 -38 l 1,0,-1
EndSplineSet
EndChar

StartChar: grave
Encoding: 96 96 65
Width: 1037
Flags: W
LayerCount: 2
Fore
SplineSet
732 1341 m 1,0,1
 751 1325 751 1325 751 1311 c 0,2,3
 751 1292 751 1292 725 1292 c 0,4,5
 717 1292 717 1292 707 1295 c 0,6,7
 599 1329 599 1329 510 1358 c 0,8,9
 472 1370 472 1370 435 1382.5 c 128,-1,10
 398 1395 398 1395 367 1406 c 128,-1,11
 336 1417 336 1417 314.5 1425 c 128,-1,12
 293 1433 293 1433 287 1438 c 1,13,14
 247 1458 247 1458 229.5 1485 c 128,-1,15
 212 1512 212 1512 212 1539 c 0,16,17
 212 1558 212 1558 219.5 1576.5 c 128,-1,18
 227 1595 227 1595 240.5 1609 c 128,-1,19
 254 1623 254 1623 274 1631.5 c 128,-1,20
 294 1640 294 1640 318 1640 c 0,21,22
 335 1640 335 1640 354.5 1635.5 c 128,-1,23
 374 1631 374 1631 394 1620 c 0,24,25
 421 1605 421 1605 457 1578 c 128,-1,26
 493 1551 493 1551 530.5 1520 c 128,-1,27
 568 1489 568 1489 604 1457 c 128,-1,28
 640 1425 640 1425 668.5 1399 c 128,-1,29
 697 1373 697 1373 714.5 1357 c 128,-1,30
 732 1341 732 1341 732 1341 c 1,0,1
EndSplineSet
EndChar

StartChar: a
Encoding: 97 97 66
Width: 1273
Flags: W
LayerCount: 2
Fore
SplineSet
892 97 m 1,0,1
 884 62 884 62 844 36 c 0,2,3
 827 25 827 25 800.5 14 c 128,-1,4
 774 3 774 3 736.5 -5.5 c 128,-1,5
 699 -14 699 -14 648.5 -19 c 128,-1,6
 598 -24 598 -24 532 -24 c 0,7,8
 430 -24 430 -24 355 -10 c 128,-1,9
 280 4 280 4 231 40.5 c 128,-1,10
 182 77 182 77 158 140.5 c 128,-1,11
 134 204 134 204 134 304 c 0,12,13
 134 434 134 434 158 510 c 128,-1,14
 182 586 182 586 233 625 c 128,-1,15
 284 664 284 664 362.5 674.5 c 128,-1,16
 441 685 441 685 551 685 c 0,17,18
 628 685 628 685 710.5 673 c 128,-1,19
 793 661 793 661 882 647 c 1,20,-1
 882 874 l 2,21,22
 882 928 882 928 878 957 c 128,-1,23
 874 986 874 986 850 999.5 c 128,-1,24
 826 1013 826 1013 773.5 1015.5 c 128,-1,25
 721 1018 721 1018 625 1018 c 0,26,27
 538 1018 538 1018 491 1016 c 128,-1,28
 444 1014 444 1014 422.5 1002.5 c 128,-1,29
 401 991 401 991 397.5 965.5 c 128,-1,30
 394 940 394 940 394 893 c 0,31,32
 394 876 394 876 395 857.5 c 128,-1,33
 396 839 396 839 398 818 c 1,34,-1
 217 798 l 1,35,36
 210 833 210 833 207 862.5 c 128,-1,37
 204 892 204 892 204 920 c 0,38,39
 204 1001 204 1001 235.5 1052 c 128,-1,40
 267 1103 267 1103 324 1131.5 c 128,-1,41
 381 1160 381 1160 461.5 1170.5 c 128,-1,42
 542 1181 542 1181 641 1181 c 0,43,44
 693 1181 693 1181 747.5 1178 c 128,-1,45
 802 1175 802 1175 853.5 1164 c 128,-1,46
 905 1153 905 1153 950 1131.5 c 128,-1,47
 995 1110 995 1110 1029 1073 c 128,-1,48
 1063 1036 1063 1036 1083 981 c 128,-1,49
 1103 926 1103 926 1103 849 c 0,50,51
 1103 571 1103 571 1104 358 c 128,-1,52
 1105 145 1105 145 1118 0 c 1,53,-1
 935 0 l 1,54,-1
 892 97 l 1,0,1
615 120 m 0,55,56
 716 120 716 120 770.5 124 c 128,-1,57
 825 128 825 128 849.5 139.5 c 128,-1,58
 874 151 874 151 878 171.5 c 128,-1,59
 882 192 882 192 882 226 c 2,60,-1
 882 539 l 1,61,-1
 550 539 l 2,62,63
 470 539 470 539 427 535.5 c 128,-1,64
 384 532 384 532 364 511 c 128,-1,65
 344 490 344 490 340.5 445 c 128,-1,66
 337 400 337 400 337 317 c 0,67,68
 337 267 337 267 338.5 233.5 c 128,-1,69
 340 200 340 200 347.5 178 c 128,-1,70
 355 156 355 156 371.5 144 c 128,-1,71
 388 132 388 132 419 127 c 128,-1,72
 450 122 450 122 497.5 121 c 128,-1,73
 545 120 545 120 615 120 c 0,55,56
EndSplineSet
EndChar

StartChar: b
Encoding: 98 98 67
Width: 1237
Flags: W
LayerCount: 2
Fore
SplineSet
677 1017 m 0,0,1
 606 1017 606 1017 557 1015.5 c 128,-1,2
 508 1014 508 1014 476.5 1007.5 c 128,-1,3
 445 1001 445 1001 427.5 987.5 c 128,-1,4
 410 974 410 974 402.5 950 c 128,-1,5
 395 926 395 926 393.5 889 c 128,-1,6
 392 852 392 852 392 799 c 2,7,-1
 392 342 l 2,8,9
 392 270 392 270 396 229.5 c 128,-1,10
 400 189 400 189 422.5 169 c 128,-1,11
 445 149 445 149 494.5 144 c 128,-1,12
 544 139 544 139 635 139 c 0,13,14
 713 139 713 139 766.5 140 c 128,-1,15
 820 141 820 141 854.5 146.5 c 128,-1,16
 889 152 889 152 908 164 c 128,-1,17
 927 176 927 176 936 198.5 c 128,-1,18
 945 221 945 221 946.5 256 c 128,-1,19
 948 291 948 291 948 342 c 2,20,-1
 948 799 l 2,21,22
 948 853 948 853 946.5 890.5 c 128,-1,23
 945 928 945 928 937.5 952.5 c 128,-1,24
 930 977 930 977 913.5 990 c 128,-1,25
 897 1003 897 1003 867 1009 c 128,-1,26
 837 1015 837 1015 790.5 1016 c 128,-1,27
 744 1017 744 1017 677 1017 c 0,0,1
754 -24 m 0,28,29
 639 -24 639 -24 568.5 -4 c 128,-1,30
 498 16 498 16 459 40 c 0,31,32
 413 68 413 68 393 105 c 1,33,-1
 368 0 l 1,34,-1
 175 0 l 1,35,-1
 175 1594 l 1,36,-1
 392 1594 l 1,37,-1
 392 1053 l 1,38,39
 408 1088 408 1088 448 1116 c 0,40,41
 465 1128 465 1128 489.5 1139 c 128,-1,42
 514 1150 514 1150 547 1159 c 128,-1,43
 580 1168 580 1168 623 1173.5 c 128,-1,44
 666 1179 666 1179 720 1179 c 0,45,46
 852 1179 852 1179 938.5 1158 c 128,-1,47
 1025 1137 1025 1137 1076 1092 c 128,-1,48
 1127 1047 1127 1047 1147 977 c 128,-1,49
 1167 907 1167 907 1167 808 c 2,50,-1
 1167 387 l 2,51,52
 1167 277 1167 277 1152 199.5 c 128,-1,53
 1137 122 1137 122 1092.5 72 c 128,-1,54
 1048 22 1048 22 967 -1 c 128,-1,55
 886 -24 886 -24 754 -24 c 0,28,29
EndSplineSet
EndChar

StartChar: c
Encoding: 99 99 68
Width: 1256
Flags: W
LayerCount: 2
Fore
SplineSet
908 766 m 1,0,-1
 908 800 l 2,1,2
 908 882 908 882 904 926 c 128,-1,3
 900 970 900 970 876.5 990.5 c 128,-1,4
 853 1011 853 1011 801.5 1014.5 c 128,-1,5
 750 1018 750 1018 656 1018 c 0,6,7
 585 1018 585 1018 537 1017 c 128,-1,8
 489 1016 489 1016 457.5 1010 c 128,-1,9
 426 1004 426 1004 409 991 c 128,-1,10
 392 978 392 978 384.5 953.5 c 128,-1,11
 377 929 377 929 375.5 891.5 c 128,-1,12
 374 854 374 854 374 800 c 2,13,-1
 374 343 l 2,14,15
 374 292 374 292 375.5 257 c 128,-1,16
 377 222 377 222 384.5 199.5 c 128,-1,17
 392 177 392 177 409 164.5 c 128,-1,18
 426 152 426 152 457.5 146.5 c 128,-1,19
 489 141 489 141 537 140 c 128,-1,20
 585 139 585 139 656 139 c 0,21,22
 719 139 719 139 762 140 c 128,-1,23
 805 141 805 141 833 146.5 c 128,-1,24
 861 152 861 152 876.5 164.5 c 128,-1,25
 892 177 892 177 899 199.5 c 128,-1,26
 906 222 906 222 907 257 c 128,-1,27
 908 292 908 292 908 343 c 2,28,-1
 908 375 l 1,29,-1
 1117 375 l 1,30,-1
 1117 359 l 2,31,32
 1117 251 1117 251 1099 178 c 128,-1,33
 1081 105 1081 105 1031 60.5 c 128,-1,34
 981 16 981 16 891 -3.5 c 128,-1,35
 801 -23 801 -23 656 -23 c 0,36,37
 499 -23 499 -23 401.5 -3.5 c 128,-1,38
 304 16 304 16 249.5 60.5 c 128,-1,39
 195 105 195 105 176 178 c 128,-1,40
 157 251 157 251 157 359 c 2,41,-1
 157 798 l 2,42,43
 157 906 157 906 176.5 979 c 128,-1,44
 196 1052 196 1052 251 1096.5 c 128,-1,45
 306 1141 306 1141 403.5 1160.5 c 128,-1,46
 501 1180 501 1180 656 1180 c 0,47,48
 799 1180 799 1180 889 1160.5 c 128,-1,49
 979 1141 979 1141 1029.5 1096 c 128,-1,50
 1080 1051 1080 1051 1098.5 978 c 128,-1,51
 1117 905 1117 905 1117 798 c 2,52,-1
 1117 766 l 1,53,-1
 908 766 l 1,0,-1
EndSplineSet
EndChar

StartChar: d
Encoding: 100 100 69
Width: 1241
Flags: W
LayerCount: 2
Fore
SplineSet
568 1018 m 0,0,1
 498 1018 498 1018 450.5 1017 c 128,-1,2
 403 1016 403 1016 372 1009.5 c 128,-1,3
 341 1003 341 1003 324 990 c 128,-1,4
 307 977 307 977 299.5 952.5 c 128,-1,5
 292 928 292 928 290.5 890.5 c 128,-1,6
 289 853 289 853 289 799 c 2,7,-1
 289 342 l 2,8,9
 289 291 289 291 290.5 256 c 128,-1,10
 292 221 292 221 301 198.5 c 128,-1,11
 310 176 310 176 329 164 c 128,-1,12
 348 152 348 152 384 146.5 c 128,-1,13
 420 141 420 141 475 140 c 128,-1,14
 530 139 530 139 610 139 c 0,15,16
 701 139 701 139 750.5 144 c 128,-1,17
 800 149 800 149 822.5 169 c 128,-1,18
 845 189 845 189 849 229.5 c 128,-1,19
 853 270 853 270 853 342 c 2,20,-1
 853 799 l 2,21,22
 853 852 853 852 851.5 889 c 128,-1,23
 850 926 850 926 842.5 950.5 c 128,-1,24
 835 975 835 975 817.5 988.5 c 128,-1,25
 800 1002 800 1002 768.5 1008.5 c 128,-1,26
 737 1015 737 1015 688 1016.5 c 128,-1,27
 639 1018 639 1018 568 1018 c 0,0,1
491 -24 m 0,28,29
 356 -24 356 -24 273.5 -1 c 128,-1,30
 191 22 191 22 145.5 72 c 128,-1,31
 100 122 100 122 85 199.5 c 128,-1,32
 70 277 70 277 70 387 c 2,33,-1
 70 808 l 2,34,35
 70 907 70 907 90.5 977.5 c 128,-1,36
 111 1048 111 1048 162.5 1093 c 128,-1,37
 214 1138 214 1138 302 1159 c 128,-1,38
 390 1180 390 1180 525 1180 c 0,39,40
 579 1180 579 1180 622 1174.5 c 128,-1,41
 665 1169 665 1169 698 1160 c 128,-1,42
 731 1151 731 1151 755.5 1139.5 c 128,-1,43
 780 1128 780 1128 797 1116 c 0,44,45
 837 1088 837 1088 853 1053 c 1,46,-1
 853 1594 l 1,47,-1
 1070 1594 l 1,48,-1
 1070 0 l 1,49,-1
 877 0 l 1,50,-1
 852 105 l 1,51,52
 832 68 832 68 786 40 c 0,53,54
 747 16 747 16 676 -4 c 128,-1,55
 605 -24 605 -24 491 -24 c 0,28,29
EndSplineSet
EndChar

StartChar: e
Encoding: 101 101 70
Width: 1304
Flags: W
LayerCount: 2
Fore
SplineSet
1157 367 m 1,0,-1
 1157 359 l 2,1,2
 1157 251 1157 251 1137.5 178 c 128,-1,3
 1118 105 1118 105 1063 60.5 c 128,-1,4
 1008 16 1008 16 910.5 -3.5 c 128,-1,5
 813 -23 813 -23 656 -23 c 256,6,7
 499 -23 499 -23 401.5 -3.5 c 128,-1,8
 304 16 304 16 249.5 60.5 c 128,-1,9
 195 105 195 105 176 178 c 128,-1,10
 157 251 157 251 157 359 c 2,11,-1
 157 798 l 2,12,13
 157 906 157 906 176.5 979 c 128,-1,14
 196 1052 196 1052 251 1096.5 c 128,-1,15
 306 1141 306 1141 403.5 1160.5 c 128,-1,16
 501 1180 501 1180 656 1180 c 0,17,18
 759 1180 759 1180 836.5 1171.5 c 128,-1,19
 914 1163 914 1163 969.5 1144.5 c 128,-1,20
 1025 1126 1025 1126 1061.5 1096.5 c 128,-1,21
 1098 1067 1098 1067 1119 1024.5 c 128,-1,22
 1140 982 1140 982 1148.5 925.5 c 128,-1,23
 1157 869 1157 869 1157 798 c 2,24,-1
 1157 555 l 1,25,-1
 374 555 l 1,26,-1
 374 343 l 2,27,28
 374 292 374 292 375.5 257 c 128,-1,29
 377 222 377 222 384.5 199.5 c 128,-1,30
 392 177 392 177 409 164.5 c 128,-1,31
 426 152 426 152 457.5 146.5 c 128,-1,32
 489 141 489 141 537 140 c 128,-1,33
 585 139 585 139 656 139 c 256,34,35
 727 139 727 139 775 140 c 128,-1,36
 823 141 823 141 854.5 146.5 c 128,-1,37
 886 152 886 152 903 164.5 c 128,-1,38
 920 177 920 177 927.5 199.5 c 128,-1,39
 935 222 935 222 936.5 257 c 128,-1,40
 938 292 938 292 938 343 c 2,41,-1
 938 367 l 1,42,-1
 1157 367 l 1,0,-1
374 659 m 1,43,-1
 938 659 l 1,44,-1
 938 800 l 2,45,46
 938 854 938 854 936.5 891.5 c 128,-1,47
 935 929 935 929 927.5 953.5 c 128,-1,48
 920 978 920 978 903 991 c 128,-1,49
 886 1004 886 1004 854.5 1010 c 128,-1,50
 823 1016 823 1016 774.5 1017 c 128,-1,51
 726 1018 726 1018 656 1018 c 0,52,53
 585 1018 585 1018 537 1017 c 128,-1,54
 489 1016 489 1016 457.5 1010 c 128,-1,55
 426 1004 426 1004 409 991 c 128,-1,56
 392 978 392 978 384.5 953.5 c 128,-1,57
 377 929 377 929 375.5 891.5 c 128,-1,58
 374 854 374 854 374 800 c 2,59,-1
 374 659 l 1,43,-1
EndSplineSet
EndChar

StartChar: f
Encoding: 102 102 71
Width: 698
Flags: W
LayerCount: 2
Fore
SplineSet
58 1147 m 1,0,-1
 201 1147 l 1,1,2
 201 1203 201 1203 199 1256.5 c 128,-1,3
 197 1310 197 1310 200.5 1358 c 128,-1,4
 204 1406 204 1406 216 1446.5 c 128,-1,5
 228 1487 228 1487 256.5 1516.5 c 128,-1,6
 285 1546 285 1546 333.5 1562.5 c 128,-1,7
 382 1579 382 1579 457 1579 c 0,8,9
 503 1579 503 1579 548.5 1573.5 c 128,-1,10
 594 1568 594 1568 640 1561 c 1,11,-1
 640 1412 l 1,12,-1
 418 1412 l 1,13,-1
 418 1147 l 1,14,-1
 636 1147 l 1,15,-1
 636 1028 l 1,16,-1
 418 1028 l 1,17,-1
 418 0 l 1,18,-1
 201 0 l 1,19,-1
 201 1028 l 1,20,-1
 58 1028 l 1,21,-1
 58 1147 l 1,0,-1
EndSplineSet
EndChar

StartChar: g
Encoding: 103 103 72
Width: 1275
Flags: W
LayerCount: 2
Fore
SplineSet
619 162 m 0,0,1
 722 162 722 162 778 165.5 c 128,-1,2
 834 169 834 169 859.5 187.5 c 128,-1,3
 885 206 885 206 889.5 245.5 c 128,-1,4
 894 285 894 285 894 357 c 2,5,-1
 894 814 l 2,6,7
 894 886 894 886 890.5 926.5 c 128,-1,8
 887 967 887 967 865 987.5 c 128,-1,9
 843 1008 843 1008 795.5 1013 c 128,-1,10
 748 1018 748 1018 661 1018 c 0,11,12
 583 1018 583 1018 530 1017 c 128,-1,13
 477 1016 477 1016 442.5 1010.5 c 128,-1,14
 408 1005 408 1005 389 992.5 c 128,-1,15
 370 980 370 980 361.5 957.5 c 128,-1,16
 353 935 353 935 351.5 900 c 128,-1,17
 350 865 350 865 350 814 c 2,18,-1
 350 380 l 2,19,20
 350 325 350 325 351 288 c 128,-1,21
 352 251 352 251 359.5 226.5 c 128,-1,22
 367 202 367 202 383.5 189 c 128,-1,23
 400 176 400 176 430 170 c 128,-1,24
 460 164 460 164 506 163 c 128,-1,25
 552 162 552 162 619 162 c 0,0,1
892 103 m 1,26,27
 876 74 876 74 837 51 c 0,28,29
 804 31 804 31 744 15.5 c 128,-1,30
 684 0 684 0 586 0 c 0,31,32
 451 0 451 0 363 21 c 128,-1,33
 275 42 275 42 223.5 87 c 128,-1,34
 172 132 172 132 151.5 202 c 128,-1,35
 131 272 131 272 131 371 c 2,36,-1
 131 769 l 2,37,38
 131 878 131 878 146 956 c 128,-1,39
 161 1034 161 1034 206.5 1084 c 128,-1,40
 252 1134 252 1134 334.5 1157 c 128,-1,41
 417 1180 417 1180 552 1180 c 0,42,43
 660 1180 660 1180 727 1159.5 c 128,-1,44
 794 1139 794 1139 831 1115 c 0,45,46
 874 1087 874 1087 893 1051 c 1,47,-1
 918 1147 l 1,48,-1
 1111 1147 l 1,49,-1
 1110 45 l 2,50,51
 1110 -67 1110 -67 1086 -143 c 128,-1,52
 1062 -219 1062 -219 1004.5 -265.5 c 128,-1,53
 947 -312 947 -312 851.5 -332 c 128,-1,54
 756 -352 756 -352 613 -352 c 0,55,56
 571 -352 571 -352 525 -349.5 c 128,-1,57
 479 -347 479 -347 432.5 -340.5 c 128,-1,58
 386 -334 386 -334 340.5 -324 c 128,-1,59
 295 -314 295 -314 256 -299 c 1,60,-1
 288 -153 l 1,61,62
 326 -167 326 -167 370.5 -175 c 128,-1,63
 415 -183 415 -183 461.5 -187.5 c 128,-1,64
 508 -192 508 -192 553.5 -193.5 c 128,-1,65
 599 -195 599 -195 639 -195 c 0,66,67
 734 -195 734 -195 785.5 -192.5 c 128,-1,68
 837 -190 837 -190 861 -179.5 c 128,-1,69
 885 -169 885 -169 889 -147.5 c 128,-1,70
 893 -126 893 -126 893 -88 c 2,71,-1
 892 103 l 1,26,27
EndSplineSet
EndChar

StartChar: h
Encoding: 104 104 73
Width: 1208
Flags: W
LayerCount: 2
Fore
SplineSet
669 1018 m 0,0,1
 599 1018 599 1018 551.5 1017 c 128,-1,2
 504 1016 504 1016 473 1008.5 c 128,-1,3
 442 1001 442 1001 425 985 c 128,-1,4
 408 969 408 969 400.5 939.5 c 128,-1,5
 393 910 393 910 391.5 864 c 128,-1,6
 390 818 390 818 390 752 c 2,7,-1
 390 0 l 1,8,-1
 173 0 l 1,9,-1
 173 1552 l 1,10,-1
 390 1552 l 1,11,-1
 390 1052 l 1,12,13
 413 1087 413 1087 458 1115 c 0,14,15
 496 1139 496 1139 562 1159 c 128,-1,16
 628 1179 628 1179 730 1179 c 0,17,18
 847 1179 847 1179 924 1157.5 c 128,-1,19
 1001 1136 1001 1136 1046.5 1088 c 128,-1,20
 1092 1040 1092 1040 1110.5 964 c 128,-1,21
 1129 888 1129 888 1129 780 c 2,22,-1
 1129 0 l 1,23,-1
 910 0 l 1,24,-1
 910 772 l 2,25,26
 910 833 910 833 909 875.5 c 128,-1,27
 908 918 908 918 901 945 c 128,-1,28
 894 972 894 972 879.5 987 c 128,-1,29
 865 1002 865 1002 838.5 1009 c 128,-1,30
 812 1016 812 1016 770.5 1017 c 128,-1,31
 729 1018 729 1018 669 1018 c 0,0,1
EndSplineSet
EndChar

StartChar: i
Encoding: 105 105 74
Width: 522
Flags: W
LayerCount: 2
Fore
SplineSet
373 1147 m 1,0,-1
 373 0 l 1,1,-1
 154 0 l 1,2,-1
 154 1147 l 1,3,-1
 373 1147 l 1,0,-1
373 1571 m 1,4,-1
 373 1384 l 1,5,-1
 154 1384 l 1,6,-1
 154 1571 l 1,7,-1
 373 1571 l 1,4,-1
EndSplineSet
EndChar

StartChar: j
Encoding: 106 106 75
Width: 560
Flags: W
LayerCount: 2
Fore
SplineSet
416 -49 m 2,0,1
 416 -117 416 -117 402 -166 c 128,-1,2
 388 -215 388 -215 357 -247.5 c 128,-1,3
 326 -280 326 -280 277 -295.5 c 128,-1,4
 228 -311 228 -311 158 -311 c 0,5,6
 123 -311 123 -311 87.5 -307 c 128,-1,7
 52 -303 52 -303 17 -297 c 1,8,-1
 13 -156 l 1,9,-1
 199 -156 l 1,10,-1
 199 1147 l 1,11,-1
 416 1147 l 1,12,-1
 416 -49 l 2,0,1
418 1384 m 1,13,-1
 199 1384 l 1,14,-1
 199 1571 l 1,15,-1
 418 1571 l 1,16,-1
 418 1384 l 1,13,-1
EndSplineSet
EndChar

StartChar: k
Encoding: 107 107 76
Width: 1228
Flags: W
LayerCount: 2
Fore
SplineSet
392 1552 m 1,0,-1
 392 660 l 1,1,-1
 870 1147 l 1,2,-1
 1120 1147 l 1,3,-1
 640 674 l 1,4,-1
 1156 0 l 1,5,-1
 913 0 l 1,6,-1
 489 568 l 1,7,-1
 392 481 l 1,8,-1
 392 0 l 1,9,-1
 175 0 l 1,10,-1
 175 1552 l 1,11,-1
 392 1552 l 1,12,-1
 392 1552 l 1,0,-1
EndSplineSet
EndChar

StartChar: l
Encoding: 108 108 77
Width: 565
Flags: W
LayerCount: 2
Fore
SplineSet
392 1552 m 1,0,-1
 392 0 l 1,1,-1
 175 0 l 1,2,-1
 175 1552 l 1,3,-1
 392 1552 l 1,4,-1
 392 1552 l 1,0,-1
EndSplineSet
EndChar

StartChar: m
Encoding: 109 109 78
Width: 1923
Flags: W
LayerCount: 2
Fore
SplineSet
653 1018 m 0,0,1
 587 1018 587 1018 542 1017 c 128,-1,2
 497 1016 497 1016 467.5 1009 c 128,-1,3
 438 1002 438 1002 422 987.5 c 128,-1,4
 406 973 406 973 398.5 945.5 c 128,-1,5
 391 918 391 918 390 876 c 128,-1,6
 389 834 389 834 389 773 c 2,7,-1
 389 0 l 1,8,-1
 172 0 l 1,9,-1
 172 1147 l 1,10,-1
 365 1147 l 1,11,-1
 391 1052 l 1,12,13
 417 1088 417 1088 459 1116 c 0,14,15
 495 1140 495 1140 553 1160 c 128,-1,16
 611 1180 611 1180 698 1180 c 0,17,18
 747 1180 747 1180 797.5 1173.5 c 128,-1,19
 848 1167 848 1167 892 1150.5 c 128,-1,20
 936 1134 936 1134 971 1107 c 128,-1,21
 1006 1080 1006 1080 1026 1038 c 1,22,23
 1043 1080 1043 1080 1078.5 1107.5 c 128,-1,24
 1114 1135 1114 1135 1158 1151 c 128,-1,25
 1202 1167 1202 1167 1250.5 1173.5 c 128,-1,26
 1299 1180 1299 1180 1342 1180 c 0,27,28
 1460 1180 1460 1180 1539.5 1161.5 c 128,-1,29
 1619 1143 1619 1143 1667 1099 c 128,-1,30
 1715 1055 1715 1055 1735 982.5 c 128,-1,31
 1755 910 1755 910 1755 801 c 2,32,-1
 1755 0 l 1,33,-1
 1536 0 l 1,34,-1
 1536 788 l 2,35,36
 1536 846 1536 846 1535 886 c 128,-1,37
 1534 926 1534 926 1528 951.5 c 128,-1,38
 1522 977 1522 977 1509 990.5 c 128,-1,39
 1496 1004 1496 1004 1471 1010 c 128,-1,40
 1446 1016 1446 1016 1408 1017 c 128,-1,41
 1370 1018 1370 1018 1315 1018 c 0,42,43
 1256 1018 1256 1018 1215 1017 c 128,-1,44
 1174 1016 1174 1016 1147.5 1009.5 c 128,-1,45
 1121 1003 1121 1003 1106.5 988.5 c 128,-1,46
 1092 974 1092 974 1085.5 947.5 c 128,-1,47
 1079 921 1079 921 1078 879.5 c 128,-1,48
 1077 838 1077 838 1077 777 c 2,49,-1
 1077 0 l 1,50,-1
 860 0 l 1,51,-1
 860 773 l 2,52,53
 860 834 860 834 859 876.5 c 128,-1,54
 858 919 858 919 852.5 946 c 128,-1,55
 847 973 847 973 834.5 987.5 c 128,-1,56
 822 1002 822 1002 799 1009 c 128,-1,57
 776 1016 776 1016 740.5 1017 c 128,-1,58
 705 1018 705 1018 653 1018 c 0,0,1
EndSplineSet
EndChar

StartChar: n
Encoding: 110 110 79
Width: 1292
Flags: W
LayerCount: 2
Fore
SplineSet
668 1018 m 0,0,1
 598 1018 598 1018 550.5 1017 c 128,-1,2
 503 1016 503 1016 472 1008.5 c 128,-1,3
 441 1001 441 1001 424 986 c 128,-1,4
 407 971 407 971 399.5 942.5 c 128,-1,5
 392 914 392 914 390.5 870 c 128,-1,6
 389 826 389 826 389 762 c 2,7,-1
 389 0 l 1,8,-1
 172 0 l 1,9,-1
 172 1147 l 1,10,-1
 365 1147 l 1,11,-1
 391 1054 l 1,12,13
 414 1089 414 1089 458 1117 c 0,14,15
 495 1140 495 1140 560.5 1160 c 128,-1,16
 626 1180 626 1180 729 1180 c 0,17,18
 843 1180 843 1180 920 1159.5 c 128,-1,19
 997 1139 997 1139 1043 1092.5 c 128,-1,20
 1089 1046 1089 1046 1108.5 969 c 128,-1,21
 1128 892 1128 892 1128 780 c 2,22,-1
 1128 0 l 1,23,-1
 909 0 l 1,24,-1
 909 782 l 2,25,26
 909 841 909 841 908 881.5 c 128,-1,27
 907 922 907 922 900 948 c 128,-1,28
 893 974 893 974 878.5 988.5 c 128,-1,29
 864 1003 864 1003 837.5 1009.5 c 128,-1,30
 811 1016 811 1016 769.5 1017 c 128,-1,31
 728 1018 728 1018 668 1018 c 0,0,1
EndSplineSet
EndChar

StartChar: o
Encoding: 111 111 80
Width: 1313
Flags: W
LayerCount: 2
Fore
SplineSet
157 798 m 2,0,1
 157 906 157 906 176.5 979 c 128,-1,2
 196 1052 196 1052 251 1096.5 c 128,-1,3
 306 1141 306 1141 403.5 1160.5 c 128,-1,4
 501 1180 501 1180 656 1180 c 0,5,6
 759 1180 759 1180 836.5 1171.5 c 128,-1,7
 914 1163 914 1163 969.5 1144.5 c 128,-1,8
 1025 1126 1025 1126 1061.5 1096.5 c 128,-1,9
 1098 1067 1098 1067 1119 1024.5 c 128,-1,10
 1140 982 1140 982 1148.5 925.5 c 128,-1,11
 1157 869 1157 869 1157 798 c 2,12,-1
 1157 359 l 2,13,14
 1157 251 1157 251 1137.5 178 c 128,-1,15
 1118 105 1118 105 1063 60.5 c 128,-1,16
 1008 16 1008 16 910.5 -3.5 c 128,-1,17
 813 -23 813 -23 656 -23 c 256,18,19
 499 -23 499 -23 401.5 -3.5 c 128,-1,20
 304 16 304 16 249.5 60.5 c 128,-1,21
 195 105 195 105 176 178 c 128,-1,22
 157 251 157 251 157 359 c 2,23,-1
 157 798 l 2,0,1
656 1018 m 0,24,25
 585 1018 585 1018 537 1017 c 128,-1,26
 489 1016 489 1016 457.5 1010 c 128,-1,27
 426 1004 426 1004 409 991 c 128,-1,28
 392 978 392 978 384.5 953.5 c 128,-1,29
 377 929 377 929 375.5 891.5 c 128,-1,30
 374 854 374 854 374 800 c 2,31,-1
 374 343 l 2,32,33
 374 292 374 292 375.5 257 c 128,-1,34
 377 222 377 222 384.5 199.5 c 128,-1,35
 392 177 392 177 409 164.5 c 128,-1,36
 426 152 426 152 457.5 146.5 c 128,-1,37
 489 141 489 141 537 140 c 128,-1,38
 585 139 585 139 656 139 c 256,39,40
 727 139 727 139 775 140 c 128,-1,41
 823 141 823 141 854.5 146.5 c 128,-1,42
 886 152 886 152 903 164.5 c 128,-1,43
 920 177 920 177 927.5 199.5 c 128,-1,44
 935 222 935 222 936.5 257 c 128,-1,45
 938 292 938 292 938 343 c 2,46,-1
 938 800 l 2,47,48
 938 854 938 854 936.5 891.5 c 128,-1,49
 935 929 935 929 927.5 953.5 c 128,-1,50
 920 978 920 978 903 991 c 128,-1,51
 886 1004 886 1004 854.5 1010 c 128,-1,52
 823 1016 823 1016 774.5 1017 c 128,-1,53
 726 1018 726 1018 656 1018 c 0,24,25
EndSplineSet
EndChar

StartChar: p
Encoding: 112 112 81
Width: 1237
Flags: W
LayerCount: 2
Fore
SplineSet
676 139 m 0,0,1
 743 139 743 139 789 140 c 128,-1,2
 835 141 835 141 865 147 c 128,-1,3
 895 153 895 153 911.5 166 c 128,-1,4
 928 179 928 179 935.5 203.5 c 128,-1,5
 943 228 943 228 944 265 c 128,-1,6
 945 302 945 302 945 357 c 2,7,-1
 945 814 l 2,8,9
 945 865 945 865 943.5 900 c 128,-1,10
 942 935 942 935 933.5 957.5 c 128,-1,11
 925 980 925 980 906 992.5 c 128,-1,12
 887 1005 887 1005 852.5 1010.5 c 128,-1,13
 818 1016 818 1016 765 1017 c 128,-1,14
 712 1018 712 1018 634 1018 c 0,15,16
 543 1018 543 1018 493.5 1013 c 128,-1,17
 444 1008 444 1008 421.5 987.5 c 128,-1,18
 399 967 399 967 395 926.5 c 128,-1,19
 391 886 391 886 391 814 c 2,20,-1
 391 357 l 2,21,22
 391 304 391 304 392.5 267 c 128,-1,23
 394 230 394 230 401.5 206 c 128,-1,24
 409 182 409 182 426.5 168.5 c 128,-1,25
 444 155 444 155 475.5 148.5 c 128,-1,26
 507 142 507 142 556 140.5 c 128,-1,27
 605 139 605 139 676 139 c 0,0,1
743 1180 m 0,28,29
 878 1180 878 1180 960.5 1157 c 128,-1,30
 1043 1134 1043 1134 1088.5 1084 c 128,-1,31
 1134 1034 1134 1034 1149 956 c 128,-1,32
 1164 878 1164 878 1164 769 c 2,33,-1
 1164 348 l 2,34,35
 1164 249 1164 249 1143.5 179 c 128,-1,36
 1123 109 1123 109 1071.5 64 c 128,-1,37
 1020 19 1020 19 932 -2 c 128,-1,38
 844 -23 844 -23 709 -23 c 0,39,40
 604 -23 604 -23 539.5 -3.5 c 128,-1,41
 475 16 475 16 441 40 c 0,42,43
 401 67 401 67 384 103 c 1,44,-1
 384 -408 l 1,45,-1
 174 -408 l 1,46,-1
 174 1147 l 1,47,-1
 367 1147 l 1,48,-1
 392 1051 l 1,49,50
 411 1087 411 1087 456 1115 c 0,51,52
 475 1127 475 1127 501.5 1138.5 c 128,-1,53
 528 1150 528 1150 563 1159.5 c 128,-1,54
 598 1169 598 1169 642.5 1174.5 c 128,-1,55
 687 1180 687 1180 743 1180 c 0,28,29
EndSplineSet
EndChar

StartChar: q
Encoding: 113 113 82
Width: 1226
Flags: W
LayerCount: 2
Fore
SplineSet
561 139 m 0,0,1
 630 139 630 139 677 140.5 c 128,-1,2
 724 142 724 142 754.5 148.5 c 128,-1,3
 785 155 785 155 801.5 168.5 c 128,-1,4
 818 182 818 182 825.5 206 c 128,-1,5
 833 230 833 230 834.5 267 c 128,-1,6
 836 304 836 304 836 357 c 2,7,-1
 836 814 l 2,8,9
 836 886 836 886 832.5 926.5 c 128,-1,10
 829 967 829 967 807 987.5 c 128,-1,11
 785 1008 785 1008 737.5 1013 c 128,-1,12
 690 1018 690 1018 603 1018 c 0,13,14
 525 1018 525 1018 472 1017 c 128,-1,15
 419 1016 419 1016 384.5 1010.5 c 128,-1,16
 350 1005 350 1005 331 992.5 c 128,-1,17
 312 980 312 980 303.5 957.5 c 128,-1,18
 295 935 295 935 293.5 900 c 128,-1,19
 292 865 292 865 292 814 c 2,20,-1
 292 357 l 2,21,22
 292 302 292 302 293 265 c 128,-1,23
 294 228 294 228 301.5 203.5 c 128,-1,24
 309 179 309 179 325.5 166 c 128,-1,25
 342 153 342 153 372 147 c 128,-1,26
 402 141 402 141 448 140 c 128,-1,27
 494 139 494 139 561 139 c 0,0,1
494 1180 m 0,28,29
 602 1180 602 1180 669 1159.5 c 128,-1,30
 736 1139 736 1139 773 1115 c 0,31,32
 816 1087 816 1087 835 1051 c 1,33,-1
 860 1147 l 1,34,-1
 1053 1147 l 1,35,-1
 1053 -408 l 1,36,-1
 843 -408 l 1,37,-1
 843 103 l 1,38,39
 827 67 827 67 787 40 c 0,40,41
 753 16 753 16 691 -3.5 c 128,-1,42
 629 -23 629 -23 528 -23 c 0,43,44
 393 -23 393 -23 305 -2 c 128,-1,45
 217 19 217 19 165.5 64 c 128,-1,46
 114 109 114 109 93.5 179 c 128,-1,47
 73 249 73 249 73 348 c 2,48,-1
 73 769 l 2,49,50
 73 878 73 878 88 956 c 128,-1,51
 103 1034 103 1034 148.5 1084 c 128,-1,52
 194 1134 194 1134 276.5 1157 c 128,-1,53
 359 1180 359 1180 494 1180 c 0,28,29
EndSplineSet
EndChar

StartChar: r
Encoding: 114 114 83
Width: 802
Flags: W
LayerCount: 2
Fore
SplineSet
723 1024 m 1,0,1
 686 1024 686 1024 647 1024 c 128,-1,2
 608 1024 608 1024 571 1020.5 c 128,-1,3
 534 1017 534 1017 501.5 1006.5 c 128,-1,4
 469 996 469 996 444.5 975.5 c 128,-1,5
 420 955 420 955 405.5 921.5 c 128,-1,6
 391 888 391 888 391 838 c 2,7,-1
 391 0 l 1,8,-1
 174 0 l 1,9,-1
 174 1147 l 1,10,-1
 347 1147 l 1,11,-1
 373 1004 l 1,12,13
 391 1047 391 1047 432 1080 c 128,-1,14
 473 1113 473 1113 523.5 1135 c 128,-1,15
 574 1157 574 1157 627 1168.5 c 128,-1,16
 680 1180 680 1180 723 1180 c 1,17,-1
 723 1024 l 1,0,1
EndSplineSet
EndChar

StartChar: s
Encoding: 115 115 84
Width: 1231
Flags: W
LayerCount: 2
Fore
SplineSet
871 325 m 0,0,1
 871 395 871 395 851 431 c 128,-1,2
 831 467 831 467 795.5 483 c 128,-1,3
 760 499 760 499 711.5 503 c 128,-1,4
 663 507 663 507 606 514 c 0,5,6
 550 521 550 521 496.5 527.5 c 128,-1,7
 443 534 443 534 394 546 c 128,-1,8
 345 558 345 558 304 578 c 128,-1,9
 263 598 263 598 233 631.5 c 128,-1,10
 203 665 203 665 186 714 c 128,-1,11
 169 763 169 763 169 833 c 0,12,13
 169 943 169 943 203.5 1011 c 128,-1,14
 238 1079 238 1079 298 1116.5 c 128,-1,15
 358 1154 358 1154 439.5 1167 c 128,-1,16
 521 1180 521 1180 615 1180 c 0,17,18
 724 1180 724 1180 806 1171.5 c 128,-1,19
 888 1163 888 1163 943.5 1128.5 c 128,-1,20
 999 1094 999 1094 1026.5 1024.5 c 128,-1,21
 1054 955 1054 955 1054 832 c 1,22,-1
 856 833 l 1,23,24
 857 909 857 909 846 951.5 c 128,-1,25
 835 994 835 994 807 1014 c 128,-1,26
 779 1034 779 1034 731 1038 c 128,-1,27
 683 1042 683 1042 610 1042 c 0,28,29
 557 1042 557 1042 514.5 1037 c 128,-1,30
 472 1032 472 1032 442 1014 c 128,-1,31
 412 996 412 996 395.5 960 c 128,-1,32
 379 924 379 924 379 862 c 0,33,34
 379 807 379 807 398.5 773.5 c 128,-1,35
 418 740 418 740 451.5 721 c 128,-1,36
 485 702 485 702 529.5 693.5 c 128,-1,37
 574 685 574 685 624.5 680.5 c 128,-1,38
 675 676 675 676 727.5 671.5 c 128,-1,39
 780 667 780 667 830.5 656 c 128,-1,40
 881 645 881 645 925.5 624 c 128,-1,41
 970 603 970 603 1003.5 565 c 128,-1,42
 1037 527 1037 527 1056.5 468 c 128,-1,43
 1076 409 1076 409 1076 322 c 0,44,45
 1076 209 1076 209 1042 141.5 c 128,-1,46
 1008 74 1008 74 948.5 37 c 128,-1,47
 889 0 889 0 807.5 -11.5 c 128,-1,48
 726 -23 726 -23 631 -23 c 0,49,50
 557 -23 557 -23 493 -19 c 128,-1,51
 429 -15 429 -15 376 -2 c 128,-1,52
 323 11 323 11 281 35.5 c 128,-1,53
 239 60 239 60 210.5 101.5 c 128,-1,54
 182 143 182 143 167 203 c 128,-1,55
 152 263 152 263 152 348 c 1,56,-1
 356 348 l 1,57,58
 355 260 355 260 369.5 212.5 c 128,-1,59
 384 165 384 165 417.5 143.5 c 128,-1,60
 451 122 451 122 506.5 118.5 c 128,-1,61
 562 115 562 115 643 115 c 0,62,63
 710 115 710 115 754 122 c 128,-1,64
 798 129 798 129 824 151 c 128,-1,65
 850 173 850 173 860.5 214.5 c 128,-1,66
 871 256 871 256 871 325 c 0,0,1
EndSplineSet
EndChar

StartChar: t
Encoding: 116 116 85
Width: 708
Flags: W
LayerCount: 2
Fore
SplineSet
429 133 m 1,0,-1
 631 133 l 1,1,-1
 631 -16 l 1,2,3
 588 -20 588 -20 545.5 -22 c 128,-1,4
 503 -24 503 -24 460 -24 c 0,5,6
 412 -24 412 -24 367.5 -15 c 128,-1,7
 323 -6 323 -6 288.5 15.5 c 128,-1,8
 254 37 254 37 233 73.5 c 128,-1,9
 212 110 212 110 212 166 c 2,10,-1
 212 1028 l 1,11,-1
 49 1028 l 1,12,-1
 49 1147 l 1,13,-1
 212 1147 l 1,14,-1
 212 1462 l 1,15,-1
 429 1462 l 1,16,-1
 429 1147 l 1,17,-1
 642 1147 l 1,18,-1
 642 1028 l 1,19,-1
 429 1028 l 1,20,-1
 429 133 l 1,0,-1
EndSplineSet
EndChar

StartChar: u
Encoding: 117 117 86
Width: 1291
Flags: W
LayerCount: 2
Fore
SplineSet
624 138 m 0,0,1
 694 138 694 138 741.5 139 c 128,-1,2
 789 140 789 140 820 147.5 c 128,-1,3
 851 155 851 155 868 170 c 128,-1,4
 885 185 885 185 892.5 213.5 c 128,-1,5
 900 242 900 242 901.5 286 c 128,-1,6
 903 330 903 330 903 394 c 2,7,-1
 903 1147 l 1,8,-1
 1120 1147 l 1,9,-1
 1120 0 l 1,10,-1
 930 0 l 1,11,-1
 901 102 l 1,12,13
 878 66 878 66 834 39 c 0,14,15
 796 15 796 15 730.5 -4.5 c 128,-1,16
 665 -24 665 -24 563 -24 c 0,17,18
 449 -24 449 -24 372 -3.5 c 128,-1,19
 295 17 295 17 249 63.5 c 128,-1,20
 203 110 203 110 183.5 186.5 c 128,-1,21
 164 263 164 263 164 376 c 2,22,-1
 164 1147 l 1,23,-1
 383 1147 l 1,24,-1
 383 374 l 2,25,26
 383 315 383 315 384 274.5 c 128,-1,27
 385 234 385 234 392 208 c 128,-1,28
 399 182 399 182 413.5 167.5 c 128,-1,29
 428 153 428 153 454.5 146.5 c 128,-1,30
 481 140 481 140 522.5 139 c 128,-1,31
 564 138 564 138 624 138 c 0,0,1
EndSplineSet
EndChar

StartChar: v
Encoding: 118 118 87
Width: 1163
Flags: W
LayerCount: 2
Fore
SplineSet
860 1147 m 1,0,-1
 1082 1147 l 1,1,-1
 715 0 l 1,2,-1
 488 0 l 1,3,-1
 71 1147 l 1,4,-1
 283 1147 l 1,5,-1
 600 214 l 1,6,-1
 860 1147 l 1,7,-1
 860 1147 l 1,0,-1
EndSplineSet
EndChar

StartChar: w
Encoding: 119 119 88
Width: 1833
Flags: W
LayerCount: 2
Fore
SplineSet
1017 1147 m 1,0,-1
 1281 231 l 1,1,-1
 1496 1147 l 1,2,-1
 1712 1147 l 1,3,-1
 1406 0 l 1,4,-1
 1179 0 l 1,5,-1
 915 877 l 1,6,-1
 667 0 l 1,7,-1
 440 0 l 1,8,-1
 119 1147 l 1,9,-1
 335 1147 l 1,10,-1
 549 231 l 1,11,-1
 817 1147 l 1,12,-1
 1017 1147 l 1,13,-1
 1017 1147 l 1,0,-1
EndSplineSet
EndChar

StartChar: x
Encoding: 120 120 89
Width: 1300
Flags: W
LayerCount: 2
Fore
SplineSet
920 0 m 1,0,-1
 651 420 l 1,1,-1
 382 0 l 1,2,-1
 155 0 l 1,3,-1
 537 578 l 1,4,-1
 161 1147 l 1,5,-1
 387 1147 l 1,6,-1
 650 724 l 1,7,-1
 916 1147 l 1,8,-1
 1138 1147 l 1,9,-1
 768 578 l 1,10,-1
 1146 0 l 1,11,-1
 920 0 l 1,12,-1
 920 0 l 1,0,-1
EndSplineSet
EndChar

StartChar: y
Encoding: 121 121 90
Width: 1203
Flags: W
LayerCount: 2
Fore
SplineSet
657 259 m 1,0,-1
 920 1147 l 1,1,-1
 1145 1147 l 1,2,-1
 755 3 l 1,3,4
 737 -62 737 -62 721.5 -117.5 c 128,-1,5
 706 -173 706 -173 681.5 -213.5 c 128,-1,6
 657 -254 657 -254 617.5 -277 c 128,-1,7
 578 -300 578 -300 514 -300 c 0,8,9
 475 -300 475 -300 422.5 -291.5 c 128,-1,10
 370 -283 370 -283 323 -272 c 0,11,12
 268 -260 268 -260 209 -244 c 1,13,-1
 241 -101 l 1,14,15
 285 -112 285 -112 329.5 -121 c 128,-1,16
 374 -130 374 -130 409.5 -136 c 128,-1,17
 445 -142 445 -142 468 -145.5 c 128,-1,18
 491 -149 491 -149 493 -149 c 0,19,20
 509 -149 509 -149 520.5 -143 c 128,-1,21
 532 -137 532 -137 541 -121.5 c 128,-1,22
 550 -106 550 -106 557.5 -79.5 c 128,-1,23
 565 -53 565 -53 574 -11 c 1,24,-1
 502 185 l 1,25,26
 405 422 405 422 324 621 c 0,27,28
 289 705 289 705 255 789.5 c 128,-1,29
 221 874 221 874 192 946 c 128,-1,30
 163 1018 163 1018 142 1071 c 128,-1,31
 121 1124 121 1124 112 1147 c 1,32,-1
 328 1147 l 1,33,-1
 657 259 l 1,0,-1
EndSplineSet
EndChar

StartChar: z
Encoding: 122 122 91
Width: 1055
Flags: W
LayerCount: 2
Fore
SplineSet
187 1147 m 1,0,-1
 904 1147 l 1,1,-1
 904 1004 l 1,2,-1
 374 139 l 1,3,-1
 900 139 l 1,4,-1
 900 0 l 1,5,-1
 146 0 l 1,6,-1
 146 147 l 1,7,-1
 689 1004 l 1,8,-1
 187 1004 l 1,9,-1
 187 1147 l 1,10,-1
 187 1147 l 1,0,-1
EndSplineSet
EndChar

StartChar: braceleft
Encoding: 123 123 92
Width: 932
Flags: W
LayerCount: 2
Fore
SplineSet
374 758 m 1,0,1
 418 736 418 736 439.5 692 c 128,-1,2
 461 648 461 648 470.5 590 c 128,-1,3
 480 532 480 532 482 465 c 128,-1,4
 484 398 484 398 489.5 331.5 c 128,-1,5
 495 265 495 265 507.5 204 c 128,-1,6
 520 143 520 143 551 95.5 c 128,-1,7
 582 48 582 48 635.5 20 c 128,-1,8
 689 -8 689 -8 776 -8 c 1,9,-1
 776 -172 l 1,10,11
 661 -172 661 -172 580 -148.5 c 128,-1,12
 499 -125 499 -125 445 -85 c 128,-1,13
 391 -45 391 -45 359.5 8.5 c 128,-1,14
 328 62 328 62 310.5 122 c 128,-1,15
 293 182 293 182 286 246 c 128,-1,16
 279 310 279 310 274.5 370 c 128,-1,17
 270 430 270 430 263 483.5 c 128,-1,18
 256 537 256 537 239 577 c 128,-1,19
 222 617 222 617 191 640.5 c 128,-1,20
 160 664 160 664 107 664 c 1,21,-1
 107 858 l 1,22,23
 155 858 155 858 185 881.5 c 128,-1,24
 215 905 215 905 232.5 945 c 128,-1,25
 250 985 250 985 259.5 1038.5 c 128,-1,26
 269 1092 269 1092 277.5 1152 c 128,-1,27
 286 1212 286 1212 296.5 1276 c 128,-1,28
 307 1340 307 1340 326.5 1400 c 128,-1,29
 346 1460 346 1460 379 1513.5 c 128,-1,30
 412 1567 412 1567 464.5 1607 c 128,-1,31
 517 1647 517 1647 593 1670.5 c 128,-1,32
 669 1694 669 1694 775 1694 c 1,33,-1
 775 1530 l 1,34,35
 689 1530 689 1530 635.5 1502 c 128,-1,36
 582 1474 582 1474 551 1427.5 c 128,-1,37
 520 1381 520 1381 507.5 1320 c 128,-1,38
 495 1259 495 1259 490 1193 c 128,-1,39
 485 1127 485 1127 482.5 1060 c 128,-1,40
 480 993 480 993 471 934 c 128,-1,41
 462 875 462 875 440 829 c 128,-1,42
 418 783 418 783 374 758 c 1,0,1
EndSplineSet
EndChar

StartChar: bar
Encoding: 124 124 93
Width: 543
Flags: W
LayerCount: 2
Fore
SplineSet
371 1716 m 1,0,-1
 371 -98 l 1,1,-1
 175 -98 l 1,2,-1
 175 1716 l 1,3,-1
 371 1716 l 1,0,-1
EndSplineSet
EndChar

StartChar: braceright
Encoding: 125 125 94
Width: 932
Flags: W
LayerCount: 2
Fore
SplineSet
509 758 m 1,0,1
 465 783 465 783 443 829 c 128,-1,2
 421 875 421 875 412 934 c 128,-1,3
 403 993 403 993 400.5 1060 c 128,-1,4
 398 1127 398 1127 393 1193 c 128,-1,5
 388 1259 388 1259 375.5 1320 c 128,-1,6
 363 1381 363 1381 332 1427.5 c 128,-1,7
 301 1474 301 1474 247.5 1502 c 128,-1,8
 194 1530 194 1530 108 1530 c 1,9,-1
 108 1694 l 1,10,11
 214 1694 214 1694 290 1670.5 c 128,-1,12
 366 1647 366 1647 418.5 1607 c 128,-1,13
 471 1567 471 1567 504 1513.5 c 128,-1,14
 537 1460 537 1460 556.5 1400 c 128,-1,15
 576 1340 576 1340 586.5 1276 c 128,-1,16
 597 1212 597 1212 605.5 1152 c 128,-1,17
 614 1092 614 1092 623.5 1038.5 c 128,-1,18
 633 985 633 985 650.5 945 c 128,-1,19
 668 905 668 905 698 881.5 c 128,-1,20
 728 858 728 858 776 858 c 1,21,-1
 776 664 l 1,22,23
 723 664 723 664 692 640.5 c 128,-1,24
 661 617 661 617 644 577 c 128,-1,25
 627 537 627 537 620 483.5 c 128,-1,26
 613 430 613 430 608.5 370 c 128,-1,27
 604 310 604 310 597 246 c 128,-1,28
 590 182 590 182 572.5 122 c 128,-1,29
 555 62 555 62 523.5 8.5 c 128,-1,30
 492 -45 492 -45 438 -85 c 128,-1,31
 384 -125 384 -125 303 -148.5 c 128,-1,32
 222 -172 222 -172 107 -172 c 1,33,-1
 107 -8 l 1,34,35
 194 -8 194 -8 247.5 20 c 128,-1,36
 301 48 301 48 332 95.5 c 128,-1,37
 363 143 363 143 375.5 204 c 128,-1,38
 388 265 388 265 393.5 331.5 c 128,-1,39
 399 398 399 398 401 465 c 128,-1,40
 403 532 403 532 412.5 590 c 128,-1,41
 422 648 422 648 443.5 692 c 128,-1,42
 465 736 465 736 509 758 c 1,0,1
EndSplineSet
EndChar

StartChar: asciitilde
Encoding: 126 126 95
Width: 1648
Flags: W
LayerCount: 2
Fore
SplineSet
522 952 m 0,0,1
 495 952 495 952 472.5 943 c 128,-1,2
 450 934 450 934 432.5 923 c 128,-1,3
 415 912 415 912 402.5 903 c 128,-1,4
 390 894 390 894 383 894 c 0,5,6
 366 894 366 894 366 911 c 0,7,8
 366 920 366 920 373 930 c 0,9,10
 399 973 399 973 427 1008 c 128,-1,11
 455 1043 455 1043 487.5 1068 c 128,-1,12
 520 1093 520 1093 558 1106.5 c 128,-1,13
 596 1120 596 1120 641 1120 c 0,14,15
 703 1120 703 1120 770.5 1102 c 128,-1,16
 838 1084 838 1084 902.5 1062 c 128,-1,17
 967 1040 967 1040 1024 1022 c 128,-1,18
 1081 1004 1081 1004 1122 1004 c 0,19,20
 1149 1004 1149 1004 1171.5 1013.5 c 128,-1,21
 1194 1023 1194 1023 1211 1034.5 c 128,-1,22
 1228 1046 1228 1046 1240.5 1055.5 c 128,-1,23
 1253 1065 1253 1065 1261 1065 c 0,24,25
 1278 1065 1278 1065 1278 1048 c 0,26,27
 1278 1039 1278 1039 1271 1029 c 0,28,29
 1242 986 1242 986 1210.5 951 c 128,-1,30
 1179 916 1179 916 1143 891 c 128,-1,31
 1107 866 1107 866 1065 852.5 c 128,-1,32
 1023 839 1023 839 973 839 c 0,33,34
 928 839 928 839 873 856.5 c 128,-1,35
 818 874 818 874 758.5 895.5 c 128,-1,36
 699 917 699 917 638.5 934.5 c 128,-1,37
 578 952 578 952 522 952 c 0,0,1
EndSplineSet
EndChar

StartChar: exclamdown
Encoding: 161 161 96
Width: 815
Flags: W
LayerCount: 2
Fore
SplineSet
534 117 m 0,0,1
 534 88 534 88 526 60 c 128,-1,2
 518 32 518 32 501.5 10 c 128,-1,3
 485 -12 485 -12 460.5 -25 c 128,-1,4
 436 -38 436 -38 404 -38 c 0,5,6
 373 -38 373 -38 350.5 -24 c 128,-1,7
 328 -10 328 -10 313 11.5 c 128,-1,8
 298 33 298 33 290.5 60.5 c 128,-1,9
 283 88 283 88 283 115 c 0,10,11
 283 133 283 133 286 176.5 c 128,-1,12
 289 220 289 220 294 280 c 128,-1,13
 299 340 299 340 305.5 411 c 128,-1,14
 312 482 312 482 319.5 554.5 c 128,-1,15
 327 627 327 627 334.5 696 c 128,-1,16
 342 765 342 765 349 820.5 c 128,-1,17
 356 876 356 876 362 913.5 c 128,-1,18
 368 951 368 951 372 960 c 0,19,20
 375 968 375 968 385.5 979.5 c 128,-1,21
 396 991 396 991 406 991 c 0,22,23
 420 991 420 991 427.5 981 c 128,-1,24
 435 971 435 971 439 960 c 0,25,26
 444 945 444 945 450.5 905 c 128,-1,27
 457 865 457 865 464.5 809.5 c 128,-1,28
 472 754 472 754 480.5 686.5 c 128,-1,29
 489 619 489 619 496.5 548.5 c 128,-1,30
 504 478 504 478 511 409.5 c 128,-1,31
 518 341 518 341 523 282.5 c 128,-1,32
 528 224 528 224 531 180.5 c 128,-1,33
 534 137 534 137 534 117 c 0,0,1
406 1556 m 256,34,35
 440 1556 440 1556 470.5 1545 c 128,-1,36
 501 1534 501 1534 523.5 1513.5 c 128,-1,37
 546 1493 546 1493 559 1464 c 128,-1,38
 572 1435 572 1435 572 1400 c 256,39,40
 572 1365 572 1365 559 1336 c 128,-1,41
 546 1307 546 1307 523.5 1286.5 c 128,-1,42
 501 1266 501 1266 470.5 1255 c 128,-1,43
 440 1244 440 1244 406 1244 c 256,44,45
 372 1244 372 1244 342 1255.5 c 128,-1,46
 312 1267 312 1267 290 1287.5 c 128,-1,47
 268 1308 268 1308 255 1336.5 c 128,-1,48
 242 1365 242 1365 242 1400 c 256,49,50
 242 1435 242 1435 255 1463.5 c 128,-1,51
 268 1492 268 1492 290 1512.5 c 128,-1,52
 312 1533 312 1533 342 1544.5 c 128,-1,53
 372 1556 372 1556 406 1556 c 256,34,35
EndSplineSet
EndChar

StartChar: cent
Encoding: 162 162 97
Width: 1104
Flags: W
LayerCount: 2
Fore
SplineSet
546 1505 m 1,0,-1
 629 1505 l 1,1,-1
 629 -72 l 1,2,-1
 546 -72 l 1,3,-1
 546 1505 l 1,0,-1
845 906 m 1,4,-1
 845 940 l 2,5,6
 845 1022 845 1022 841 1066 c 128,-1,7
 837 1110 837 1110 813.5 1130.5 c 128,-1,8
 790 1151 790 1151 738.5 1154.5 c 128,-1,9
 687 1158 687 1158 593 1158 c 0,10,11
 523 1158 523 1158 474.5 1157 c 128,-1,12
 426 1156 426 1156 394.5 1150 c 128,-1,13
 363 1144 363 1144 346 1131 c 128,-1,14
 329 1118 329 1118 321.5 1093.5 c 128,-1,15
 314 1069 314 1069 312.5 1031.5 c 128,-1,16
 311 994 311 994 311 940 c 2,17,-1
 311 483 l 2,18,19
 311 432 311 432 312.5 397 c 128,-1,20
 314 362 314 362 321.5 339.5 c 128,-1,21
 329 317 329 317 346 304.5 c 128,-1,22
 363 292 363 292 394.5 286.5 c 128,-1,23
 426 281 426 281 474 280 c 128,-1,24
 522 279 522 279 593 279 c 0,25,26
 656 279 656 279 699 280 c 128,-1,27
 742 281 742 281 770 286.5 c 128,-1,28
 798 292 798 292 813.5 304.5 c 128,-1,29
 829 317 829 317 836 339.5 c 128,-1,30
 843 362 843 362 844 397 c 128,-1,31
 845 432 845 432 845 483 c 2,32,-1
 845 515 l 1,33,-1
 1054 515 l 1,34,-1
 1054 499 l 2,35,36
 1054 391 1054 391 1036 318 c 128,-1,37
 1018 245 1018 245 968 200.5 c 128,-1,38
 918 156 918 156 828 136.5 c 128,-1,39
 738 117 738 117 593 117 c 0,40,41
 436 117 436 117 338.5 136.5 c 128,-1,42
 241 156 241 156 186.5 200.5 c 128,-1,43
 132 245 132 245 113 318 c 128,-1,44
 94 391 94 391 94 499 c 2,45,-1
 94 938 l 2,46,47
 94 1046 94 1046 113.5 1119 c 128,-1,48
 133 1192 133 1192 188 1236.5 c 128,-1,49
 243 1281 243 1281 340.5 1300.5 c 128,-1,50
 438 1320 438 1320 593 1320 c 0,51,52
 736 1320 736 1320 826 1300.5 c 128,-1,53
 916 1281 916 1281 966.5 1236 c 128,-1,54
 1017 1191 1017 1191 1035.5 1118 c 128,-1,55
 1054 1045 1054 1045 1054 938 c 2,56,-1
 1054 906 l 1,57,-1
 845 906 l 1,4,-1
EndSplineSet
EndChar

StartChar: sterling
Encoding: 163 163 98
Width: 1820
Flags: W
LayerCount: 2
Fore
SplineSet
149 222 m 1,0,1
 176 219 176 219 205.5 227 c 128,-1,2
 235 235 235 235 259.5 252.5 c 128,-1,3
 284 270 284 270 299.5 294.5 c 128,-1,4
 315 319 315 319 315 348 c 2,5,-1
 315 724 l 1,6,-1
 151 724 l 1,7,-1
 151 882 l 1,8,-1
 315 882 l 1,9,10
 315 1032 315 1032 323 1140.5 c 128,-1,11
 331 1249 331 1249 354 1324 c 128,-1,12
 377 1399 377 1399 419.5 1444.5 c 128,-1,13
 462 1490 462 1490 532 1515 c 128,-1,14
 602 1540 602 1540 702 1548.5 c 128,-1,15
 802 1557 802 1557 941 1557 c 0,16,17
 1001 1557 1001 1557 1067 1555 c 128,-1,18
 1133 1553 1133 1553 1196 1545 c 128,-1,19
 1259 1537 1259 1537 1316 1520 c 128,-1,20
 1373 1503 1373 1503 1415.5 1472 c 128,-1,21
 1458 1441 1458 1441 1483.5 1394 c 128,-1,22
 1509 1347 1509 1347 1509 1280 c 2,23,-1
 1509 1046 l 1,24,-1
 1304 1046 l 1,25,26
 1304 1129 1304 1129 1302.5 1185.5 c 128,-1,27
 1301 1242 1301 1242 1291 1278 c 128,-1,28
 1281 1314 1281 1314 1259.5 1333.5 c 128,-1,29
 1238 1353 1238 1353 1198 1362 c 128,-1,30
 1158 1371 1158 1371 1096.5 1372 c 128,-1,31
 1035 1373 1035 1373 945 1373 c 0,32,33
 843 1373 843 1373 773 1370.5 c 128,-1,34
 703 1368 703 1368 657.5 1354.5 c 128,-1,35
 612 1341 612 1341 587.5 1311.5 c 128,-1,36
 563 1282 563 1282 551.5 1227.5 c 128,-1,37
 540 1173 540 1173 538 1088.5 c 128,-1,38
 536 1004 536 1004 536 881 c 1,39,-1
 1198 881 l 1,40,-1
 1198 723 l 1,41,-1
 536 723 l 1,42,-1
 536 174 l 1,43,-1
 1327 174 l 1,44,-1
 1327 510 l 1,45,-1
 1530 510 l 1,46,47
 1530 372 1530 372 1520.5 275 c 128,-1,48
 1511 178 1511 178 1473 117 c 128,-1,49
 1435 56 1435 56 1359.5 28 c 128,-1,50
 1284 0 1284 0 1152 0 c 0,51,52
 1098 0 1098 0 1054 4 c 128,-1,53
 1010 8 1010 8 971.5 21 c 128,-1,54
 933 34 933 34 897.5 58 c 128,-1,55
 862 82 862 82 825 122 c 1,56,57
 780 73 780 73 727 47.5 c 128,-1,58
 674 22 674 22 617.5 11.5 c 128,-1,59
 561 1 561 1 502 0.5 c 128,-1,60
 443 0 443 0 385 0 c 2,61,-1
 149 0 l 1,62,-1
 149 222 l 1,63,-1
 149 222 l 1,0,1
EndSplineSet
EndChar

StartChar: currency
Encoding: 164 164 99
Width: 1625
Flags: W
LayerCount: 2
Fore
SplineSet
317 764 m 256,0,1
 317 867 317 867 347.5 955.5 c 128,-1,2
 378 1044 378 1044 447 1110 c 1,3,-1
 293 1281 l 1,4,-1
 363 1351 l 1,5,-1
 527 1170 l 1,6,7
 581 1203 581 1203 651.5 1221 c 128,-1,8
 722 1239 722 1239 812 1239 c 0,9,10
 899 1239 899 1239 968 1222 c 128,-1,11
 1037 1205 1037 1205 1090 1173 c 1,12,-1
 1256 1350 l 1,13,-1
 1328 1280 l 1,14,-1
 1175 1111 l 1,15,16
 1244 1045 1244 1045 1275.5 956 c 128,-1,17
 1307 867 1307 867 1307 764 c 256,18,19
 1307 661 1307 661 1275.5 572 c 128,-1,20
 1244 483 1244 483 1175 417 c 1,21,-1
 1329 247 l 1,22,-1
 1257 178 l 1,23,-1
 1094 357 l 1,24,25
 1040 325 1040 325 970 307 c 128,-1,26
 900 289 900 289 812 289 c 0,27,28
 721 289 721 289 650.5 307 c 128,-1,29
 580 325 580 325 526 358 c 1,30,-1
 362 178 l 1,31,-1
 292 247 l 1,32,-1
 447 417 l 1,33,34
 378 483 378 483 347.5 572 c 128,-1,35
 317 661 317 661 317 764 c 256,0,1
435 773 m 0,36,37
 435 682 435 682 456 613.5 c 128,-1,38
 477 545 477 545 522 499 c 128,-1,39
 567 453 567 453 638.5 430 c 128,-1,40
 710 407 710 407 811 407 c 256,41,42
 912 407 912 407 983.5 430 c 128,-1,43
 1055 453 1055 453 1100.5 499 c 128,-1,44
 1146 545 1146 545 1167 613.5 c 128,-1,45
 1188 682 1188 682 1188 773 c 0,46,47
 1188 863 1188 863 1167 931.5 c 128,-1,48
 1146 1000 1146 1000 1100.5 1046 c 128,-1,49
 1055 1092 1055 1092 983.5 1115 c 128,-1,50
 912 1138 912 1138 811 1138 c 256,51,52
 710 1138 710 1138 638.5 1115 c 128,-1,53
 567 1092 567 1092 522 1046 c 128,-1,54
 477 1000 477 1000 456 931.5 c 128,-1,55
 435 863 435 863 435 773 c 0,36,37
EndSplineSet
EndChar

StartChar: yen
Encoding: 165 165 100
Width: 1389
Flags: W
LayerCount: 2
Fore
SplineSet
227 672 m 1,0,-1
 1143 672 l 1,1,-1
 1143 572 l 1,2,-1
 227 572 l 1,3,-1
 227 672 l 1,0,-1
1143 293 m 1,4,-1
 227 293 l 1,5,-1
 227 394 l 1,6,-1
 1143 394 l 1,7,-1
 1143 293 l 1,4,-1
114 1499 m 1,8,-1
 350 1499 l 1,9,-1
 697 717 l 1,10,-1
 1051 1499 l 1,11,-1
 1277 1499 l 1,12,-1
 802 510 l 1,13,-1
 802 0 l 1,14,-1
 581 0 l 1,15,-1
 581 510 l 1,16,-1
 114 1499 l 1,8,-1
EndSplineSet
EndChar

StartChar: brokenbar
Encoding: 166 166 101
Width: 943
Flags: W
LayerCount: 2
Fore
SplineSet
608 563 m 1,0,-1
 608 -249 l 1,1,-1
 399 -249 l 1,2,-1
 399 563 l 1,3,-1
 608 563 l 1,0,-1
608 1631 m 1,4,-1
 608 819 l 1,5,-1
 399 819 l 1,6,-1
 399 1631 l 1,7,-1
 608 1631 l 1,4,-1
EndSplineSet
EndChar

StartChar: section
Encoding: 167 167 102
Width: 1231
Flags: W
LayerCount: 2
Fore
SplineSet
231 702 m 0,0,1
 231 801 231 801 259.5 862.5 c 128,-1,2
 288 924 288 924 339 960 c 1,3,4
 292 998 292 998 263 1068 c 128,-1,5
 234 1138 234 1138 234 1254 c 0,6,7
 234 1360 234 1360 264.5 1424.5 c 128,-1,8
 295 1489 295 1489 348.5 1523.5 c 128,-1,9
 402 1558 402 1558 475 1569 c 128,-1,10
 548 1580 548 1580 633 1580 c 0,11,12
 737 1580 737 1580 821 1570 c 128,-1,13
 905 1560 905 1560 963.5 1524.5 c 128,-1,14
 1022 1489 1022 1489 1053.5 1419.5 c 128,-1,15
 1085 1350 1085 1350 1085 1230 c 1,16,-1
 893 1230 l 1,17,18
 893 1311 893 1311 880 1355.5 c 128,-1,19
 867 1400 867 1400 837 1421 c 128,-1,20
 807 1442 807 1442 757 1445.5 c 128,-1,21
 707 1449 707 1449 633 1449 c 0,22,23
 573 1449 573 1449 533.5 1443 c 128,-1,24
 494 1437 494 1437 470 1417 c 128,-1,25
 446 1397 446 1397 436.5 1358 c 128,-1,26
 427 1319 427 1319 427 1252 c 0,27,28
 427 1195 427 1195 431 1159 c 128,-1,29
 435 1123 435 1123 445 1101 c 128,-1,30
 455 1079 455 1079 472 1067.5 c 128,-1,31
 489 1056 489 1056 514.5 1050 c 128,-1,32
 540 1044 540 1044 575 1039 c 128,-1,33
 610 1034 610 1034 657 1025 c 1,34,35
 720 1011 720 1011 776 1001.5 c 128,-1,36
 832 992 832 992 879 979.5 c 128,-1,37
 926 967 926 967 963 948.5 c 128,-1,38
 1000 930 1000 930 1026 898 c 128,-1,39
 1052 866 1052 866 1065.5 817 c 128,-1,40
 1079 768 1079 768 1079 695 c 0,41,42
 1079 604 1079 604 1049 546.5 c 128,-1,43
 1019 489 1019 489 965 456 c 1,44,45
 990 436 990 436 1010.5 409 c 128,-1,46
 1031 382 1031 382 1045.5 345.5 c 128,-1,47
 1060 309 1060 309 1068 261 c 128,-1,48
 1076 213 1076 213 1076 152 c 0,49,50
 1076 46 1076 46 1045 -18 c 128,-1,51
 1014 -82 1014 -82 959 -116.5 c 128,-1,52
 904 -151 904 -151 829 -162 c 128,-1,53
 754 -173 754 -173 667 -173 c 0,54,55
 563 -173 563 -173 479 -163 c 128,-1,56
 395 -153 395 -153 336.5 -117.5 c 128,-1,57
 278 -82 278 -82 246.5 -12.5 c 128,-1,58
 215 57 215 57 215 177 c 1,59,-1
 407 177 l 1,60,61
 407 95 407 95 420 50.5 c 128,-1,62
 433 6 433 6 463.5 -15 c 128,-1,63
 494 -36 494 -36 545 -39.5 c 128,-1,64
 596 -43 596 -43 672 -43 c 0,65,66
 733 -43 733 -43 774 -37 c 128,-1,67
 815 -31 815 -31 839 -10 c 128,-1,68
 863 11 863 11 873 50.5 c 128,-1,69
 883 90 883 90 883 156 c 0,70,71
 883 240 883 240 865 283 c 128,-1,72
 847 326 847 326 814.5 345 c 128,-1,73
 782 364 782 364 738 369 c 128,-1,74
 694 374 694 374 643 382 c 1,75,76
 591 389 591 389 540 396 c 128,-1,77
 489 403 489 403 443.5 415 c 128,-1,78
 398 427 398 427 359 447 c 128,-1,79
 320 467 320 467 291.5 500 c 128,-1,80
 263 533 263 533 247 582 c 128,-1,81
 231 631 231 631 231 702 c 0,0,1
429 729 m 0,82,83
 429 678 429 678 436.5 645 c 128,-1,84
 444 612 444 612 462.5 591 c 128,-1,85
 481 570 481 570 512 558.5 c 128,-1,86
 543 547 543 547 589.5 539.5 c 128,-1,87
 636 532 636 532 699.5 526 c 128,-1,88
 763 520 763 520 847 510 c 1,89,90
 856 520 856 520 864 538 c 0,91,92
 870 553 870 553 875.5 577.5 c 128,-1,93
 881 602 881 602 881 638 c 0,94,95
 881 701 881 701 875 738.5 c 128,-1,96
 869 776 869 776 852.5 798 c 128,-1,97
 836 820 836 820 806.5 830.5 c 128,-1,98
 777 841 777 841 730 850 c 128,-1,99
 683 859 683 859 615.5 870.5 c 128,-1,100
 548 882 548 882 456 906 c 1,101,102
 448 878 448 878 442 848 c 0,103,104
 437 822 437 822 433 791 c 128,-1,105
 429 760 429 760 429 729 c 0,82,83
EndSplineSet
EndChar

StartChar: dieresis
Encoding: 168 168 103
Width: 1530
Flags: W
LayerCount: 2
Fore
SplineSet
642 370 m 1,0,-1
 642 80 l 1,1,-1
 175 80 l 1,2,-1
 175 370 l 1,3,-1
 642 370 l 1,0,-1
1355 370 m 1,4,-1
 1355 80 l 1,5,-1
 885 80 l 1,6,-1
 885 370 l 1,7,-1
 1355 370 l 1,4,-1
EndSplineSet
EndChar

StartChar: copyright
Encoding: 169 169 104
Width: 2087
Flags: W
LayerCount: 2
Fore
SplineSet
213 858 m 256,0,1
 213 758 213 758 239 665 c 128,-1,2
 265 572 265 572 312.5 491.5 c 128,-1,3
 360 411 360 411 426.5 344.5 c 128,-1,4
 493 278 493 278 573.5 230.5 c 128,-1,5
 654 183 654 183 747 157 c 128,-1,6
 840 131 840 131 940 131 c 256,7,8
 1040 131 1040 131 1133 157 c 128,-1,9
 1226 183 1226 183 1306.5 230.5 c 128,-1,10
 1387 278 1387 278 1453.5 344.5 c 128,-1,11
 1520 411 1520 411 1567.5 491.5 c 128,-1,12
 1615 572 1615 572 1641 665 c 128,-1,13
 1667 758 1667 758 1667 858 c 256,14,15
 1667 958 1667 958 1641 1051 c 128,-1,16
 1615 1144 1615 1144 1567.5 1224.5 c 128,-1,17
 1520 1305 1520 1305 1453.5 1371.5 c 128,-1,18
 1387 1438 1387 1438 1306.5 1485.5 c 128,-1,19
 1226 1533 1226 1533 1133 1559 c 128,-1,20
 1040 1585 1040 1585 940 1585 c 256,21,22
 840 1585 840 1585 747 1559 c 128,-1,23
 654 1533 654 1533 573.5 1485.5 c 128,-1,24
 493 1438 493 1438 426.5 1371.5 c 128,-1,25
 360 1305 360 1305 312.5 1224.5 c 128,-1,26
 265 1144 265 1144 239 1051 c 128,-1,27
 213 958 213 958 213 858 c 256,0,1
125 858 m 0,28,29
 125 970 125 970 154 1074.5 c 128,-1,30
 183 1179 183 1179 236 1269.5 c 128,-1,31
 289 1360 289 1360 363.5 1434.5 c 128,-1,32
 438 1509 438 1509 528.5 1562 c 128,-1,33
 619 1615 619 1615 723 1644 c 128,-1,34
 827 1673 827 1673 940 1673 c 256,35,36
 1053 1673 1053 1673 1157 1644 c 128,-1,37
 1261 1615 1261 1615 1351.5 1562 c 128,-1,38
 1442 1509 1442 1509 1516.5 1434.5 c 128,-1,39
 1591 1360 1591 1360 1644 1269.5 c 128,-1,40
 1697 1179 1697 1179 1726 1074.5 c 128,-1,41
 1755 970 1755 970 1755 858 c 256,42,43
 1755 746 1755 746 1726 641.5 c 128,-1,44
 1697 537 1697 537 1644 446.5 c 128,-1,45
 1591 356 1591 356 1516.5 281.5 c 128,-1,46
 1442 207 1442 207 1351.5 154 c 128,-1,47
 1261 101 1261 101 1156.5 72 c 128,-1,48
 1052 43 1052 43 940 43 c 256,49,50
 828 43 828 43 723.5 72 c 128,-1,51
 619 101 619 101 528.5 154 c 128,-1,52
 438 207 438 207 363.5 281.5 c 128,-1,53
 289 356 289 356 236 446.5 c 128,-1,54
 183 537 183 537 154 641 c 128,-1,55
 125 745 125 745 125 858 c 0,28,29
1363 725 m 1,56,57
 1363 625 1363 625 1354.5 555.5 c 128,-1,58
 1346 486 1346 486 1326 439.5 c 128,-1,59
 1306 393 1306 393 1274.5 366.5 c 128,-1,60
 1243 340 1243 340 1196.5 327 c 128,-1,61
 1150 314 1150 314 1088.5 310.5 c 128,-1,62
 1027 307 1027 307 948 307 c 0,63,64
 860 307 860 307 792 311 c 128,-1,65
 724 315 724 315 673 329.5 c 128,-1,66
 622 344 622 344 587 373.5 c 128,-1,67
 552 403 552 403 530.5 454.5 c 128,-1,68
 509 506 509 506 499.5 582.5 c 128,-1,69
 490 659 490 659 490 769 c 2,70,-1
 490 946 l 2,71,72
 490 1055 490 1055 499.5 1132 c 128,-1,73
 509 1209 509 1209 530.5 1260.5 c 128,-1,74
 552 1312 552 1312 587 1341.5 c 128,-1,75
 622 1371 622 1371 673 1385.5 c 128,-1,76
 724 1400 724 1400 792 1404 c 128,-1,77
 860 1408 860 1408 948 1408 c 0,78,79
 1027 1408 1027 1408 1088.5 1404.5 c 128,-1,80
 1150 1401 1150 1401 1196.5 1387.5 c 128,-1,81
 1243 1374 1243 1374 1274.5 1347.5 c 128,-1,82
 1306 1321 1306 1321 1326 1274.5 c 128,-1,83
 1346 1228 1346 1228 1354.5 1158.5 c 128,-1,84
 1363 1089 1363 1089 1363 990 c 1,85,-1
 1208 990 l 1,86,87
 1208 1066 1208 1066 1206.5 1118 c 128,-1,88
 1205 1170 1205 1170 1197.5 1203.5 c 128,-1,89
 1190 1237 1190 1237 1174.5 1255 c 128,-1,90
 1159 1273 1159 1273 1130 1281.5 c 128,-1,91
 1101 1290 1101 1290 1056.5 1291.5 c 128,-1,92
 1012 1293 1012 1293 948 1293 c 0,93,94
 874 1293 874 1293 824 1291.5 c 128,-1,95
 774 1290 774 1290 741 1280.5 c 128,-1,96
 708 1271 708 1271 690.5 1250 c 128,-1,97
 673 1229 673 1229 664.5 1190.5 c 128,-1,98
 656 1152 656 1152 654 1092.5 c 128,-1,99
 652 1033 652 1033 652 946 c 2,100,-1
 652 769 l 2,101,102
 652 682 652 682 654 622.5 c 128,-1,103
 656 563 656 563 664.5 524.5 c 128,-1,104
 673 486 673 486 690.5 465 c 128,-1,105
 708 444 708 444 741 434.5 c 128,-1,106
 774 425 774 425 824 423.5 c 128,-1,107
 874 422 874 422 948 422 c 0,108,109
 1012 422 1012 422 1056.5 423.5 c 128,-1,110
 1101 425 1101 425 1130 433.5 c 128,-1,111
 1159 442 1159 442 1174.5 460 c 128,-1,112
 1190 478 1190 478 1197.5 511.5 c 128,-1,113
 1205 545 1205 545 1206.5 597 c 128,-1,114
 1208 649 1208 649 1208 725 c 1,115,-1
 1363 725 l 1,56,57
EndSplineSet
EndChar

StartChar: guillemotleft
Encoding: 171 171 106
Width: 1849
Flags: W
LayerCount: 2
Fore
SplineSet
542 716 m 1,0,-1
 909 316 l 1,1,2
 920 297 920 297 927.5 280 c 128,-1,3
 935 263 935 263 935 245 c 0,4,5
 935 218 935 218 916.5 198 c 128,-1,6
 898 178 898 178 866 178 c 0,7,8
 849 178 849 178 830.5 183 c 128,-1,9
 812 188 812 188 795 202 c 2,10,-1
 368 574 l 2,11,12
 336 602 336 602 319 639.5 c 128,-1,13
 302 677 302 677 302 717 c 0,14,15
 302 755 302 755 318.5 792 c 128,-1,16
 335 829 335 829 368 858 c 2,17,-1
 795 1229 l 1,18,19
 816 1243 816 1243 832 1248.5 c 128,-1,20
 848 1254 848 1254 866 1254 c 0,21,22
 898 1254 898 1254 916.5 1233.5 c 128,-1,23
 935 1213 935 1213 935 1187 c 0,24,25
 935 1169 935 1169 927.5 1152.5 c 128,-1,26
 920 1136 920 1136 909 1116 c 1,27,-1
 542 716 l 1,0,-1
1093 716 m 1,28,-1
 1460 316 l 1,29,30
 1471 297 1471 297 1478.5 280 c 128,-1,31
 1486 263 1486 263 1486 245 c 0,32,33
 1486 218 1486 218 1467.5 198 c 128,-1,34
 1449 178 1449 178 1417 178 c 0,35,36
 1400 178 1400 178 1381.5 183 c 128,-1,37
 1363 188 1363 188 1346 202 c 2,38,-1
 919 574 l 2,39,40
 886 603 886 603 869 640 c 128,-1,41
 852 677 852 677 852 716 c 256,42,43
 852 755 852 755 868.5 792 c 128,-1,44
 885 829 885 829 919 858 c 2,45,-1
 1346 1229 l 1,46,47
 1367 1243 1367 1243 1383 1248.5 c 128,-1,48
 1399 1254 1399 1254 1417 1254 c 0,49,50
 1449 1254 1449 1254 1467.5 1233.5 c 128,-1,51
 1486 1213 1486 1213 1486 1187 c 0,52,53
 1486 1169 1486 1169 1478.5 1152.5 c 128,-1,54
 1471 1136 1471 1136 1460 1116 c 1,55,-1
 1093 716 l 1,28,-1
EndSplineSet
EndChar

StartChar: logicalnot
Encoding: 172 172 107
Width: 1390
Flags: W
LayerCount: 2
Fore
SplineSet
1215 294 m 1,0,-1
 978 294 l 1,1,-1
 978 773 l 1,2,-1
 75 773 l 1,3,-1
 75 1042 l 1,4,-1
 1215 1042 l 1,5,-1
 1215 294 l 1,6,-1
 1215 294 l 1,0,-1
EndSplineSet
EndChar

StartChar: uni00AD
Encoding: 173 173 108
Width: 1217
Flags: W
LayerCount: 2
Fore
SplineSet
1042 838 m 1,0,-1
 1042 549 l 1,1,-1
 175 549 l 1,2,-1
 175 838 l 1,3,-1
 1042 838 l 1,4,-1
 1042 838 l 1,0,-1
EndSplineSet
EndChar

StartChar: registered
Encoding: 174 174 109
Width: 2087
Flags: W
LayerCount: 2
Fore
SplineSet
732 322 m 1,0,-1
 571 322 l 1,1,-1
 571 1395 l 1,2,-1
 943 1395 l 2,3,4
 1024 1395 1024 1395 1097 1389 c 128,-1,5
 1170 1383 1170 1383 1225.5 1357 c 128,-1,6
 1281 1331 1281 1331 1313.5 1278.5 c 128,-1,7
 1346 1226 1346 1226 1346 1132 c 0,8,9
 1346 1075 1346 1075 1339 1026 c 128,-1,10
 1332 977 1332 977 1311 940 c 128,-1,11
 1290 903 1290 903 1251.5 880.5 c 128,-1,12
 1213 858 1213 858 1150 853 c 1,13,14
 1196 851 1196 851 1231 836.5 c 128,-1,15
 1266 822 1266 822 1290 798 c 128,-1,16
 1314 774 1314 774 1326.5 742 c 128,-1,17
 1339 710 1339 710 1339 674 c 2,18,-1
 1339 323 l 1,19,-1
 1180 323 l 1,20,-1
 1180 629 l 2,21,22
 1180 690 1180 690 1173 723 c 128,-1,23
 1166 756 1166 756 1148 771 c 128,-1,24
 1130 786 1130 786 1098 788.5 c 128,-1,25
 1066 791 1066 791 1016 791 c 2,26,-1
 732 791 l 1,27,-1
 732 322 l 1,0,-1
943 900 m 2,28,29
 1018 900 1018 900 1065.5 905.5 c 128,-1,30
 1113 911 1113 911 1139.5 933.5 c 128,-1,31
 1166 956 1166 956 1176 1001.5 c 128,-1,32
 1186 1047 1186 1047 1186 1126 c 0,33,34
 1186 1181 1186 1181 1171 1212.5 c 128,-1,35
 1156 1244 1156 1244 1125.5 1259 c 128,-1,36
 1095 1274 1095 1274 1049 1277.5 c 128,-1,37
 1003 1281 1003 1281 941 1281 c 2,38,-1
 732 1281 l 1,39,-1
 732 900 l 1,40,-1
 943 900 l 2,28,29
213 858 m 256,41,42
 213 758 213 758 239 665 c 128,-1,43
 265 572 265 572 312.5 491.5 c 128,-1,44
 360 411 360 411 426.5 344.5 c 128,-1,45
 493 278 493 278 573.5 230.5 c 128,-1,46
 654 183 654 183 747 157 c 128,-1,47
 840 131 840 131 940 131 c 256,48,49
 1040 131 1040 131 1133 157 c 128,-1,50
 1226 183 1226 183 1306.5 230.5 c 128,-1,51
 1387 278 1387 278 1453.5 344.5 c 128,-1,52
 1520 411 1520 411 1567.5 491.5 c 128,-1,53
 1615 572 1615 572 1641 665 c 128,-1,54
 1667 758 1667 758 1667 858 c 256,55,56
 1667 958 1667 958 1641 1051 c 128,-1,57
 1615 1144 1615 1144 1567.5 1224.5 c 128,-1,58
 1520 1305 1520 1305 1453.5 1371.5 c 128,-1,59
 1387 1438 1387 1438 1306.5 1485.5 c 128,-1,60
 1226 1533 1226 1533 1133 1559 c 128,-1,61
 1040 1585 1040 1585 940 1585 c 256,62,63
 840 1585 840 1585 747 1559 c 128,-1,64
 654 1533 654 1533 573.5 1485.5 c 128,-1,65
 493 1438 493 1438 426.5 1371.5 c 128,-1,66
 360 1305 360 1305 312.5 1224.5 c 128,-1,67
 265 1144 265 1144 239 1051 c 128,-1,68
 213 958 213 958 213 858 c 256,41,42
125 858 m 0,69,70
 125 970 125 970 154 1074.5 c 128,-1,71
 183 1179 183 1179 236 1269.5 c 128,-1,72
 289 1360 289 1360 363.5 1434.5 c 128,-1,73
 438 1509 438 1509 528.5 1562 c 128,-1,74
 619 1615 619 1615 723 1644 c 128,-1,75
 827 1673 827 1673 940 1673 c 256,76,77
 1053 1673 1053 1673 1157 1644 c 128,-1,78
 1261 1615 1261 1615 1351.5 1562 c 128,-1,79
 1442 1509 1442 1509 1516.5 1434.5 c 128,-1,80
 1591 1360 1591 1360 1644 1269.5 c 128,-1,81
 1697 1179 1697 1179 1726 1074.5 c 128,-1,82
 1755 970 1755 970 1755 858 c 256,83,84
 1755 746 1755 746 1726 641.5 c 128,-1,85
 1697 537 1697 537 1644 446.5 c 128,-1,86
 1591 356 1591 356 1516.5 281.5 c 128,-1,87
 1442 207 1442 207 1351.5 154 c 128,-1,88
 1261 101 1261 101 1156.5 72 c 128,-1,89
 1052 43 1052 43 940 43 c 256,90,91
 828 43 828 43 723.5 72 c 128,-1,92
 619 101 619 101 528.5 154 c 128,-1,93
 438 207 438 207 363.5 281.5 c 128,-1,94
 289 356 289 356 236 446.5 c 128,-1,95
 183 537 183 537 154 641 c 128,-1,96
 125 745 125 745 125 858 c 0,69,70
EndSplineSet
EndChar

StartChar: macron
Encoding: 175 175 110
Width: 1217
Flags: W
LayerCount: 2
Fore
SplineSet
1042 838 m 1,0,-1
 1042 651 l 1,1,-1
 175 651 l 1,2,-1
 175 838 l 1,3,-1
 1042 838 l 1,4,-1
 1042 838 l 1,0,-1
EndSplineSet
EndChar

StartChar: degree
Encoding: 176 176 111
Width: 979
Flags: W
LayerCount: 2
Fore
SplineSet
145 1321 m 256,0,1
 145 1389 145 1389 176 1441 c 128,-1,2
 207 1493 207 1493 256.5 1527.5 c 128,-1,3
 306 1562 306 1562 367.5 1579.5 c 128,-1,4
 429 1597 429 1597 489 1597 c 0,5,6
 550 1597 550 1597 611.5 1579.5 c 128,-1,7
 673 1562 673 1562 722.5 1527.5 c 128,-1,8
 772 1493 772 1493 803 1441.5 c 128,-1,9
 834 1390 834 1390 834 1321 c 256,10,11
 834 1252 834 1252 802.5 1200.5 c 128,-1,12
 771 1149 771 1149 721.5 1114.5 c 128,-1,13
 672 1080 672 1080 610.5 1063 c 128,-1,14
 549 1046 549 1046 489 1046 c 256,15,16
 429 1046 429 1046 367.5 1063.5 c 128,-1,17
 306 1081 306 1081 256.5 1115.5 c 128,-1,18
 207 1150 207 1150 176 1201.5 c 128,-1,19
 145 1253 145 1253 145 1321 c 256,0,1
637 1321 m 256,20,21
 637 1354 637 1354 627 1384 c 128,-1,22
 617 1414 617 1414 598 1436.5 c 128,-1,23
 579 1459 579 1459 551.5 1472.5 c 128,-1,24
 524 1486 524 1486 489 1486 c 256,25,26
 454 1486 454 1486 427 1472.5 c 128,-1,27
 400 1459 400 1459 381.5 1436 c 128,-1,28
 363 1413 363 1413 353.5 1383.5 c 128,-1,29
 344 1354 344 1354 344 1321 c 256,30,31
 344 1288 344 1288 353.5 1258 c 128,-1,32
 363 1228 363 1228 381.5 1205 c 128,-1,33
 400 1182 400 1182 427 1168.5 c 128,-1,34
 454 1155 454 1155 489 1155 c 256,35,36
 524 1155 524 1155 551.5 1168.5 c 128,-1,37
 579 1182 579 1182 598 1204.5 c 128,-1,38
 617 1227 617 1227 627 1257.5 c 128,-1,39
 637 1288 637 1288 637 1321 c 256,20,21
EndSplineSet
EndChar

StartChar: plusminus
Encoding: 177 177 112
Width: 1373
Flags: W
LayerCount: 2
Fore
SplineSet
723 1117 m 1,0,-1
 723 754 l 1,1,-1
 1066 754 l 1,2,-1
 1066 585 l 1,3,-1
 723 585 l 1,4,-1
 723 223 l 1,5,-1
 537 223 l 1,6,-1
 537 585 l 1,7,-1
 195 585 l 1,8,-1
 195 754 l 1,9,-1
 537 754 l 1,10,-1
 537 1117 l 1,11,-1
 723 1117 l 1,0,-1
1067 -24 m 1,12,-1
 194 -24 l 1,13,-1
 194 139 l 1,14,-1
 1067 139 l 1,15,-1
 1067 -24 l 1,12,-1
EndSplineSet
EndChar

StartChar: acute
Encoding: 180 180 115
Width: 1037
Flags: W
LayerCount: 2
Fore
SplineSet
231 1341 m 1,0,1
 231 1341 231 1341 248.5 1357 c 128,-1,2
 266 1373 266 1373 294.5 1399 c 128,-1,3
 323 1425 323 1425 359 1457 c 128,-1,4
 395 1489 395 1489 432.5 1520 c 128,-1,5
 470 1551 470 1551 506 1577.5 c 128,-1,6
 542 1604 542 1604 569 1620 c 0,7,8
 589 1631 589 1631 608.5 1635.5 c 128,-1,9
 628 1640 628 1640 645 1640 c 0,10,11
 669 1640 669 1640 689 1631.5 c 128,-1,12
 709 1623 709 1623 722.5 1609 c 128,-1,13
 736 1595 736 1595 743.5 1576.5 c 128,-1,14
 751 1558 751 1558 751 1539 c 0,15,16
 751 1512 751 1512 733.5 1485 c 128,-1,17
 716 1458 716 1458 676 1438 c 1,18,19
 670 1433 670 1433 648.5 1425 c 128,-1,20
 627 1417 627 1417 596 1406 c 128,-1,21
 565 1395 565 1395 528 1382.5 c 128,-1,22
 491 1370 491 1370 453 1358 c 0,23,24
 364 1329 364 1329 256 1295 c 0,25,26
 245 1292 245 1292 238 1292 c 0,27,28
 212 1292 212 1292 212 1311 c 0,29,30
 212 1325 212 1325 231 1341 c 1,0,1
EndSplineSet
EndChar

StartChar: paragraph
Encoding: 182 182 117
Width: 1500
Flags: W
LayerCount: 2
Fore
SplineSet
666 795 m 1,0,1
 572 795 572 795 486 810 c 128,-1,2
 400 825 400 825 334.5 866.5 c 128,-1,3
 269 908 269 908 230 979.5 c 128,-1,4
 191 1051 191 1051 191 1163 c 0,5,6
 191 1241 191 1241 214 1297.5 c 128,-1,7
 237 1354 237 1354 277 1394 c 128,-1,8
 317 1434 317 1434 372 1458.5 c 128,-1,9
 427 1483 427 1483 491 1497 c 128,-1,10
 555 1511 555 1511 625.5 1516 c 128,-1,11
 696 1521 696 1521 768 1521 c 2,12,-1
 1195 1521 l 1,13,-1
 1195 0 l 1,14,-1
 1023 0 l 1,15,-1
 1023 794 l 1,16,-1
 839 794 l 1,17,-1
 839 0 l 1,18,-1
 666 0 l 1,19,-1
 666 795 l 1,20,-1
 666 795 l 1,0,1
EndSplineSet
EndChar

StartChar: cedilla
Encoding: 184 184 118
Width: 804
Flags: W
LayerCount: 2
Fore
SplineSet
73 -480 m 0,0,1
 55 -467 55 -467 47 -453.5 c 128,-1,2
 39 -440 39 -440 39 -426 c 0,3,4
 39 -404 39 -404 55 -388.5 c 128,-1,5
 71 -373 71 -373 92 -373 c 0,6,7
 104 -373 104 -373 116 -379 c 0,8,9
 125 -384 125 -384 143.5 -392 c 128,-1,10
 162 -400 162 -400 184.5 -408.5 c 128,-1,11
 207 -417 207 -417 232 -423 c 128,-1,12
 257 -429 257 -429 280 -429 c 0,13,14
 293 -429 293 -429 307 -426 c 128,-1,15
 321 -423 321 -423 332.5 -416 c 128,-1,16
 344 -409 344 -409 351.5 -398 c 128,-1,17
 359 -387 359 -387 359 -371 c 0,18,19
 359 -351 359 -351 346 -336 c 128,-1,20
 333 -321 333 -321 311.5 -310.5 c 128,-1,21
 290 -300 290 -300 262 -294.5 c 128,-1,22
 234 -289 234 -289 205 -289 c 1,23,24
 205 -289 205 -289 208 -276 c 128,-1,25
 211 -263 211 -263 217 -243 c 128,-1,26
 223 -223 223 -223 230.5 -197 c 128,-1,27
 238 -171 238 -171 246 -144 c 2,28,-1
 288 0 l 1,29,-1
 410 0 l 1,30,-1
 356 -168 l 1,31,32
 371 -170 371 -170 395 -172 c 128,-1,33
 419 -174 419 -174 446 -180 c 128,-1,34
 473 -186 473 -186 501 -197.5 c 128,-1,35
 529 -209 529 -209 551 -229 c 128,-1,36
 573 -249 573 -249 587 -280 c 128,-1,37
 601 -311 601 -311 601 -356 c 0,38,39
 601 -409 601 -409 579 -447 c 128,-1,40
 557 -485 557 -485 521 -509.5 c 128,-1,41
 485 -534 485 -534 438 -545.5 c 128,-1,42
 391 -557 391 -557 341 -557 c 0,43,44
 305 -557 305 -557 268 -551.5 c 128,-1,45
 231 -546 231 -546 196 -536 c 128,-1,46
 161 -526 161 -526 129.5 -512 c 128,-1,47
 98 -498 98 -498 73 -480 c 0,0,1
EndSplineSet
EndChar

StartChar: guillemotright
Encoding: 187 187 121
Width: 1849
Flags: W
LayerCount: 2
Fore
SplineSet
328 1116 m 1,0,1
 317 1136 317 1136 309.5 1152.5 c 128,-1,2
 302 1169 302 1169 302 1187 c 0,3,4
 302 1213 302 1213 320.5 1233.5 c 128,-1,5
 339 1254 339 1254 371 1254 c 0,6,7
 389 1254 389 1254 405 1248.5 c 128,-1,8
 421 1243 421 1243 442 1229 c 1,9,-1
 869 858 l 2,10,11
 903 829 903 829 919.5 792 c 128,-1,12
 936 755 936 755 936 716 c 256,13,14
 936 677 936 677 919 640 c 128,-1,15
 902 603 902 603 869 574 c 2,16,-1
 442 202 l 2,17,18
 425 188 425 188 406.5 183 c 128,-1,19
 388 178 388 178 371 178 c 0,20,21
 339 178 339 178 320.5 198 c 128,-1,22
 302 218 302 218 302 245 c 0,23,24
 302 263 302 263 309.5 280 c 128,-1,25
 317 297 317 297 328 316 c 1,26,-1
 695 716 l 1,27,-1
 328 1116 l 1,0,1
879 1116 m 1,28,29
 868 1136 868 1136 860.5 1152.5 c 128,-1,30
 853 1169 853 1169 853 1187 c 0,31,32
 853 1213 853 1213 871.5 1233.5 c 128,-1,33
 890 1254 890 1254 922 1254 c 0,34,35
 940 1254 940 1254 956 1248.5 c 128,-1,36
 972 1243 972 1243 993 1229 c 1,37,-1
 1420 858 l 2,38,39
 1453 829 1453 829 1469.5 792 c 128,-1,40
 1486 755 1486 755 1486 717 c 0,41,42
 1486 677 1486 677 1469 639.5 c 128,-1,43
 1452 602 1452 602 1420 574 c 2,44,-1
 993 202 l 2,45,46
 976 188 976 188 957.5 183 c 128,-1,47
 939 178 939 178 922 178 c 0,48,49
 890 178 890 178 871.5 198 c 128,-1,50
 853 218 853 218 853 245 c 0,51,52
 853 263 853 263 860.5 280 c 128,-1,53
 868 297 868 297 879 316 c 1,54,-1
 1246 716 l 1,55,-1
 879 1116 l 1,28,29
EndSplineSet
EndChar

StartChar: questiondown
Encoding: 191 191 125
Width: 1084
Flags: W
LayerCount: 2
Fore
SplineSet
105 258 m 0,0,1
 105 316 105 316 133 367.5 c 128,-1,2
 161 419 161 419 204.5 470 c 128,-1,3
 248 521 248 521 302.5 574 c 128,-1,4
 357 627 357 627 409.5 688.5 c 128,-1,5
 462 750 462 750 507 822.5 c 128,-1,6
 552 895 552 895 578 985 c 0,7,8
 585 1008 585 1008 602.5 1017 c 128,-1,9
 620 1026 620 1026 643 1026 c 0,10,11
 669 1026 669 1026 688 1014.5 c 128,-1,12
 707 1003 707 1003 707 974 c 0,13,14
 707 887 707 887 683 807 c 128,-1,15
 659 727 659 727 630.5 656 c 128,-1,16
 602 585 602 585 578 525 c 128,-1,17
 554 465 554 465 554 418 c 0,18,19
 554 385 554 385 565.5 360.5 c 128,-1,20
 577 336 577 336 597 320 c 128,-1,21
 617 304 617 304 644 296.5 c 128,-1,22
 671 289 671 289 702 289 c 0,23,24
 755 289 755 289 806 303.5 c 128,-1,25
 857 318 857 318 905 337 c 1,26,-1
 937 35 l 1,27,28
 844 7 844 7 748 -13 c 128,-1,29
 652 -33 652 -33 555 -33 c 0,30,31
 507 -33 507 -33 455 -28 c 128,-1,32
 403 -23 403 -23 353 -11 c 128,-1,33
 303 1 303 1 258 22 c 128,-1,34
 213 43 213 43 179 75.5 c 128,-1,35
 145 108 145 108 125 153 c 128,-1,36
 105 198 105 198 105 258 c 0,0,1
853 1376 m 256,37,38
 853 1331 853 1331 835.5 1296.5 c 128,-1,39
 818 1262 818 1262 788.5 1238.5 c 128,-1,40
 759 1215 759 1215 721 1202.5 c 128,-1,41
 683 1190 683 1190 641 1190 c 256,42,43
 599 1190 599 1190 561 1202.5 c 128,-1,44
 523 1215 523 1215 494 1238.5 c 128,-1,45
 465 1262 465 1262 447.5 1296.5 c 128,-1,46
 430 1331 430 1331 430 1376 c 0,47,48
 430 1420 430 1420 447.5 1454.5 c 128,-1,49
 465 1489 465 1489 494 1512.5 c 128,-1,50
 523 1536 523 1536 561.5 1548.5 c 128,-1,51
 600 1561 600 1561 641 1561 c 256,52,53
 682 1561 682 1561 720.5 1549 c 128,-1,54
 759 1537 759 1537 788.5 1513.5 c 128,-1,55
 818 1490 818 1490 835.5 1455.5 c 128,-1,56
 853 1421 853 1421 853 1376 c 256,37,38
EndSplineSet
EndChar

StartChar: Eth
Encoding: 208 208 142
Width: 1531
Flags: W
LayerCount: 2
Fore
SplineSet
1371 608 m 2,0,1
 1371 425 1371 425 1339 307.5 c 128,-1,2
 1307 190 1307 190 1234 121.5 c 128,-1,3
 1161 53 1161 53 1043 26.5 c 128,-1,4
 925 0 925 0 753 0 c 2,5,-1
 175 -1 l 1,6,-1
 175 1498 l 1,7,-1
 753 1499 l 2,8,9
 911 1499 911 1499 1027.5 1473 c 128,-1,10
 1144 1447 1144 1447 1220.5 1381.5 c 128,-1,11
 1297 1316 1297 1316 1334 1204.5 c 128,-1,12
 1371 1093 1371 1093 1371 922 c 2,13,-1
 1371 608 l 2,0,1
753 163 m 2,14,15
 845 163 845 163 910.5 171.5 c 128,-1,16
 976 180 976 180 1020 199.5 c 128,-1,17
 1064 219 1064 219 1090.5 251.5 c 128,-1,18
 1117 284 1117 284 1130.5 332.5 c 128,-1,19
 1144 381 1144 381 1148 447 c 128,-1,20
 1152 513 1152 513 1152 600 c 2,21,-1
 1150 873 l 2,22,23
 1150 964 1150 964 1148 1033.5 c 128,-1,24
 1146 1103 1146 1103 1135 1155.5 c 128,-1,25
 1124 1208 1124 1208 1100 1243.5 c 128,-1,26
 1076 1279 1076 1279 1031.5 1301 c 128,-1,27
 987 1323 987 1323 919.5 1332.5 c 128,-1,28
 852 1342 852 1342 753 1342 c 2,29,-1
 396 1341 l 1,30,-1
 396 164 l 1,31,-1
 753 163 l 2,14,15
1286 754 m 1,32,-1
 245 754 l 1,33,-1
 245 468 l 1,34,-1
 1286 468 l 1,35,-1
 1286 754 l 1,32,-1
EndSplineSet
EndChar

StartChar: multiply
Encoding: 215 215 149
Width: 1373
Flags: W
LayerCount: 2
Fore
SplineSet
762 670 m 1,0,-1
 1012 420 l 1,1,-1
 880 288 l 1,2,-1
 630 538 l 1,3,-1
 380 288 l 1,4,-1
 248 420 l 1,5,-1
 498 670 l 1,6,-1
 248 920 l 1,7,-1
 380 1052 l 1,8,-1
 630 802 l 1,9,-1
 880 1052 l 1,10,-1
 1012 920 l 1,11,-1
 762 670 l 1,0,-1
EndSplineSet
EndChar

StartChar: Thorn
Encoding: 222 222 156
Width: 1308
Flags: W
LayerCount: 2
Fore
SplineSet
752 1299 m 2,0,1
 822 1299 822 1299 887 1294 c 128,-1,2
 952 1289 952 1289 1008.5 1274 c 128,-1,3
 1065 1259 1065 1259 1112 1231 c 128,-1,4
 1159 1203 1159 1203 1192 1156.5 c 128,-1,5
 1225 1110 1225 1110 1243.5 1042.5 c 128,-1,6
 1262 975 1262 975 1262 882 c 0,7,8
 1262 770 1262 770 1246 690 c 128,-1,9
 1230 610 1230 610 1199 556.5 c 128,-1,10
 1168 503 1168 503 1123 471.5 c 128,-1,11
 1078 440 1078 440 1019.5 423.5 c 128,-1,12
 961 407 961 407 890.5 402.5 c 128,-1,13
 820 398 820 398 738 398 c 2,14,-1
 395 398 l 1,15,-1
 395 0 l 1,16,-1
 174 0 l 1,17,-1
 174 1498 l 1,18,-1
 395 1498 l 1,19,-1
 395 1299 l 1,20,-1
 752 1299 l 2,0,1
732 559 m 2,21,22
 805 559 805 559 857 563 c 128,-1,23
 909 567 909 567 943.5 579.5 c 128,-1,24
 978 592 978 592 998 614.5 c 128,-1,25
 1018 637 1018 637 1028 673.5 c 128,-1,26
 1038 710 1038 710 1040.5 762.5 c 128,-1,27
 1043 815 1043 815 1043 888 c 0,28,29
 1043 984 1043 984 1023 1035.5 c 128,-1,30
 1003 1087 1003 1087 964.5 1110.5 c 128,-1,31
 926 1134 926 1134 869 1138 c 128,-1,32
 812 1142 812 1142 738 1142 c 2,33,-1
 395 1142 l 1,34,-1
 395 559 l 1,35,-1
 732 559 l 2,21,22
EndSplineSet
EndChar

StartChar: germandbls
Encoding: 223 223 157
Width: 1327
Flags: W
LayerCount: 2
Fore
SplineSet
664 1499 m 0,0,1
 784 1499 784 1499 873 1484.5 c 128,-1,2
 962 1470 962 1470 1021 1429 c 128,-1,3
 1080 1388 1080 1388 1109 1314 c 128,-1,4
 1138 1240 1138 1240 1138 1120 c 0,5,6
 1138 1065 1138 1065 1131 1023 c 128,-1,7
 1124 981 1124 981 1112.5 950.5 c 128,-1,8
 1101 920 1101 920 1086 898.5 c 128,-1,9
 1071 877 1071 877 1056 864 c 0,10,11
 1020 832 1020 832 975 828 c 1,12,13
 1043 822 1043 822 1098 779 c 0,14,15
 1121 761 1121 761 1143 732.5 c 128,-1,16
 1165 704 1165 704 1182.5 662.5 c 128,-1,17
 1200 621 1200 621 1210.5 565.5 c 128,-1,18
 1221 510 1221 510 1221 437 c 0,19,20
 1221 337 1221 337 1205.5 266 c 128,-1,21
 1190 195 1190 195 1159.5 146.5 c 128,-1,22
 1129 98 1129 98 1083 69 c 128,-1,23
 1037 40 1037 40 976 24.5 c 128,-1,24
 915 9 915 9 839 4.5 c 128,-1,25
 763 0 763 0 672 0 c 2,26,-1
 509 0 l 1,27,-1
 509 157 l 1,28,-1
 671 157 l 2,29,30
 749 157 749 157 804.5 158 c 128,-1,31
 860 159 860 159 896.5 165.5 c 128,-1,32
 933 172 933 172 954 186 c 128,-1,33
 975 200 975 200 986 226 c 128,-1,34
 997 252 997 252 999.5 292 c 128,-1,35
 1002 332 1002 332 1002 391 c 0,36,37
 1002 478 1002 478 1001 538 c 128,-1,38
 1000 598 1000 598 991.5 637 c 128,-1,39
 983 676 983 676 963 697 c 128,-1,40
 943 718 943 718 904.5 728 c 128,-1,41
 866 738 866 738 806 739.5 c 128,-1,42
 746 741 746 741 657 741 c 2,43,-1
 545 741 l 1,44,-1
 545 887 l 1,45,-1
 638 887 l 2,46,47
 710 887 710 887 759.5 888 c 128,-1,48
 809 889 809 889 841 895 c 128,-1,49
 873 901 873 901 890.5 914.5 c 128,-1,50
 908 928 908 928 916 953 c 128,-1,51
 924 978 924 978 925.5 1016 c 128,-1,52
 927 1054 927 1054 927 1110 c 0,53,54
 927 1168 927 1168 926 1207.5 c 128,-1,55
 925 1247 925 1247 917.5 1273 c 128,-1,56
 910 1299 910 1299 894.5 1313 c 128,-1,57
 879 1327 879 1327 850 1333.5 c 128,-1,58
 821 1340 821 1340 776 1341 c 128,-1,59
 731 1342 731 1342 666 1342 c 0,60,61
 596 1342 596 1342 548.5 1341 c 128,-1,62
 501 1340 501 1340 470 1333 c 128,-1,63
 439 1326 439 1326 422 1310.5 c 128,-1,64
 405 1295 405 1295 397.5 1267 c 128,-1,65
 390 1239 390 1239 388.5 1196 c 128,-1,66
 387 1153 387 1153 387 1090 c 2,67,-1
 388 -150 l 1,68,-1
 167 -150 l 1,69,-1
 168 1102 l 2,70,71
 168 1227 168 1227 199.5 1304.5 c 128,-1,72
 231 1382 231 1382 293 1425.5 c 128,-1,73
 355 1469 355 1469 448 1484 c 128,-1,74
 541 1499 541 1499 664 1499 c 0,0,1
EndSplineSet
EndChar

StartChar: thorn
Encoding: 254 254 188
Width: 1251
Flags: W
LayerCount: 2
Fore
SplineSet
741 -24 m 0,0,1
 626 -24 626 -24 555.5 -4 c 128,-1,2
 485 16 485 16 446 40 c 0,3,4
 400 68 400 68 379 105 c 1,5,-1
 379 -402 l 1,6,-1
 162 -402 l 1,7,-1
 162 1594 l 1,8,-1
 378 1594 l 1,9,-1
 378 1053 l 1,10,11
 394 1088 394 1088 434 1116 c 0,12,13
 451 1128 451 1128 475.5 1139.5 c 128,-1,14
 500 1151 500 1151 533.5 1160 c 128,-1,15
 567 1169 567 1169 610 1174.5 c 128,-1,16
 653 1180 653 1180 707 1180 c 0,17,18
 839 1180 839 1180 925.5 1159 c 128,-1,19
 1012 1138 1012 1138 1063 1093 c 128,-1,20
 1114 1048 1114 1048 1134 977.5 c 128,-1,21
 1154 907 1154 907 1154 808 c 2,22,-1
 1154 387 l 2,23,24
 1154 277 1154 277 1139 199.5 c 128,-1,25
 1124 122 1124 122 1079.5 72 c 128,-1,26
 1035 22 1035 22 954 -1 c 128,-1,27
 873 -24 873 -24 741 -24 c 0,0,1
664 1018 m 0,28,29
 593 1018 593 1018 544 1016.5 c 128,-1,30
 495 1015 495 1015 463.5 1008.5 c 128,-1,31
 432 1002 432 1002 414.5 988.5 c 128,-1,32
 397 975 397 975 389.5 950.5 c 128,-1,33
 382 926 382 926 380.5 889 c 128,-1,34
 379 852 379 852 379 799 c 2,35,-1
 379 342 l 2,36,37
 379 270 379 270 383 229.5 c 128,-1,38
 387 189 387 189 409.5 169 c 128,-1,39
 432 149 432 149 481.5 144 c 128,-1,40
 531 139 531 139 622 139 c 0,41,42
 700 139 700 139 753.5 140 c 128,-1,43
 807 141 807 141 841.5 146.5 c 128,-1,44
 876 152 876 152 895 164 c 128,-1,45
 914 176 914 176 923 198.5 c 128,-1,46
 932 221 932 221 933.5 256 c 128,-1,47
 935 291 935 291 935 342 c 2,48,-1
 935 799 l 2,49,50
 935 853 935 853 933.5 890.5 c 128,-1,51
 932 928 932 928 924.5 952.5 c 128,-1,52
 917 977 917 977 900.5 990 c 128,-1,53
 884 1003 884 1003 854 1009.5 c 128,-1,54
 824 1016 824 1016 777.5 1017 c 128,-1,55
 731 1018 731 1018 664 1018 c 0,28,29
EndSplineSet
EndChar

StartChar: dotlessi
Encoding: 305 305 229
Width: 522
Flags: W
LayerCount: 2
Fore
SplineSet
373 1147 m 1,0,-1
 373 0 l 1,1,-1
 154 0 l 1,2,-1
 154 1147 l 1,3,-1
 373 1147 l 1,4,-1
 373 1147 l 1,0,-1
EndSplineSet
EndChar

StartChar: dotlessj
Encoding: 567 567 296
Width: 560
Flags: W
LayerCount: 2
Fore
SplineSet
416 -49 m 2,0,1
 416 -117 416 -117 402 -166 c 128,-1,2
 388 -215 388 -215 357 -247.5 c 128,-1,3
 326 -280 326 -280 277 -295.5 c 128,-1,4
 228 -311 228 -311 158 -311 c 0,5,6
 123 -311 123 -311 87.5 -307 c 128,-1,7
 52 -303 52 -303 17 -297 c 1,8,-1
 13 -156 l 1,9,-1
 199 -156 l 1,10,-1
 199 1147 l 1,11,-1
 416 1147 l 1,12,-1
 416 -49 l 2,0,1
EndSplineSet
EndChar

StartChar: circumflex
Encoding: 710 710 297
Width: 1124
Flags: W
LayerCount: 2
Fore
SplineSet
562 1627 m 1,0,-1
 331 1416 l 1,1,2
 310 1401 310 1401 291 1401 c 0,3,4
 275 1401 275 1401 263.5 1411.5 c 128,-1,5
 252 1422 252 1422 252 1440 c 0,6,7
 252 1461 252 1461 266 1481 c 2,8,-1
 457 1754 l 2,9,10
 473 1777 473 1777 501.5 1787.5 c 128,-1,11
 530 1798 530 1798 562 1798 c 256,12,13
 594 1798 594 1798 622.5 1787.5 c 128,-1,14
 651 1777 651 1777 668 1754 c 2,15,-1
 858 1481 l 2,16,17
 866 1470 866 1470 869.5 1460.5 c 128,-1,18
 873 1451 873 1451 873 1440 c 0,19,20
 873 1422 873 1422 861.5 1411.5 c 128,-1,21
 850 1401 850 1401 834 1401 c 0,22,23
 815 1401 815 1401 794 1416 c 1,24,-1
 562 1627 l 1,0,-1
EndSplineSet
EndChar

StartChar: caron
Encoding: 711 711 298
Width: 1122
Flags: W
LayerCount: 2
Fore
SplineSet
801 1651 m 1,0,1
 822 1666 822 1666 841 1666 c 0,2,3
 857 1666 857 1666 868.5 1655.5 c 128,-1,4
 880 1645 880 1645 880 1627 c 0,5,6
 880 1616 880 1616 876.5 1606.5 c 128,-1,7
 873 1597 873 1597 865 1586 c 2,8,-1
 675 1313 l 2,9,10
 659 1290 659 1290 630 1279.5 c 128,-1,11
 601 1269 601 1269 569 1269 c 256,12,13
 537 1269 537 1269 508.5 1279.5 c 128,-1,14
 480 1290 480 1290 464 1313 c 2,15,-1
 273 1586 l 2,16,17
 259 1606 259 1606 259 1627 c 0,18,19
 259 1645 259 1645 270.5 1655.5 c 128,-1,20
 282 1666 282 1666 298 1666 c 0,21,22
 317 1666 317 1666 338 1651 c 1,23,-1
 569 1440 l 1,24,-1
 801 1651 l 1,0,1
EndSplineSet
EndChar

StartChar: breve
Encoding: 728 728 299
Width: 1265
Flags: W
LayerCount: 2
Fore
SplineSet
631 1368 m 256,0,1
 512 1368 512 1368 422 1389 c 128,-1,2
 332 1410 332 1410 272 1460 c 128,-1,3
 212 1510 212 1510 182 1592.5 c 128,-1,4
 152 1675 152 1675 152 1798 c 1,5,-1
 460 1798 l 1,6,7
 459 1749 459 1749 466.5 1715.5 c 128,-1,8
 474 1682 474 1682 493.5 1662 c 128,-1,9
 513 1642 513 1642 546.5 1633 c 128,-1,10
 580 1624 580 1624 631 1624 c 256,11,12
 682 1624 682 1624 716 1633 c 128,-1,13
 750 1642 750 1642 769.5 1662 c 128,-1,14
 789 1682 789 1682 796.5 1715.5 c 128,-1,15
 804 1749 804 1749 803 1798 c 1,16,-1
 1113 1798 l 1,17,18
 1113 1674 1113 1674 1082.5 1591.5 c 128,-1,19
 1052 1509 1052 1509 991 1459.5 c 128,-1,20
 930 1410 930 1410 840 1389 c 128,-1,21
 750 1368 750 1368 631 1368 c 256,0,1
EndSplineSet
EndChar

StartChar: dotaccent
Encoding: 729 729 300
Width: 876
Flags: W
LayerCount: 2
Fore
SplineSet
702 0 m 1,0,-1
 175 0 l 1,1,-1
 175 417 l 1,2,-1
 702 417 l 1,3,-1
 702 0 l 1,4,-1
 702 0 l 1,0,-1
EndSplineSet
EndChar

StartChar: ring
Encoding: 730 730 301
Width: 979
Flags: W
LayerCount: 2
Fore
SplineSet
143 401 m 0,0,1
 143 467 143 467 174.5 521.5 c 128,-1,2
 206 576 206 576 255.5 615 c 128,-1,3
 305 654 305 654 367 675.5 c 128,-1,4
 429 697 429 697 489 697 c 0,5,6
 552 697 552 697 614 676.5 c 128,-1,7
 676 656 676 656 725.5 617.5 c 128,-1,8
 775 579 775 579 805.5 524.5 c 128,-1,9
 836 470 836 470 836 401 c 0,10,11
 836 335 836 335 804.5 281 c 128,-1,12
 773 227 773 227 723 188 c 128,-1,13
 673 149 673 149 611 128 c 128,-1,14
 549 107 549 107 489 107 c 0,15,16
 427 107 427 107 365 127.5 c 128,-1,17
 303 148 303 148 253.5 186 c 128,-1,18
 204 224 204 224 173.5 278.5 c 128,-1,19
 143 333 143 333 143 401 c 0,0,1
487 540 m 0,20,21
 458 540 458 540 435 528.5 c 128,-1,22
 412 517 412 517 396 497.5 c 128,-1,23
 380 478 380 478 371 453 c 128,-1,24
 362 428 362 428 362 401 c 0,25,26
 362 375 362 375 371 350 c 128,-1,27
 380 325 380 325 396.5 305.5 c 128,-1,28
 413 286 413 286 436 274.5 c 128,-1,29
 459 263 459 263 487 263 c 256,30,31
 515 263 515 263 538 274.5 c 128,-1,32
 561 286 561 286 578 305.5 c 128,-1,33
 595 325 595 325 604.5 350 c 128,-1,34
 614 375 614 375 614 401 c 0,35,36
 614 428 614 428 604.5 453 c 128,-1,37
 595 478 595 478 578 497.5 c 128,-1,38
 561 517 561 517 538 528.5 c 128,-1,39
 515 540 515 540 487 540 c 0,20,21
EndSplineSet
EndChar

StartChar: ogonek
Encoding: 731 731 302
Width: 804
Flags: W
LayerCount: 2
Fore
SplineSet
513 -480 m 0,0,1
 483 -498 483 -498 448 -512 c 128,-1,2
 413 -526 413 -526 375.5 -536 c 128,-1,3
 338 -546 338 -546 299.5 -551.5 c 128,-1,4
 261 -557 261 -557 225 -557 c 0,5,6
 181 -557 181 -557 142.5 -548.5 c 128,-1,7
 104 -540 104 -540 74.5 -522 c 128,-1,8
 45 -504 45 -504 28 -476 c 128,-1,9
 11 -448 11 -448 11 -409 c 0,10,11
 11 -360 11 -360 33 -310.5 c 128,-1,12
 55 -261 55 -261 87.5 -215.5 c 128,-1,13
 120 -170 120 -170 158.5 -131 c 128,-1,14
 197 -92 197 -92 229.5 -62.5 c 128,-1,15
 262 -33 262 -33 283 -16.5 c 128,-1,16
 304 0 304 0 303 0 c 2,17,-1
 425 0 l 1,18,19
 381 -41 381 -41 343.5 -86.5 c 128,-1,20
 306 -132 306 -132 279 -177 c 128,-1,21
 252 -222 252 -222 237 -264.5 c 128,-1,22
 222 -307 222 -307 222 -341 c 0,23,24
 222 -381 222 -381 245 -405 c 128,-1,25
 268 -429 268 -429 320 -429 c 0,26,27
 343 -429 343 -429 369.5 -423 c 128,-1,28
 396 -417 396 -417 421 -408.5 c 128,-1,29
 446 -400 446 -400 466 -392 c 128,-1,30
 486 -384 486 -384 497 -379 c 0,31,32
 510 -373 510 -373 522 -373 c 0,33,34
 539 -373 539 -373 551 -384.5 c 128,-1,35
 563 -396 563 -396 563 -413 c 256,36,37
 563 -430 563 -430 551.5 -447 c 128,-1,38
 540 -464 540 -464 513 -480 c 0,0,1
EndSplineSet
EndChar

StartChar: tilde
Encoding: 732 732 303
Width: 1648
Flags: W
LayerCount: 2
Fore
SplineSet
184 492 m 0,0,1
 157 492 157 492 134.5 483 c 128,-1,2
 112 474 112 474 94.5 463 c 128,-1,3
 77 452 77 452 64.5 443 c 128,-1,4
 52 434 52 434 45 434 c 0,5,6
 28 434 28 434 28 451 c 0,7,8
 28 460 28 460 35 470 c 0,9,10
 61 513 61 513 89 548 c 128,-1,11
 117 583 117 583 149.5 608 c 128,-1,12
 182 633 182 633 220 646.5 c 128,-1,13
 258 660 258 660 303 660 c 0,14,15
 365 660 365 660 432.5 642 c 128,-1,16
 500 624 500 624 564.5 602 c 128,-1,17
 629 580 629 580 686 562 c 128,-1,18
 743 544 743 544 784 544 c 0,19,20
 811 544 811 544 833.5 553.5 c 128,-1,21
 856 563 856 563 873 574.5 c 128,-1,22
 890 586 890 586 902.5 595.5 c 128,-1,23
 915 605 915 605 923 605 c 0,24,25
 940 605 940 605 940 588 c 0,26,27
 940 579 940 579 933 569 c 0,28,29
 904 526 904 526 872.5 491 c 128,-1,30
 841 456 841 456 805 431 c 128,-1,31
 769 406 769 406 727 392.5 c 128,-1,32
 685 379 685 379 635 379 c 0,33,34
 590 379 590 379 535 396.5 c 128,-1,35
 480 414 480 414 420.5 435.5 c 128,-1,36
 361 457 361 457 300.5 474.5 c 128,-1,37
 240 492 240 492 184 492 c 0,0,1
EndSplineSet
EndChar

StartChar: hungarumlaut
Encoding: 733 733 304
Width: 1822
Flags: W
LayerCount: 2
Fore
SplineSet
224 1341 m 1,0,1
 224 1341 224 1341 241.5 1357 c 128,-1,2
 259 1373 259 1373 287.5 1399 c 128,-1,3
 316 1425 316 1425 352 1457 c 128,-1,4
 388 1489 388 1489 425.5 1520 c 128,-1,5
 463 1551 463 1551 499 1577.5 c 128,-1,6
 535 1604 535 1604 562 1620 c 0,7,8
 582 1631 582 1631 601.5 1635.5 c 128,-1,9
 621 1640 621 1640 638 1640 c 0,10,11
 662 1640 662 1640 682 1631.5 c 128,-1,12
 702 1623 702 1623 715.5 1609 c 128,-1,13
 729 1595 729 1595 736.5 1576.5 c 128,-1,14
 744 1558 744 1558 744 1539 c 0,15,16
 744 1512 744 1512 726.5 1485 c 128,-1,17
 709 1458 709 1458 669 1438 c 1,18,19
 663 1433 663 1433 641.5 1425 c 128,-1,20
 620 1417 620 1417 589 1406 c 128,-1,21
 558 1395 558 1395 521 1382.5 c 128,-1,22
 484 1370 484 1370 446 1358 c 0,23,24
 357 1329 357 1329 249 1295 c 0,25,26
 238 1292 238 1292 231 1292 c 0,27,28
 205 1292 205 1292 205 1311 c 0,29,30
 205 1325 205 1325 224 1341 c 1,0,1
715 1341 m 1,31,32
 715 1341 715 1341 732.5 1357 c 128,-1,33
 750 1373 750 1373 778.5 1399 c 128,-1,34
 807 1425 807 1425 843 1457 c 128,-1,35
 879 1489 879 1489 916.5 1520 c 128,-1,36
 954 1551 954 1551 990 1577.5 c 128,-1,37
 1026 1604 1026 1604 1053 1620 c 0,38,39
 1073 1631 1073 1631 1092.5 1635.5 c 128,-1,40
 1112 1640 1112 1640 1129 1640 c 0,41,42
 1153 1640 1153 1640 1173 1631.5 c 128,-1,43
 1193 1623 1193 1623 1206.5 1609 c 128,-1,44
 1220 1595 1220 1595 1227.5 1576.5 c 128,-1,45
 1235 1558 1235 1558 1235 1539 c 0,46,47
 1235 1512 1235 1512 1217.5 1485 c 128,-1,48
 1200 1458 1200 1458 1160 1438 c 1,49,50
 1154 1433 1154 1433 1132.5 1425 c 128,-1,51
 1111 1417 1111 1417 1080 1406 c 128,-1,52
 1049 1395 1049 1395 1012 1382.5 c 128,-1,53
 975 1370 975 1370 937 1358 c 0,54,55
 848 1329 848 1329 740 1295 c 0,56,57
 729 1292 729 1292 722 1292 c 0,58,59
 696 1292 696 1292 696 1311 c 0,60,61
 696 1325 696 1325 715 1341 c 1,31,32
EndSplineSet
EndChar

StartChar: endash
Encoding: 8211 8211 308
Width: 1217
Flags: W
LayerCount: 2
Fore
SplineSet
1086 754 m 1,0,-1
 1086 568 l 1,1,-1
 175 568 l 1,2,-1
 175 754 l 1,3,-1
 1086 754 l 1,4,-1
 1086 754 l 1,0,-1
EndSplineSet
EndChar

StartChar: emdash
Encoding: 8212 8212 309
Width: 2103
Flags: W
LayerCount: 2
Fore
SplineSet
1928 838 m 1,0,-1
 1928 568 l 1,1,-1
 175 568 l 1,2,-1
 175 754 l 1,3,-1
 1928 754 l 1,4,-1
 1928 838 l 1,0,-1
EndSplineSet
EndChar

StartChar: quoteleft
Encoding: 8216 8216 310
Width: 710
Flags: W
LayerCount: 2
Fore
SplineSet
364 1325 m 1,0,1
 405 1320 405 1320 435 1305 c 128,-1,2
 465 1290 465 1290 484.5 1267.5 c 128,-1,3
 504 1245 504 1245 513.5 1217 c 128,-1,4
 523 1189 523 1189 523 1160 c 0,5,6
 523 1126 523 1126 511.5 1093.5 c 128,-1,7
 500 1061 500 1061 477.5 1035 c 128,-1,8
 455 1009 455 1009 422.5 993 c 128,-1,9
 390 977 390 977 348 977 c 0,10,11
 312 977 312 977 277 990 c 128,-1,12
 242 1003 242 1003 214 1028.5 c 128,-1,13
 186 1054 186 1054 169 1092.5 c 128,-1,14
 152 1131 152 1131 152 1181 c 0,15,16
 152 1257 152 1257 178.5 1324.5 c 128,-1,17
 205 1392 205 1392 252 1442.5 c 128,-1,18
 299 1493 299 1493 364 1522.5 c 128,-1,19
 429 1552 429 1552 507 1552 c 1,20,-1
 507 1484 l 1,21,22
 483 1484 483 1484 457.5 1474 c 128,-1,23
 432 1464 432 1464 411 1444 c 128,-1,24
 390 1424 390 1424 377 1394.5 c 128,-1,25
 364 1365 364 1365 364 1325 c 1,0,1
EndSplineSet
EndChar

StartChar: quoteright
Encoding: 8217 8217 311
Width: 711
Flags: W
LayerCount: 2
Fore
SplineSet
311 1204 m 1,0,1
 270 1208 270 1208 240 1223.5 c 128,-1,2
 210 1239 210 1239 190.5 1261.5 c 128,-1,3
 171 1284 171 1284 161.5 1312 c 128,-1,4
 152 1340 152 1340 152 1369 c 0,5,6
 152 1403 152 1403 163.5 1435.5 c 128,-1,7
 175 1468 175 1468 197.5 1494 c 128,-1,8
 220 1520 220 1520 252.5 1536 c 128,-1,9
 285 1552 285 1552 327 1552 c 0,10,11
 363 1552 363 1552 398 1539 c 128,-1,12
 433 1526 433 1526 461 1500.5 c 128,-1,13
 489 1475 489 1475 506 1436.5 c 128,-1,14
 523 1398 523 1398 523 1348 c 0,15,16
 523 1272 523 1272 496.5 1204.5 c 128,-1,17
 470 1137 470 1137 423 1086.5 c 128,-1,18
 376 1036 376 1036 311 1006.5 c 128,-1,19
 246 977 246 977 168 977 c 1,20,-1
 168 1045 l 1,21,22
 192 1045 192 1045 217.5 1055 c 128,-1,23
 243 1065 243 1065 264 1085 c 128,-1,24
 285 1105 285 1105 298 1134.5 c 128,-1,25
 311 1164 311 1164 311 1204 c 1,0,1
EndSplineSet
EndChar

StartChar: quotesinglbase
Encoding: 8218 8218 312
Width: 648
Flags: W
LayerCount: 2
Fore
SplineSet
265 -357 m 1,0,1
 257 -326 257 -326 243.5 -281.5 c 128,-1,2
 230 -237 230 -237 215 -186 c 128,-1,3
 200 -135 200 -135 184 -81 c 128,-1,4
 168 -27 168 -27 155.5 22.5 c 128,-1,5
 143 72 143 72 135 114 c 128,-1,6
 127 156 127 156 127 183 c 0,7,8
 127 223 127 223 144 251.5 c 128,-1,9
 161 280 161 280 188.5 299 c 128,-1,10
 216 318 216 318 250.5 327 c 128,-1,11
 285 336 285 336 320 336 c 256,12,13
 355 336 355 336 391 327 c 128,-1,14
 427 318 427 318 456.5 299 c 128,-1,15
 486 280 486 280 504.5 250.5 c 128,-1,16
 523 221 523 221 523 181 c 0,17,18
 523 157 523 157 514 113.5 c 128,-1,19
 505 70 505 70 491 17.5 c 128,-1,20
 477 -35 477 -35 460 -92.5 c 128,-1,21
 443 -150 443 -150 427 -201.5 c 128,-1,22
 411 -253 411 -253 397.5 -294.5 c 128,-1,23
 384 -336 384 -336 378 -357 c 0,24,25
 373 -375 373 -375 357 -387.5 c 128,-1,26
 341 -400 341 -400 322 -400 c 0,27,28
 302 -400 302 -400 286 -387.5 c 128,-1,29
 270 -375 270 -375 265 -355 c 1,30,-1
 265 -357 l 1,31,-1
 265 -357 l 1,0,1
EndSplineSet
EndChar

StartChar: quotedblleft
Encoding: 8220 8220 313
Width: 1272
Flags: W
LayerCount: 2
Fore
SplineSet
889 1325 m 1,0,1
 930 1320 930 1320 960 1305 c 128,-1,2
 990 1290 990 1290 1009.5 1267.5 c 128,-1,3
 1029 1245 1029 1245 1038.5 1217 c 128,-1,4
 1048 1189 1048 1189 1048 1160 c 0,5,6
 1048 1126 1048 1126 1036.5 1093.5 c 128,-1,7
 1025 1061 1025 1061 1002.5 1035 c 128,-1,8
 980 1009 980 1009 947.5 993 c 128,-1,9
 915 977 915 977 873 977 c 0,10,11
 837 977 837 977 802 990 c 128,-1,12
 767 1003 767 1003 739 1028.5 c 128,-1,13
 711 1054 711 1054 694 1092.5 c 128,-1,14
 677 1131 677 1131 677 1181 c 0,15,16
 677 1257 677 1257 703.5 1324.5 c 128,-1,17
 730 1392 730 1392 777 1442.5 c 128,-1,18
 824 1493 824 1493 889 1522.5 c 128,-1,19
 954 1552 954 1552 1032 1552 c 1,20,-1
 1032 1484 l 1,21,22
 1008 1484 1008 1484 982.5 1474 c 128,-1,23
 957 1464 957 1464 936 1444 c 128,-1,24
 915 1424 915 1424 902 1394.5 c 128,-1,25
 889 1365 889 1365 889 1325 c 1,0,1
364 1325 m 1,26,27
 405 1320 405 1320 435 1305 c 128,-1,28
 465 1290 465 1290 484.5 1267.5 c 128,-1,29
 504 1245 504 1245 513.5 1217 c 128,-1,30
 523 1189 523 1189 523 1160 c 0,31,32
 523 1126 523 1126 511.5 1093.5 c 128,-1,33
 500 1061 500 1061 477.5 1035 c 128,-1,34
 455 1009 455 1009 422.5 993 c 128,-1,35
 390 977 390 977 348 977 c 0,36,37
 312 977 312 977 277 990 c 128,-1,38
 242 1003 242 1003 214 1028.5 c 128,-1,39
 186 1054 186 1054 169 1092.5 c 128,-1,40
 152 1131 152 1131 152 1181 c 0,41,42
 152 1257 152 1257 178.5 1324.5 c 128,-1,43
 205 1392 205 1392 252 1442.5 c 128,-1,44
 299 1493 299 1493 364 1522.5 c 128,-1,45
 429 1552 429 1552 507 1552 c 1,46,-1
 507 1484 l 1,47,48
 483 1484 483 1484 457.5 1474 c 128,-1,49
 432 1464 432 1464 411 1444 c 128,-1,50
 390 1424 390 1424 377 1394.5 c 128,-1,51
 364 1365 364 1365 364 1325 c 1,26,27
EndSplineSet
EndChar

StartChar: quotedblright
Encoding: 8221 8221 314
Width: 1272
Flags: W
LayerCount: 2
Fore
SplineSet
905 1204 m 1,0,1
 864 1208 864 1208 834 1223.5 c 128,-1,2
 804 1239 804 1239 784.5 1261.5 c 128,-1,3
 765 1284 765 1284 755.5 1312 c 128,-1,4
 746 1340 746 1340 746 1369 c 0,5,6
 746 1403 746 1403 757.5 1435.5 c 128,-1,7
 769 1468 769 1468 791.5 1494 c 128,-1,8
 814 1520 814 1520 846.5 1536 c 128,-1,9
 879 1552 879 1552 921 1552 c 0,10,11
 957 1552 957 1552 992 1539 c 128,-1,12
 1027 1526 1027 1526 1055 1500.5 c 128,-1,13
 1083 1475 1083 1475 1100 1436.5 c 128,-1,14
 1117 1398 1117 1398 1117 1348 c 0,15,16
 1117 1272 1117 1272 1090.5 1204.5 c 128,-1,17
 1064 1137 1064 1137 1017 1086.5 c 128,-1,18
 970 1036 970 1036 905 1006.5 c 128,-1,19
 840 977 840 977 762 977 c 1,20,-1
 762 1045 l 1,21,22
 786 1045 786 1045 811.5 1055 c 128,-1,23
 837 1065 837 1065 858 1085 c 128,-1,24
 879 1105 879 1105 892 1134.5 c 128,-1,25
 905 1164 905 1164 905 1204 c 1,0,1
383 1204 m 1,26,27
 342 1208 342 1208 312 1223.5 c 128,-1,28
 282 1239 282 1239 262.5 1261.5 c 128,-1,29
 243 1284 243 1284 233.5 1312 c 128,-1,30
 224 1340 224 1340 224 1369 c 0,31,32
 224 1403 224 1403 235.5 1435.5 c 128,-1,33
 247 1468 247 1468 269.5 1494 c 128,-1,34
 292 1520 292 1520 324.5 1536 c 128,-1,35
 357 1552 357 1552 399 1552 c 0,36,37
 435 1552 435 1552 470 1539 c 128,-1,38
 505 1526 505 1526 533 1500.5 c 128,-1,39
 561 1475 561 1475 578 1436.5 c 128,-1,40
 595 1398 595 1398 595 1348 c 0,41,42
 595 1272 595 1272 568.5 1204.5 c 128,-1,43
 542 1137 542 1137 495 1086.5 c 128,-1,44
 448 1036 448 1036 383 1006.5 c 128,-1,45
 318 977 318 977 240 977 c 1,46,-1
 240 1045 l 1,47,48
 264 1045 264 1045 289.5 1055 c 128,-1,49
 315 1065 315 1065 336 1085 c 128,-1,50
 357 1105 357 1105 370 1134.5 c 128,-1,51
 383 1164 383 1164 383 1204 c 1,26,27
EndSplineSet
EndChar

StartChar: quotedblbase
Encoding: 8222 8222 315
Width: 1707
Flags: W
LayerCount: 2
Fore
SplineSet
317 -247 m 0,0,1
 314 -261 314 -261 307.5 -268 c 128,-1,2
 301 -275 301 -275 294 -275 c 0,3,4
 277 -275 277 -275 270 -247 c 0,5,6
 267 -234 267 -234 259.5 -200.5 c 128,-1,7
 252 -167 252 -167 243 -123.5 c 128,-1,8
 234 -80 234 -80 224.5 -31.5 c 128,-1,9
 215 17 215 17 207 59.5 c 128,-1,10
 199 102 199 102 194 135 c 128,-1,11
 189 168 189 168 189 180 c 0,12,13
 189 210 189 210 198 232.5 c 128,-1,14
 207 255 207 255 221.5 270 c 128,-1,15
 236 285 236 285 254.5 292.5 c 128,-1,16
 273 300 273 300 293 300 c 0,17,18
 312 300 312 300 331 292.5 c 128,-1,19
 350 285 350 285 365 270 c 128,-1,20
 380 255 380 255 389 232.5 c 128,-1,21
 398 210 398 210 398 180 c 0,22,23
 398 168 398 168 393 135 c 128,-1,24
 388 102 388 102 380 59.5 c 128,-1,25
 372 17 372 17 362.5 -31.5 c 128,-1,26
 353 -80 353 -80 344 -123.5 c 128,-1,27
 335 -167 335 -167 327.5 -200.5 c 128,-1,28
 320 -234 320 -234 317 -247 c 0,0,1
633 -247 m 0,29,30
 629 -261 629 -261 622.5 -268 c 128,-1,31
 616 -275 616 -275 609 -275 c 0,32,33
 592 -275 592 -275 585 -247 c 0,34,35
 581 -234 581 -234 574 -200.5 c 128,-1,36
 567 -167 567 -167 558 -123.5 c 128,-1,37
 549 -80 549 -80 539.5 -31.5 c 128,-1,38
 530 17 530 17 522 59.5 c 128,-1,39
 514 102 514 102 509 135 c 128,-1,40
 504 168 504 168 504 180 c 0,41,42
 504 210 504 210 513 232.5 c 128,-1,43
 522 255 522 255 536.5 270 c 128,-1,44
 551 285 551 285 569.5 292.5 c 128,-1,45
 588 300 588 300 608 300 c 0,46,47
 627 300 627 300 646 292.5 c 128,-1,48
 665 285 665 285 680 270 c 128,-1,49
 695 255 695 255 704 232.5 c 128,-1,50
 713 210 713 210 713 180 c 0,51,52
 713 168 713 168 708 135 c 128,-1,53
 703 102 703 102 695 59.5 c 128,-1,54
 687 17 687 17 677.5 -31.5 c 128,-1,55
 668 -80 668 -80 659.5 -123.5 c 128,-1,56
 651 -167 651 -167 643.5 -200.5 c 128,-1,57
 636 -234 636 -234 633 -247 c 0,29,30
EndSplineSet
EndChar

StartChar: dagger
Encoding: 8224 8224 316
Width: 952
Flags: W
LayerCount: 2
Fore
SplineSet
476 8 m 256,0,1
 445 8 445 8 422.5 18.5 c 128,-1,2
 400 29 400 29 385.5 47.5 c 128,-1,3
 371 66 371 66 364 91.5 c 128,-1,4
 357 117 357 117 357 146 c 1,5,6
 361 196 361 196 367 257 c 128,-1,7
 373 318 373 318 379 383 c 128,-1,8
 385 448 385 448 392 514.5 c 128,-1,9
 399 581 399 581 405 643 c 0,10,11
 419 788 419 788 435 939 c 1,12,13
 401 927 401 927 363 914 c 128,-1,14
 325 901 325 901 286 890 c 128,-1,15
 247 879 247 879 207.5 872 c 128,-1,16
 168 865 168 865 132 865 c 0,17,18
 88 865 88 865 57.5 894.5 c 128,-1,19
 27 924 27 924 27 973 c 0,20,21
 27 997 27 997 35 1017.5 c 128,-1,22
 43 1038 43 1038 57 1052.5 c 128,-1,23
 71 1067 71 1067 90 1075.5 c 128,-1,24
 109 1084 109 1084 131 1084 c 0,25,26
 168 1084 168 1084 208 1076.5 c 128,-1,27
 248 1069 248 1069 288 1057.5 c 128,-1,28
 328 1046 328 1046 366.5 1032.5 c 128,-1,29
 405 1019 405 1019 440 1007 c 1,30,31
 419 1093 419 1093 402 1172 c 0,32,33
 395 1206 395 1206 388 1241.5 c 128,-1,34
 381 1277 381 1277 376 1310 c 128,-1,35
 371 1343 371 1343 367.5 1372.5 c 128,-1,36
 364 1402 364 1402 364 1424 c 0,37,38
 364 1458 364 1458 374.5 1482 c 128,-1,39
 385 1506 385 1506 401.5 1521.5 c 128,-1,40
 418 1537 418 1537 437.5 1544.5 c 128,-1,41
 457 1552 457 1552 476 1552 c 256,42,43
 495 1552 495 1552 514.5 1544.5 c 128,-1,44
 534 1537 534 1537 550.5 1521.5 c 128,-1,45
 567 1506 567 1506 577.5 1482 c 128,-1,46
 588 1458 588 1458 588 1424 c 0,47,48
 588 1402 588 1402 584.5 1372.5 c 128,-1,49
 581 1343 581 1343 576 1310 c 128,-1,50
 571 1277 571 1277 564 1241.5 c 128,-1,51
 557 1206 557 1206 550 1172 c 0,52,53
 533 1093 533 1093 512 1007 c 1,54,55
 546 1019 546 1019 585 1032.5 c 128,-1,56
 624 1046 624 1046 664 1057.5 c 128,-1,57
 704 1069 704 1069 744 1076.5 c 128,-1,58
 784 1084 784 1084 821 1084 c 0,59,60
 843 1084 843 1084 862 1075.5 c 128,-1,61
 881 1067 881 1067 895 1052.5 c 128,-1,62
 909 1038 909 1038 917 1017.5 c 128,-1,63
 925 997 925 997 925 973 c 0,64,65
 925 924 925 924 894.5 894.5 c 128,-1,66
 864 865 864 865 820 865 c 0,67,68
 784 865 784 865 744.5 872 c 128,-1,69
 705 879 705 879 666 890 c 128,-1,70
 627 901 627 901 589 914 c 128,-1,71
 551 927 551 927 517 939 c 1,72,73
 532 788 532 788 547 643 c 0,74,75
 553 581 553 581 559.5 514.5 c 128,-1,76
 566 448 566 448 572.5 383 c 128,-1,77
 579 318 579 318 584.5 257 c 128,-1,78
 590 196 590 196 595 146 c 1,79,80
 595 117 595 117 588 91.5 c 128,-1,81
 581 66 581 66 566.5 47.5 c 128,-1,82
 552 29 552 29 529.5 18.5 c 128,-1,83
 507 8 507 8 476 8 c 256,0,1
EndSplineSet
EndChar

StartChar: daggerdbl
Encoding: 8225 8225 317
Width: 1235
Flags: W
LayerCount: 2
Fore
SplineSet
612 -38 m 256,0,1
 584 -38 584 -38 555.5 -29.5 c 128,-1,2
 527 -21 527 -21 503.5 -3.5 c 128,-1,3
 480 14 480 14 465 41.5 c 128,-1,4
 450 69 450 69 450 108 c 0,5,6
 450 145 450 145 459.5 189.5 c 128,-1,7
 469 234 469 234 483 281.5 c 128,-1,8
 497 329 497 329 512.5 376 c 128,-1,9
 528 423 528 423 541 467 c 1,10,11
 505 453 505 453 466 438 c 128,-1,12
 427 423 427 423 386.5 410.5 c 128,-1,13
 346 398 346 398 306 389.5 c 128,-1,14
 266 381 266 381 227 381 c 0,15,16
 201 381 201 381 178.5 389.5 c 128,-1,17
 156 398 156 398 139 414 c 128,-1,18
 122 430 122 430 112.5 451.5 c 128,-1,19
 103 473 103 473 103 500 c 256,20,21
 103 527 103 527 112.5 549 c 128,-1,22
 122 571 122 571 139 586.5 c 128,-1,23
 156 602 156 602 179 610.5 c 128,-1,24
 202 619 202 619 228 619 c 0,25,26
 265 619 265 619 305.5 610.5 c 128,-1,27
 346 602 346 602 387 589.5 c 128,-1,28
 428 577 428 577 467 562.5 c 128,-1,29
 506 548 506 548 541 535 c 1,30,-1
 541 979 l 1,31,32
 506 966 506 966 467 951 c 128,-1,33
 428 936 428 936 387.5 923.5 c 128,-1,34
 347 911 347 911 306 903 c 128,-1,35
 265 895 265 895 228 895 c 0,36,37
 202 895 202 895 179.5 903.5 c 128,-1,38
 157 912 157 912 140 927.5 c 128,-1,39
 123 943 123 943 113 964.5 c 128,-1,40
 103 986 103 986 103 1013 c 0,41,42
 103 1067 103 1067 138.5 1100.5 c 128,-1,43
 174 1134 174 1134 227 1134 c 0,44,45
 265 1134 265 1134 305.5 1125.5 c 128,-1,46
 346 1117 346 1117 386.5 1104 c 128,-1,47
 427 1091 427 1091 466 1075.5 c 128,-1,48
 505 1060 505 1060 541 1047 c 1,49,50
 528 1090 528 1090 512.5 1137.5 c 128,-1,51
 497 1185 497 1185 483 1232 c 128,-1,52
 469 1279 469 1279 459.5 1323 c 128,-1,53
 450 1367 450 1367 450 1404 c 0,54,55
 450 1443 450 1443 465 1471 c 128,-1,56
 480 1499 480 1499 503 1517 c 128,-1,57
 526 1535 526 1535 555 1543.5 c 128,-1,58
 584 1552 584 1552 612 1552 c 256,59,60
 640 1552 640 1552 669 1543.5 c 128,-1,61
 698 1535 698 1535 721 1517 c 128,-1,62
 744 1499 744 1499 759 1471 c 128,-1,63
 774 1443 774 1443 774 1404 c 0,64,65
 774 1367 774 1367 764.5 1323 c 128,-1,66
 755 1279 755 1279 741 1232 c 128,-1,67
 727 1185 727 1185 711.5 1137.5 c 128,-1,68
 696 1090 696 1090 683 1047 c 1,69,70
 719 1060 719 1060 758 1075.5 c 128,-1,71
 797 1091 797 1091 837.5 1104 c 128,-1,72
 878 1117 878 1117 918.5 1125.5 c 128,-1,73
 959 1134 959 1134 997 1134 c 0,74,75
 1050 1134 1050 1134 1085.5 1100.5 c 128,-1,76
 1121 1067 1121 1067 1121 1013 c 0,77,78
 1121 986 1121 986 1111 964.5 c 128,-1,79
 1101 943 1101 943 1084 927.5 c 128,-1,80
 1067 912 1067 912 1044.5 903.5 c 128,-1,81
 1022 895 1022 895 996 895 c 0,82,83
 958 895 958 895 917.5 903 c 128,-1,84
 877 911 877 911 836.5 923.5 c 128,-1,85
 796 936 796 936 757 951 c 128,-1,86
 718 966 718 966 683 979 c 1,87,-1
 683 535 l 1,88,89
 717 548 717 548 756.5 562.5 c 128,-1,90
 796 577 796 577 837 589.5 c 128,-1,91
 878 602 878 602 918.5 610.5 c 128,-1,92
 959 619 959 619 996 619 c 0,93,94
 1022 619 1022 619 1045 610.5 c 128,-1,95
 1068 602 1068 602 1085 586.5 c 128,-1,96
 1102 571 1102 571 1111.5 549 c 128,-1,97
 1121 527 1121 527 1121 500 c 256,98,99
 1121 473 1121 473 1111.5 451.5 c 128,-1,100
 1102 430 1102 430 1085 414 c 128,-1,101
 1068 398 1068 398 1045.5 389.5 c 128,-1,102
 1023 381 1023 381 997 381 c 0,103,104
 958 381 958 381 918 389.5 c 128,-1,105
 878 398 878 398 837.5 410.5 c 128,-1,106
 797 423 797 423 758 438 c 128,-1,107
 719 453 719 453 683 467 c 1,108,109
 696 423 696 423 711.5 376 c 128,-1,110
 727 329 727 329 741 281.5 c 128,-1,111
 755 234 755 234 764.5 189.5 c 128,-1,112
 774 145 774 145 774 108 c 0,113,114
 774 69 774 69 759 41.5 c 128,-1,115
 744 14 744 14 720.5 -3.5 c 128,-1,116
 697 -21 697 -21 668.5 -29.5 c 128,-1,117
 640 -38 640 -38 612 -38 c 256,0,1
EndSplineSet
EndChar

StartChar: bullet
Encoding: 8226 8226 318
Width: 1327
Flags: W
LayerCount: 2
Fore
SplineSet
1174 691 m 256,0,1
 1174 564 1174 564 1145.5 470 c 128,-1,2
 1117 376 1117 376 1057 313.5 c 128,-1,3
 997 251 997 251 904 220.5 c 128,-1,4
 811 190 811 190 681 190 c 0,5,6
 544 190 544 190 444.5 216 c 128,-1,7
 345 242 345 242 280.5 301.5 c 128,-1,8
 216 361 216 361 185 456.5 c 128,-1,9
 154 552 154 552 154 691 c 256,10,11
 154 830 154 830 186 925.5 c 128,-1,12
 218 1021 218 1021 283.5 1079 c 128,-1,13
 349 1137 349 1137 448.5 1162.5 c 128,-1,14
 548 1188 548 1188 683 1188 c 0,15,16
 812 1188 812 1188 904.5 1158 c 128,-1,17
 997 1128 997 1128 1057 1067 c 128,-1,18
 1117 1006 1117 1006 1145.5 912 c 128,-1,19
 1174 818 1174 818 1174 691 c 256,0,1
EndSplineSet
EndChar

StartChar: ellipsis
Encoding: 8230 8230 319
Width: 1821
Flags: W
LayerCount: 2
Fore
SplineSet
147 117 m 256,0,1
 147 151 147 151 158.5 179 c 128,-1,2
 170 207 170 207 191 227.5 c 128,-1,3
 212 248 212 248 240.5 259.5 c 128,-1,4
 269 271 269 271 303 271 c 256,5,6
 337 271 337 271 366 259.5 c 128,-1,7
 395 248 395 248 416 228 c 128,-1,8
 437 208 437 208 449 179.5 c 128,-1,9
 461 151 461 151 461 117 c 256,10,11
 461 83 461 83 449 54.5 c 128,-1,12
 437 26 437 26 416 6 c 128,-1,13
 395 -14 395 -14 366.5 -25.5 c 128,-1,14
 338 -37 338 -37 304 -37 c 0,15,16
 271 -37 271 -37 242 -25.5 c 128,-1,17
 213 -14 213 -14 192 6.5 c 128,-1,18
 171 27 171 27 159 55 c 128,-1,19
 147 83 147 83 147 117 c 256,0,1
754 117 m 256,20,21
 754 151 754 151 765.5 179 c 128,-1,22
 777 207 777 207 798 227.5 c 128,-1,23
 819 248 819 248 847.5 259.5 c 128,-1,24
 876 271 876 271 910 271 c 256,25,26
 944 271 944 271 973 259.5 c 128,-1,27
 1002 248 1002 248 1023 228 c 128,-1,28
 1044 208 1044 208 1056 179.5 c 128,-1,29
 1068 151 1068 151 1068 117 c 256,30,31
 1068 83 1068 83 1056 54.5 c 128,-1,32
 1044 26 1044 26 1023 6 c 128,-1,33
 1002 -14 1002 -14 973.5 -25.5 c 128,-1,34
 945 -37 945 -37 911 -37 c 0,35,36
 878 -37 878 -37 849 -25.5 c 128,-1,37
 820 -14 820 -14 799 6.5 c 128,-1,38
 778 27 778 27 766 55 c 128,-1,39
 754 83 754 83 754 117 c 256,20,21
1361 117 m 256,40,41
 1361 151 1361 151 1372.5 179 c 128,-1,42
 1384 207 1384 207 1405 227.5 c 128,-1,43
 1426 248 1426 248 1454.5 259.5 c 128,-1,44
 1483 271 1483 271 1517 271 c 256,45,46
 1551 271 1551 271 1580 259.5 c 128,-1,47
 1609 248 1609 248 1630 228 c 128,-1,48
 1651 208 1651 208 1663 179.5 c 128,-1,49
 1675 151 1675 151 1675 117 c 256,50,51
 1675 83 1675 83 1663 54.5 c 128,-1,52
 1651 26 1651 26 1630 6 c 128,-1,53
 1609 -14 1609 -14 1580.5 -25.5 c 128,-1,54
 1552 -37 1552 -37 1518 -37 c 0,55,56
 1485 -37 1485 -37 1456 -25.5 c 128,-1,57
 1427 -14 1427 -14 1406 6.5 c 128,-1,58
 1385 27 1385 27 1373 55 c 128,-1,59
 1361 83 1361 83 1361 117 c 256,40,41
EndSplineSet
EndChar

StartChar: guilsinglleft
Encoding: 8249 8249 320
Width: 1849
Flags: W
LayerCount: 2
Fore
SplineSet
543 716 m 1,0,-1
 910 316 l 1,1,2
 921 297 921 297 928.5 280 c 128,-1,3
 936 263 936 263 936 245 c 0,4,5
 936 218 936 218 917.5 198 c 128,-1,6
 899 178 899 178 867 178 c 0,7,8
 850 178 850 178 831.5 183 c 128,-1,9
 813 188 813 188 796 202 c 2,10,-1
 369 574 l 2,11,12
 336 603 336 603 319 640 c 128,-1,13
 302 677 302 677 302 716 c 256,14,15
 302 755 302 755 318.5 792 c 128,-1,16
 335 829 335 829 369 858 c 2,17,-1
 796 1229 l 1,18,19
 817 1243 817 1243 833 1248.5 c 128,-1,20
 849 1254 849 1254 867 1254 c 0,21,22
 899 1254 899 1254 917.5 1233.5 c 128,-1,23
 936 1213 936 1213 936 1187 c 0,24,25
 936 1169 936 1169 928.5 1152.5 c 128,-1,26
 921 1136 921 1136 910 1116 c 1,27,-1
 543 716 l 1,0,-1
EndSplineSet
EndChar

StartChar: guilsinglright
Encoding: 8250 8250 321
Width: 1849
Flags: W
LayerCount: 2
Fore
SplineSet
328 1116 m 1,0,1
 317 1136 317 1136 309.5 1152.5 c 128,-1,2
 302 1169 302 1169 302 1187 c 0,3,4
 302 1213 302 1213 320.5 1233.5 c 128,-1,5
 339 1254 339 1254 371 1254 c 0,6,7
 389 1254 389 1254 405 1248.5 c 128,-1,8
 421 1243 421 1243 442 1229 c 1,9,-1
 869 858 l 2,10,11
 903 829 903 829 919.5 792 c 128,-1,12
 936 755 936 755 936 716 c 256,13,14
 936 677 936 677 919 640 c 128,-1,15
 902 603 902 603 869 574 c 2,16,-1
 442 202 l 2,17,18
 425 188 425 188 406.5 183 c 128,-1,19
 388 178 388 178 371 178 c 0,20,21
 339 178 339 178 320.5 198 c 128,-1,22
 302 218 302 218 302 245 c 0,23,24
 302 263 302 263 309.5 280 c 128,-1,25
 317 297 317 297 328 316 c 1,26,-1
 695 716 l 1,27,-1
 328 1116 l 1,0,1
EndSplineSet
EndChar

StartChar: Euro
Encoding: 8364 8364 322
Width: 1833
Flags: W
LayerCount: 2
Fore
SplineSet
1000 650 m 1,0,-1
 1000 549 l 1,1,-1
 0 549 l 1,2,-1
 0 650 l 1,3,-1
 1000 650 l 1,0,-1
0 824 m 1,4,-1
 0 927 l 1,5,-1
 1000 928 l 1,6,-1
 1000 824 l 1,7,-1
 0 823 l 1,8,-1
 0 824 l 1,4,-1
1337 534 m 1,9,10
 1337 399 1337 399 1325 304 c 128,-1,11
 1313 209 1313 209 1286 145.5 c 128,-1,12
 1259 82 1259 82 1216 46 c 128,-1,13
 1173 10 1173 10 1110 -8.5 c 128,-1,14
 1047 -27 1047 -27 963.5 -31.5 c 128,-1,15
 880 -36 880 -36 772 -36 c 0,16,17
 652 -36 652 -36 559.5 -31 c 128,-1,18
 467 -26 467 -26 397.5 -5.5 c 128,-1,19
 328 15 328 15 280 55 c 128,-1,20
 232 95 232 95 202.5 165 c 128,-1,21
 173 235 173 235 160 340 c 128,-1,22
 147 445 147 445 147 594 c 2,23,-1
 147 903 l 2,24,25
 147 1052 147 1052 160 1157 c 128,-1,26
 173 1262 173 1262 202.5 1332 c 128,-1,27
 232 1402 232 1402 280 1442 c 128,-1,28
 328 1482 328 1482 397.5 1502.5 c 128,-1,29
 467 1523 467 1523 559.5 1528 c 128,-1,30
 652 1533 652 1533 772 1533 c 0,31,32
 880 1533 880 1533 963.5 1528.5 c 128,-1,33
 1047 1524 1047 1524 1110 1505.5 c 128,-1,34
 1173 1487 1173 1487 1216 1451 c 128,-1,35
 1259 1415 1259 1415 1286 1351.5 c 128,-1,36
 1313 1288 1313 1288 1325 1193 c 128,-1,37
 1337 1098 1337 1098 1337 963 c 1,38,-1
 1126 963 l 1,39,40
 1125 1066 1125 1066 1123 1137 c 128,-1,41
 1121 1208 1121 1208 1111 1254 c 128,-1,42
 1101 1300 1101 1300 1079.5 1324.5 c 128,-1,43
 1058 1349 1058 1349 1019 1360.5 c 128,-1,44
 980 1372 980 1372 920 1374 c 128,-1,45
 860 1376 860 1376 772 1376 c 0,46,47
 672 1376 672 1376 603 1374 c 128,-1,48
 534 1372 534 1372 489.5 1358.5 c 128,-1,49
 445 1345 445 1345 420.5 1316.5 c 128,-1,50
 396 1288 396 1288 384.5 1235.5 c 128,-1,51
 373 1183 373 1183 370.5 1102 c 128,-1,52
 368 1021 368 1021 368 903 c 2,53,-1
 368 594 l 2,54,55
 368 476 368 476 370.5 395 c 128,-1,56
 373 314 373 314 384.5 261.5 c 128,-1,57
 396 209 396 209 420.5 180.5 c 128,-1,58
 445 152 445 152 489.5 138.5 c 128,-1,59
 534 125 534 125 603 123 c 128,-1,60
 672 121 672 121 772 121 c 0,61,62
 860 121 860 121 920 123 c 128,-1,63
 980 125 980 125 1019 136.5 c 128,-1,64
 1058 148 1058 148 1079.5 172.5 c 128,-1,65
 1101 197 1101 197 1111 243 c 128,-1,66
 1121 289 1121 289 1123 360 c 128,-1,67
 1125 431 1125 431 1126 534 c 1,68,-1
 1337 534 l 1,9,10
EndSplineSet
EndChar

StartChar: trademark
Encoding: 8482 8482 323
Width: 2146
Flags: W
LayerCount: 2
Fore
SplineSet
652 1521 m 1,0,-1
 652 1400 l 1,1,-1
 482 1400 l 1,2,-1
 482 643 l 1,3,-1
 325 643 l 1,4,-1
 325 1400 l 1,5,-1
 156 1400 l 1,6,-1
 156 1521 l 1,7,-1
 652 1521 l 1,0,-1
1060 643 m 1,8,-1
 913 1116 l 1,9,-1
 913 643 l 1,10,-1
 748 643 l 1,11,-1
 748 1521 l 1,12,-1
 962 1521 l 1,13,-1
 1120 960 l 1,14,-1
 1280 1521 l 1,15,-1
 1491 1521 l 1,16,-1
 1491 643 l 1,17,-1
 1326 643 l 1,18,-1
 1326 1116 l 1,19,-1
 1177 643 l 1,20,-1
 1060 643 l 1,8,-1
EndSplineSet
EndChar

StartChar: exclam
Encoding: 33 33 324
Width: 815
Flags: W
LayerCount: 2
Fore
SplineSet
406 -38 m 256,0,1
 372 -38 372 -38 342 -26.5 c 128,-1,2
 312 -15 312 -15 290 5.5 c 128,-1,3
 268 26 268 26 255 54.5 c 128,-1,4
 242 83 242 83 242 118 c 256,5,6
 242 153 242 153 255 181.5 c 128,-1,7
 268 210 268 210 290 230.5 c 128,-1,8
 312 251 312 251 342 262.5 c 128,-1,9
 372 274 372 274 406 274 c 256,10,11
 440 274 440 274 470.5 263 c 128,-1,12
 501 252 501 252 523.5 231.5 c 128,-1,13
 546 211 546 211 559 182 c 128,-1,14
 572 153 572 153 572 118 c 256,15,16
 572 83 572 83 559 54 c 128,-1,17
 546 25 546 25 523.5 4.5 c 128,-1,18
 501 -16 501 -16 470.5 -27 c 128,-1,19
 440 -38 440 -38 406 -38 c 256,0,1
534 1401 m 0,20,21
 534 1381 534 1381 531 1337.5 c 128,-1,22
 528 1294 528 1294 523 1235.5 c 128,-1,23
 518 1177 518 1177 511 1108.5 c 128,-1,24
 504 1040 504 1040 496.5 969.5 c 128,-1,25
 489 899 489 899 480.5 831.5 c 128,-1,26
 472 764 472 764 464.5 708.5 c 128,-1,27
 457 653 457 653 450.5 613 c 128,-1,28
 444 573 444 573 439 558 c 0,29,30
 435 547 435 547 427.5 537 c 128,-1,31
 420 527 420 527 406 527 c 0,32,33
 396 527 396 527 385.5 538.5 c 128,-1,34
 375 550 375 550 372 558 c 0,35,36
 368 567 368 567 362 604.5 c 128,-1,37
 356 642 356 642 349 697.5 c 128,-1,38
 342 753 342 753 334.5 822 c 128,-1,39
 327 891 327 891 319.5 963.5 c 128,-1,40
 312 1036 312 1036 305.5 1107 c 128,-1,41
 299 1178 299 1178 294 1238 c 128,-1,42
 289 1298 289 1298 286 1341.5 c 128,-1,43
 283 1385 283 1385 283 1403 c 0,44,45
 283 1430 283 1430 290.5 1457.5 c 128,-1,46
 298 1485 298 1485 313 1506.5 c 128,-1,47
 328 1528 328 1528 350.5 1542 c 128,-1,48
 373 1556 373 1556 404 1556 c 0,49,50
 436 1556 436 1556 460.5 1542.5 c 128,-1,51
 485 1529 485 1529 501.5 1507.5 c 128,-1,52
 518 1486 518 1486 526 1458 c 128,-1,53
 534 1430 534 1430 534 1401 c 0,20,21
EndSplineSet
EndChar

StartChar: commaaccent.001
Encoding: 65538 -1 325
Width: 711
Flags: W
LayerCount: 2
Fore
SplineSet
345 -479 m 1,0,1
 304 -475 304 -475 274 -459.5 c 128,-1,2
 244 -444 244 -444 224.5 -421.5 c 128,-1,3
 205 -399 205 -399 195.5 -371 c 128,-1,4
 186 -343 186 -343 186 -314 c 0,5,6
 186 -280 186 -280 197.5 -247.5 c 128,-1,7
 209 -215 209 -215 231.5 -189 c 128,-1,8
 254 -163 254 -163 286.5 -147 c 128,-1,9
 319 -131 319 -131 361 -131 c 0,10,11
 397 -131 397 -131 432 -144 c 128,-1,12
 467 -157 467 -157 495 -182.5 c 128,-1,13
 523 -208 523 -208 540 -246.5 c 128,-1,14
 557 -285 557 -285 557 -335 c 0,15,16
 557 -411 557 -411 530.5 -478.5 c 128,-1,17
 504 -546 504 -546 457 -596.5 c 128,-1,18
 410 -647 410 -647 345 -676.5 c 128,-1,19
 280 -706 280 -706 202 -706 c 1,20,-1
 202 -638 l 1,21,22
 226 -638 226 -638 251.5 -628 c 128,-1,23
 277 -618 277 -618 298 -598 c 128,-1,24
 319 -578 319 -578 332 -548.5 c 128,-1,25
 345 -519 345 -519 345 -479 c 1,0,1
EndSplineSet
EndChar

StartChar: commaaccent
Encoding: 65539 -1 326
Width: 712
Flags: W
LayerCount: 2
Fore
SplineSet
345 -479 m 1,0,1
 304 -475 304 -475 274 -459.5 c 128,-1,2
 244 -444 244 -444 224.5 -421.5 c 128,-1,3
 205 -399 205 -399 195.5 -371 c 128,-1,4
 186 -343 186 -343 186 -314 c 0,5,6
 186 -280 186 -280 197.5 -247.5 c 128,-1,7
 209 -215 209 -215 231.5 -189 c 128,-1,8
 254 -163 254 -163 286.5 -147 c 128,-1,9
 319 -131 319 -131 361 -131 c 0,10,11
 397 -131 397 -131 432 -144 c 128,-1,12
 467 -157 467 -157 495 -182.5 c 128,-1,13
 523 -208 523 -208 540 -246.5 c 128,-1,14
 557 -285 557 -285 557 -335 c 0,15,16
 557 -411 557 -411 530.5 -478.5 c 128,-1,17
 504 -546 504 -546 457 -596.5 c 128,-1,18
 410 -647 410 -647 345 -676.5 c 128,-1,19
 280 -706 280 -706 202 -706 c 1,20,-1
 202 -638 l 1,21,22
 226 -638 226 -638 251.5 -628 c 128,-1,23
 277 -618 277 -618 298 -598 c 128,-1,24
 319 -578 319 -578 332 -548.5 c 128,-1,25
 345 -519 345 -519 345 -479 c 1,0,1
EndSplineSet
EndChar

StartChar: quotedbl
Encoding: 34 34 328
Width: 1219
Flags: W
LayerCount: 2
Fore
SplineSet
566 953 m 0,0,1
 563 939 563 939 556.5 932 c 128,-1,2
 550 925 550 925 543 925 c 0,3,4
 526 925 526 925 519 953 c 0,5,6
 515 966 515 966 508 999.5 c 128,-1,7
 501 1033 501 1033 492 1076.5 c 128,-1,8
 483 1120 483 1120 473.5 1168.5 c 128,-1,9
 464 1217 464 1217 456 1259.5 c 128,-1,10
 448 1302 448 1302 443 1335 c 128,-1,11
 438 1368 438 1368 438 1380 c 0,12,13
 438 1410 438 1410 447 1432.5 c 128,-1,14
 456 1455 456 1455 470.5 1470 c 128,-1,15
 485 1485 485 1485 503.5 1492.5 c 128,-1,16
 522 1500 522 1500 542 1500 c 0,17,18
 561 1500 561 1500 580 1492.5 c 128,-1,19
 599 1485 599 1485 614 1470 c 128,-1,20
 629 1455 629 1455 638 1432.5 c 128,-1,21
 647 1410 647 1410 647 1380 c 0,22,23
 647 1368 647 1368 642 1335 c 128,-1,24
 637 1302 637 1302 629 1259.5 c 128,-1,25
 621 1217 621 1217 611.5 1168.5 c 128,-1,26
 602 1120 602 1120 593 1076.5 c 128,-1,27
 584 1033 584 1033 576.5 999.5 c 128,-1,28
 569 966 569 966 566 953 c 0,0,1
882 953 m 0,29,30
 878 939 878 939 871.5 932 c 128,-1,31
 865 925 865 925 858 925 c 0,32,33
 841 925 841 925 834 953 c 0,34,35
 830 966 830 966 823 999.5 c 128,-1,36
 816 1033 816 1033 807 1076.5 c 128,-1,37
 798 1120 798 1120 788.5 1168.5 c 128,-1,38
 779 1217 779 1217 771 1259.5 c 128,-1,39
 763 1302 763 1302 758 1335 c 128,-1,40
 753 1368 753 1368 753 1380 c 0,41,42
 753 1410 753 1410 762 1432.5 c 128,-1,43
 771 1455 771 1455 785.5 1470 c 128,-1,44
 800 1485 800 1485 818.5 1492.5 c 128,-1,45
 837 1500 837 1500 857 1500 c 0,46,47
 876 1500 876 1500 895 1492.5 c 128,-1,48
 914 1485 914 1485 929 1470 c 128,-1,49
 944 1455 944 1455 953 1432.5 c 128,-1,50
 962 1410 962 1410 962 1380 c 0,51,52
 962 1368 962 1368 957 1335 c 128,-1,53
 952 1302 952 1302 944 1259.5 c 128,-1,54
 936 1217 936 1217 926.5 1168.5 c 128,-1,55
 917 1120 917 1120 908.5 1076.5 c 128,-1,56
 900 1033 900 1033 892.5 999.5 c 128,-1,57
 885 966 885 966 882 953 c 0,29,30
EndSplineSet
EndChar

StartChar: fraction
Encoding: 8260 8260 329
Width: 728
Flags: W
LayerCount: 2
Fore
SplineSet
781 1499 m 1,0,-1
 123 0 l 1,1,-1
 -15 0 l 1,2,-1
 639 1499 l 1,3,-1
 781 1499 l 1,0,-1
EndSplineSet
EndChar

StartChar: florin
Encoding: 402 402 330
Width: 698
Flags: W
LayerCount: 2
Fore
SplineSet
418 -50 m 2,0,1
 418 -102 418 -102 414 -149.5 c 128,-1,2
 410 -197 410 -197 386 -233 c 128,-1,3
 362 -269 362 -269 310 -290.5 c 128,-1,4
 258 -312 258 -312 162 -312 c 0,5,6
 116 -312 116 -312 70.5 -306.5 c 128,-1,7
 25 -301 25 -301 -21 -294 c 1,8,-1
 -21 -145 l 1,9,-1
 201 -145 l 1,10,-1
 201 736 l 1,11,-1
 18 736 l 1,12,-1
 18 855 l 1,13,-1
 201 855 l 1,14,-1
 199 1271 l 2,15,16
 199 1335 199 1335 205 1391 c 128,-1,17
 211 1447 211 1447 236.5 1489 c 128,-1,18
 262 1531 262 1531 314 1555 c 128,-1,19
 366 1579 366 1579 457 1579 c 0,20,21
 503 1579 503 1579 548.5 1573.5 c 128,-1,22
 594 1568 594 1568 640 1561 c 1,23,-1
 640 1412 l 1,24,-1
 418 1412 l 1,25,-1
 418 855 l 1,26,-1
 636 855 l 1,27,-1
 636 736 l 1,28,-1
 418 736 l 1,29,-1
 418 -50 l 2,0,1
EndSplineSet
EndChar

StartChar: periodcentered
Encoding: 183 183 331
Width: 607
Flags: W
LayerCount: 2
Fore
SplineSet
147 682 m 256,0,1
 147 716 147 716 158.5 744 c 128,-1,2
 170 772 170 772 191 792.5 c 128,-1,3
 212 813 212 813 240.5 824.5 c 128,-1,4
 269 836 269 836 303 836 c 256,5,6
 337 836 337 836 366 824.5 c 128,-1,7
 395 813 395 813 416 793 c 128,-1,8
 437 773 437 773 449 744.5 c 128,-1,9
 461 716 461 716 461 682 c 256,10,11
 461 648 461 648 449 619.5 c 128,-1,12
 437 591 437 591 416 571 c 128,-1,13
 395 551 395 551 366.5 539.5 c 128,-1,14
 338 528 338 528 304 528 c 0,15,16
 271 528 271 528 242 539.5 c 128,-1,17
 213 551 213 551 192 571.5 c 128,-1,18
 171 592 171 592 159 620 c 128,-1,19
 147 648 147 648 147 682 c 256,0,1
EndSplineSet
EndChar

StartChar: fi
Encoding: 64257 64257 332
Width: 1303
Flags: W
LayerCount: 2
Fore
SplineSet
1145 0 m 1,0,-1
 926 0 l 1,1,-1
 926 1028 l 1,2,-1
 461 1028 l 1,3,-1
 461 0 l 1,4,-1
 244 0 l 1,5,-1
 244 1028 l 1,6,-1
 101 1028 l 1,7,-1
 101 1147 l 1,8,-1
 244 1147 l 1,9,10
 244 1218 244 1218 242 1278 c 128,-1,11
 240 1338 240 1338 243.5 1386 c 128,-1,12
 247 1434 247 1434 259 1470 c 128,-1,13
 271 1506 271 1506 299.5 1530.5 c 128,-1,14
 328 1555 328 1555 376.5 1567 c 128,-1,15
 425 1579 425 1579 500 1579 c 0,16,17
 551 1579 551 1579 601.5 1573.5 c 128,-1,18
 652 1568 652 1568 703 1561 c 1,19,-1
 703 1412 l 1,20,-1
 461 1412 l 1,21,-1
 461 1147 l 1,22,-1
 1145 1147 l 1,23,-1
 1145 0 l 1,0,-1
1145 1384 m 1,24,-1
 926 1384 l 1,25,-1
 926 1571 l 1,26,-1
 1145 1571 l 1,27,-1
 1145 1384 l 1,24,-1
EndSplineSet
EndChar

StartChar: fl
Encoding: 64258 64258 333
Width: 1306
Flags: W
LayerCount: 2
Fore
SplineSet
101 1147 m 1,0,-1
 244 1147 l 1,1,2
 244 1185 244 1185 242.5 1223 c 128,-1,3
 241 1261 241 1261 241 1296 c 0,4,5
 241 1356 241 1356 249 1407.5 c 128,-1,6
 257 1459 257 1459 283.5 1497 c 128,-1,7
 310 1535 310 1535 361.5 1557 c 128,-1,8
 413 1579 413 1579 500 1579 c 0,9,10
 515 1579 515 1579 564 1578.5 c 128,-1,11
 613 1578 613 1578 678 1576.5 c 128,-1,12
 743 1575 743 1575 817 1573.5 c 128,-1,13
 891 1572 891 1572 956 1570 c 128,-1,14
 1021 1568 1021 1568 1070 1565.5 c 128,-1,15
 1119 1563 1119 1563 1134 1561 c 1,16,-1
 1133 0 l 1,17,-1
 916 0 l 1,18,-1
 916 1412 l 1,19,-1
 461 1412 l 1,20,-1
 461 1147 l 1,21,-1
 679 1147 l 1,22,-1
 679 1028 l 1,23,-1
 461 1028 l 1,24,-1
 461 0 l 1,25,-1
 244 0 l 1,26,-1
 244 1028 l 1,27,-1
 101 1028 l 1,28,-1
 101 1147 l 1,0,-1
EndSplineSet
EndChar
